{"glyphs":{"0":{"ha":833,"x_min":72,"x_max":760,"o":"m 424 734 q 597 689 521 734 q 716 561 673 644 q 760 370 760 478 q 715 170 760 259 q 591 31 671 81 q 408 -20 511 -20 q 235 26 312 -20 q 115 154 159 71 q 72 347 72 237 q 116 545 72 457 q 239 684 159 633 q 424 734 319 734 m 411 710 q 305 667 351 710 q 233 544 258 625 q 207 351 207 463 q 235 154 207 232 q 312 41 264 77 q 421 5 361 5 q 527 48 481 5 q 600 173 574 92 q 625 366 625 254 q 597 562 625 484 q 520 674 568 639 q 411 710 471 710 z "},"1":{"ha":514,"x_min":65,"x_max":485,"o":"m 351 143 q 365 74 351 98 q 407 39 378 50 q 485 29 435 29 l 485 0 q 456 1 478 0 q 293 5 330 5 q 113 1 251 5 q 79 0 87 0 l 79 29 q 190 54 153 29 q 227 143 227 79 l 227 479 q 213 578 227 547 q 166 619 199 609 q 65 629 133 629 l 65 660 q 233 678 167 662 q 351 730 299 694 l 351 143 z "},"2":{"ha":665,"x_min":65,"x_max":603,"o":"m 339 734 q 492 689 436 734 q 547 559 547 643 q 518 449 547 503 q 446 351 488 395 q 334 244 403 306 q 199 107 235 156 l 481 107 q 537 114 519 107 q 563 134 555 120 q 574 178 570 149 l 597 178 q 603 -7 597 50 q 396 0 572 0 l 71 0 l 71 24 q 152 103 92 47 q 284 236 233 178 q 374 369 336 294 q 412 529 412 444 q 273 679 412 679 q 87 549 160 679 l 65 561 q 169 686 102 637 q 339 734 236 734 z "},"3":{"ha":627,"x_min":52,"x_max":566,"o":"m 315 734 q 418 715 373 734 q 490 661 464 696 q 515 576 515 625 q 487 479 515 525 q 411 400 458 434 q 309 347 363 367 q 435 322 376 346 q 529 252 493 298 q 566 136 566 205 q 489 -44 566 35 q 293 -166 412 -123 q 52 -210 173 -210 l 52 -184 q 237 -144 150 -182 q 379 -34 325 -106 q 433 136 433 38 q 415 233 433 190 q 364 301 397 276 q 286 330 330 327 q 264 321 280 328 q 239 313 249 315 q 221 310 229 310 q 199 328 199 310 q 209 347 199 340 q 235 354 219 354 q 261 351 243 354 l 283 349 q 364 441 338 390 q 390 549 390 493 q 358 643 390 612 q 269 673 327 673 q 163 643 211 673 q 85 550 116 612 l 61 561 q 315 734 141 734 z "},"4":{"ha":686,"x_min":24,"x_max":636,"o":"m 636 68 q 497 75 615 73 l 497 -196 l 386 -196 l 386 75 l 24 75 l 24 104 l 475 734 l 497 734 l 497 168 l 514 168 q 570 175 552 168 q 596 195 589 181 q 607 239 604 210 l 631 239 q 636 68 631 122 m 386 564 l 106 168 l 386 168 l 386 564 z "},"5":{"ha":576,"x_min":62,"x_max":521,"o":"m 464 785 q 469 582 464 644 q 277 589 439 589 l 129 589 l 113 321 q 187 352 151 340 q 275 363 224 363 q 412 335 357 363 q 494 259 467 308 q 521 149 521 211 q 453 -35 521 45 q 279 -161 386 -116 q 62 -205 173 -205 l 62 -180 q 222 -144 147 -180 q 342 -37 296 -108 q 389 135 389 35 q 343 272 389 223 q 214 321 298 321 q 156 315 180 321 q 100 297 132 310 l 86 306 l 113 720 q 187 714 140 714 l 345 714 q 401 721 382 714 q 426 741 419 727 q 437 785 433 755 l 464 785 z "},"6":{"ha":718,"x_min":77,"x_max":665,"o":"m 415 608 q 539 572 481 608 q 631 468 596 536 q 665 306 665 399 q 624 131 665 205 q 514 19 583 57 q 359 -20 444 -20 q 208 27 271 -20 q 111 162 144 73 q 77 375 77 251 q 151 705 77 570 q 332 911 224 840 q 547 1004 439 983 l 553 977 q 400 902 468 949 q 281 755 333 854 q 216 494 230 656 q 303 581 248 553 q 415 608 359 608 m 374 8 q 452 38 417 8 q 509 132 488 68 q 530 296 530 197 q 489 503 530 437 q 380 568 448 568 q 284 539 332 568 q 213 448 236 511 q 211 378 211 415 q 234 158 211 240 q 294 42 258 75 q 374 8 331 8 z "},"7":{"ha":564,"x_min":37,"x_max":553,"o":"m 553 685 q 480 536 530 631 q 393 357 427 434 q 335 183 359 281 q 313 -25 312 85 q 316 -92 313 -58 q 318 -135 318 -138 q 300 -186 318 -166 q 253 -205 282 -205 q 207 -183 222 -205 q 191 -127 191 -161 q 223 82 191 -21 q 301 273 255 186 q 423 486 347 361 q 489 597 470 564 l 160 597 q 103 591 122 597 q 78 570 85 585 q 66 526 71 556 l 43 526 q 37 721 43 663 q 244 714 68 714 l 553 714 l 553 685 z "},"8":{"ha":722,"x_min":72,"x_max":652,"o":"m 425 556 q 546 461 502 500 q 621 369 589 423 q 652 245 652 315 q 613 107 652 168 q 506 14 574 47 q 351 -20 437 -20 q 212 7 275 -20 q 110 86 149 33 q 72 214 72 138 q 133 385 72 310 q 295 510 194 460 q 202 593 239 555 q 141 680 165 632 q 118 786 118 728 q 152 899 118 850 q 243 976 185 948 q 372 1003 301 1003 q 488 981 436 1003 q 571 916 541 959 q 602 812 602 873 q 556 675 602 738 q 425 556 510 613 m 357 978 q 290 960 320 978 q 243 908 260 941 q 227 829 227 874 q 250 730 227 774 q 311 649 273 685 q 404 572 348 613 q 490 794 490 654 q 455 928 490 878 q 357 978 420 978 m 359 5 q 447 27 407 5 q 510 89 486 48 q 533 187 533 130 q 503 304 533 252 q 433 395 473 357 q 316 494 392 433 q 195 235 195 405 q 235 71 195 136 q 359 5 275 5 z "},"9":{"ha":707,"x_min":52,"x_max":640,"o":"m 357 734 q 509 691 445 734 q 606 566 572 648 q 640 368 640 484 q 566 68 640 191 q 384 -122 492 -56 q 170 -205 276 -188 l 164 -178 q 307 -116 243 -155 q 423 2 372 -77 q 494 208 475 81 q 408 132 461 156 q 301 107 354 107 q 178 143 235 107 q 86 248 121 179 q 52 410 52 316 q 93 584 52 511 q 203 696 134 658 q 357 734 273 734 m 336 147 q 429 173 383 147 q 500 256 475 199 q 505 366 505 311 q 482 569 505 492 q 422 676 458 645 q 343 707 386 707 q 264 677 300 707 q 207 583 229 647 q 186 419 186 518 q 228 213 186 278 q 336 147 269 147 z "}," ":{"ha":346,"x_min":0,"x_max":0,"o":""},"A":{"ha":875,"x_min":-9,"x_max":884,"o":"m 787 117 q 884 28 821 31 l 884 0 q 734 4 827 4 q 557 0 616 4 l 557 28 q 632 41 610 30 q 655 79 655 52 q 639 144 655 103 l 553 372 l 218 372 l 161 225 q 134 111 134 155 q 163 48 134 67 q 254 28 193 29 l 254 0 q 94 4 175 4 q -9 0 32 4 l -9 28 q 100 149 60 43 l 427 990 l 449 990 l 787 117 m 388 814 l 229 400 l 543 400 l 388 814 z "},"Á":{"ha":875,"x_min":-9,"x_max":884,"o":"m 0 0 m 787 117 q 884 28 821 31 l 884 0 q 734 4 827 4 q 557 0 616 4 l 557 28 q 632 41 610 30 q 655 79 655 52 q 639 144 655 103 l 553 372 l 218 372 l 161 225 q 134 111 134 155 q 163 48 134 67 q 254 28 193 29 l 254 0 q 94 4 175 4 q -9 0 32 4 l -9 28 q 100 149 60 43 l 427 990 l 449 990 l 787 117 m 388 814 l 229 400 l 543 400 l 388 814 m 578 1286 q 620 1299 599 1299 q 663 1276 647 1299 q 670 1251 670 1263 q 633 1196 670 1220 q 534 1152 603 1177 q 354 1072 426 1108 l 345 1090 q 492 1215 406 1137 q 578 1286 550 1268 z "},"Ă":{"ha":875,"x_min":-9,"x_max":884,"o":"m 0 0 m 787 117 q 884 28 821 31 l 884 0 q 734 4 827 4 q 557 0 616 4 l 557 28 q 632 41 610 30 q 655 79 655 52 q 639 144 655 103 l 553 372 l 218 372 l 161 225 q 134 111 134 155 q 163 48 134 67 q 254 28 193 29 l 254 0 q 94 4 175 4 q -9 0 32 4 l -9 28 q 100 149 60 43 l 427 990 l 449 990 l 787 117 m 388 814 l 229 400 l 543 400 l 388 814 m 705 1247 q 595 1134 665 1181 q 429 1086 526 1086 q 263 1134 333 1086 q 153 1247 193 1181 l 171 1261 q 273 1198 209 1224 q 429 1173 338 1173 q 585 1199 520 1173 q 689 1263 650 1225 l 705 1247 z "},"Â":{"ha":875,"x_min":-9,"x_max":884,"o":"m 0 0 m 787 117 q 884 28 821 31 l 884 0 q 734 4 827 4 q 557 0 616 4 l 557 28 q 632 41 610 30 q 655 79 655 52 q 639 144 655 103 l 553 372 l 218 372 l 161 225 q 134 111 134 155 q 163 48 134 67 q 254 28 193 29 l 254 0 q 94 4 175 4 q -9 0 32 4 l -9 28 q 100 149 60 43 l 427 990 l 449 990 l 787 117 m 388 814 l 229 400 l 543 400 l 388 814 m 442 1272 q 544 1169 475 1218 q 702 1089 612 1120 l 694 1069 q 530 1114 610 1087 q 401 1166 449 1141 q 297 1114 362 1141 q 164 1069 231 1087 l 157 1089 q 315 1169 246 1120 q 417 1272 384 1218 l 442 1272 z "},"Ä":{"ha":875,"x_min":-9,"x_max":884,"o":"m 0 0 m 787 117 q 884 28 821 31 l 884 0 q 734 4 827 4 q 557 0 616 4 l 557 28 q 632 41 610 30 q 655 79 655 52 q 639 144 655 103 l 553 372 l 218 372 l 161 225 q 134 111 134 155 q 163 48 134 67 q 254 28 193 29 l 254 0 q 94 4 175 4 q -9 0 32 4 l -9 28 q 100 149 60 43 l 427 990 l 449 990 l 787 117 m 388 814 l 229 400 l 543 400 l 388 814 m 282 1234 q 322 1222 303 1234 q 352 1193 340 1211 q 363 1153 363 1174 q 352 1113 363 1131 q 322 1083 340 1094 q 282 1072 303 1072 q 225 1096 249 1072 q 201 1153 201 1120 q 212 1193 201 1174 q 242 1222 223 1211 q 282 1234 260 1234 m 576 1234 q 616 1222 597 1234 q 646 1193 635 1211 q 657 1153 657 1174 q 646 1113 657 1131 q 616 1083 635 1094 q 576 1072 598 1072 q 519 1096 543 1072 q 496 1153 496 1120 q 507 1193 496 1174 q 536 1222 517 1211 q 576 1234 555 1234 z "},"À":{"ha":875,"x_min":-9,"x_max":884,"o":"m 0 0 m 787 117 q 884 28 821 31 l 884 0 q 734 4 827 4 q 557 0 616 4 l 557 28 q 632 41 610 30 q 655 79 655 52 q 639 144 655 103 l 553 372 l 218 372 l 161 225 q 134 111 134 155 q 163 48 134 67 q 254 28 193 29 l 254 0 q 94 4 175 4 q -9 0 32 4 l -9 28 q 100 149 60 43 l 427 990 l 449 990 l 787 117 m 388 814 l 229 400 l 543 400 l 388 814 m 289 1286 q 374 1215 317 1268 q 522 1090 460 1137 l 513 1072 q 332 1152 441 1108 q 233 1196 264 1177 q 197 1251 197 1220 q 204 1276 197 1263 q 247 1299 220 1299 q 289 1286 268 1299 z "},"Ā":{"ha":875,"x_min":-9,"x_max":884,"o":"m 0 0 m 787 117 q 884 28 821 31 l 884 0 q 734 4 827 4 q 557 0 616 4 l 557 28 q 632 41 610 30 q 655 79 655 52 q 639 144 655 103 l 553 372 l 218 372 l 161 225 q 134 111 134 155 q 163 48 134 67 q 254 28 193 29 l 254 0 q 94 4 175 4 q -9 0 32 4 l -9 28 q 100 149 60 43 l 427 990 l 449 990 l 787 117 m 388 814 l 229 400 l 543 400 l 388 814 m 184 1137 l 184 1173 l 673 1173 l 673 1137 l 184 1137 z "},"Ą":{"ha":875,"x_min":-9,"x_max":888,"o":"m 888 -167 q 732 -261 827 -261 q 652 -236 682 -261 q 622 -171 622 -212 q 671 -72 622 -117 q 811 3 720 -26 q 734 4 786 4 q 557 0 616 4 l 557 28 q 632 41 610 30 q 655 79 655 52 q 639 144 655 102 l 553 372 l 218 372 l 161 225 q 134 111 134 155 q 163 48 134 67 q 254 28 193 29 l 254 0 q 94 4 175 4 q -9 0 33 4 l -9 28 q 100 149 60 43 l 427 990 l 449 990 l 787 117 q 884 28 821 31 l 884 0 l 858 1 q 755 -56 787 -19 q 724 -134 724 -94 q 740 -178 724 -161 q 783 -195 755 -195 q 831 -181 808 -195 q 868 -149 854 -168 l 888 -167 m 388 814 l 229 400 l 543 400 l 388 814 z "},"Å":{"ha":875,"x_min":-9,"x_max":884,"o":"m 0 0 m 787 117 q 884 28 821 31 l 884 0 q 734 4 827 4 q 557 0 616 4 l 557 28 q 632 41 610 30 q 655 79 655 52 q 639 144 655 103 l 553 372 l 218 372 l 161 225 q 134 111 134 155 q 163 48 134 67 q 254 28 193 29 l 254 0 q 94 4 175 4 q -9 0 32 4 l -9 28 q 100 149 60 43 l 427 990 l 449 990 l 787 117 m 388 814 l 229 400 l 543 400 l 388 814 m 429 1284 q 497 1269 466 1284 q 546 1225 528 1253 q 564 1158 564 1196 q 546 1091 564 1120 q 497 1046 528 1062 q 429 1031 466 1031 q 363 1046 393 1031 q 315 1091 333 1062 q 296 1158 296 1120 q 315 1225 296 1196 q 363 1269 333 1253 q 429 1284 394 1284 m 429 1255 q 385 1244 406 1255 q 349 1210 363 1232 q 335 1157 335 1187 q 349 1104 335 1126 q 385 1071 363 1082 q 429 1060 406 1060 q 476 1071 454 1060 q 512 1104 498 1082 q 526 1157 526 1126 q 512 1210 526 1187 q 475 1244 498 1232 q 429 1255 453 1255 z "},"Ã":{"ha":875,"x_min":-9,"x_max":884,"o":"m 0 0 m 787 117 q 884 28 821 31 l 884 0 q 734 4 827 4 q 557 0 616 4 l 557 28 q 632 41 610 30 q 655 79 655 52 q 639 144 655 103 l 553 372 l 218 372 l 161 225 q 134 111 134 155 q 163 48 134 67 q 254 28 193 29 l 254 0 q 94 4 175 4 q -9 0 32 4 l -9 28 q 100 149 60 43 l 427 990 l 449 990 l 787 117 m 388 814 l 229 400 l 543 400 l 388 814 m 317 1253 q 382 1239 351 1253 q 456 1198 412 1225 q 527 1159 499 1171 q 587 1146 555 1146 q 673 1223 651 1146 l 693 1219 q 667 1141 689 1175 q 612 1090 646 1108 q 539 1072 578 1072 q 474 1086 505 1072 q 400 1127 443 1100 q 330 1166 359 1154 q 270 1179 301 1179 q 184 1101 205 1179 l 163 1105 q 189 1183 167 1150 q 244 1235 210 1217 q 317 1253 278 1253 z "},"Æ":{"ha":1186,"x_min":-14,"x_max":1120,"o":"m 1109 178 q 1120 0 1109 96 q 829 4 1034 4 q 496 0 611 4 l 496 28 q 551 39 534 30 q 574 71 568 47 q 581 147 581 95 l 581 481 l 338 481 l 135 144 q 109 77 109 101 q 133 41 109 52 q 205 28 157 30 l 205 0 q 79 4 163 4 q -14 0 21 4 l -14 28 q 31 49 9 29 q 82 117 54 69 l 569 920 q 536 946 559 939 q 468 956 514 954 l 468 983 q 606 981 509 982 l 661 1072 l 694 1072 l 639 980 q 744 979 695 979 q 829 979 792 979 q 1092 983 1014 979 q 1082 819 1082 895 q 1086 733 1082 762 l 1054 733 q 1035 867 1046 823 q 995 931 1023 911 q 909 951 966 951 l 822 951 q 749 943 772 951 q 719 912 727 935 q 710 836 710 888 l 710 509 l 811 509 q 870 528 850 509 q 898 574 890 547 q 909 639 905 600 q 911 651 910 645 q 913 664 911 657 l 945 664 q 939 548 939 593 l 940 494 q 949 325 940 444 l 917 325 l 915 341 q 903 415 910 388 q 874 462 895 443 q 811 481 852 481 l 710 481 l 710 147 q 719 72 710 95 q 749 40 727 48 q 822 32 772 32 l 924 32 q 1021 54 991 32 q 1062 123 1052 77 q 1082 278 1073 170 l 1114 278 q 1109 178 1109 241 m 581 836 q 578 880 581 862 l 355 509 l 581 509 l 581 836 z "},"B":{"ha":865,"x_min":58,"x_max":803,"o":"m 519 519 q 738 432 673 499 q 803 269 803 364 q 763 130 803 191 q 647 34 722 68 q 469 0 572 0 l 406 1 q 231 4 316 4 q 58 0 117 4 l 58 28 q 131 39 109 30 q 162 71 154 47 q 171 147 171 95 l 171 836 q 162 912 171 888 q 131 945 154 936 q 58 956 109 954 l 58 983 q 228 979 116 979 q 378 981 252 979 l 437 982 q 598 955 532 982 q 697 878 664 927 q 730 764 730 829 q 680 620 730 684 q 519 522 629 556 l 519 519 m 403 956 q 338 946 359 956 q 308 911 316 936 q 300 836 300 886 l 300 522 l 393 522 q 552 584 507 522 q 597 749 597 646 q 551 904 597 853 q 403 956 505 956 m 404 32 q 664 275 664 32 q 605 441 664 385 q 416 498 545 498 l 300 498 l 300 147 q 308 73 300 97 q 338 41 316 50 q 404 32 359 32 z "},"C":{"ha":956,"x_min":74,"x_max":865,"o":"m 515 1003 q 657 979 598 1003 q 771 913 715 956 q 798 901 786 901 q 833 983 827 901 l 865 983 q 860 664 860 893 l 828 664 q 809 761 818 726 q 789 820 801 795 q 758 869 778 844 q 652 951 716 924 q 513 978 587 978 q 355 918 422 978 q 250 748 287 859 q 212 489 212 637 q 253 229 212 338 q 365 64 294 121 q 526 8 436 8 q 661 35 595 8 q 764 114 727 61 q 804 196 792 152 q 828 334 817 241 l 860 334 q 865 0 860 94 l 833 0 q 822 63 830 43 q 800 82 814 82 q 771 71 789 82 q 695 23 730 41 q 615 -8 660 4 q 514 -20 570 -20 q 282 40 382 -20 q 129 213 183 100 q 74 484 74 327 q 130 755 74 637 q 287 938 186 873 q 515 1003 387 1003 z "},"Ć":{"ha":956,"x_min":74,"x_max":865,"o":"m 74 0 m 515 1003 q 657 979 598 1003 q 771 913 715 956 q 798 901 786 901 q 833 983 827 901 l 865 983 q 860 664 860 893 l 828 664 q 809 761 818 726 q 789 820 801 795 q 758 869 778 844 q 652 951 716 924 q 513 978 587 978 q 355 918 422 978 q 250 748 287 859 q 212 489 212 637 q 253 229 212 338 q 365 64 294 121 q 526 8 436 8 q 661 35 595 8 q 764 114 727 61 q 804 196 792 152 q 828 334 817 241 l 860 334 q 865 0 860 94 l 833 0 q 822 63 830 43 q 800 82 814 82 q 771 71 789 82 q 695 23 730 41 q 615 -8 660 4 q 514 -20 570 -20 q 282 40 382 -20 q 129 213 183 100 q 74 484 74 327 q 130 755 74 637 q 287 938 186 873 q 515 1003 387 1003 m 654 1286 q 696 1299 675 1299 q 739 1276 723 1299 q 746 1251 746 1263 q 709 1196 746 1220 q 610 1152 679 1177 q 430 1072 502 1108 l 420 1090 q 568 1215 482 1137 q 654 1286 626 1268 z "},"Č":{"ha":956,"x_min":74,"x_max":865,"o":"m 74 0 m 515 1003 q 657 979 598 1003 q 771 913 715 956 q 798 901 786 901 q 833 983 827 901 l 865 983 q 860 664 860 893 l 828 664 q 809 761 818 726 q 789 820 801 795 q 758 869 778 844 q 652 951 716 924 q 513 978 587 978 q 355 918 422 978 q 250 748 287 859 q 212 489 212 637 q 253 229 212 338 q 365 64 294 121 q 526 8 436 8 q 661 35 595 8 q 764 114 727 61 q 804 196 792 152 q 828 334 817 241 l 860 334 q 865 0 860 94 l 833 0 q 822 63 830 43 q 800 82 814 82 q 771 71 789 82 q 695 23 730 41 q 615 -8 660 4 q 514 -20 570 -20 q 282 40 382 -20 q 129 213 183 100 q 74 484 74 327 q 130 755 74 637 q 287 938 186 873 q 515 1003 387 1003 m 774 1267 q 615 1186 684 1236 q 514 1083 547 1137 l 489 1083 q 387 1186 456 1137 q 229 1267 318 1236 l 236 1286 q 400 1242 319 1269 q 529 1189 481 1215 q 634 1242 569 1215 q 766 1286 700 1269 l 774 1267 z "},"Ç":{"ha":956,"x_min":74,"x_max":865,"o":"m 860 334 q 865 0 860 94 l 833 0 q 822 63 830 43 q 800 82 814 82 q 771 71 789 82 q 697 24 731 43 q 622 -6 664 5 q 526 -20 579 -18 l 498 -100 q 581 -90 540 -90 q 643 -107 620 -90 q 665 -155 665 -125 q 641 -216 665 -192 q 581 -250 617 -239 q 509 -261 545 -261 q 393 -245 437 -261 l 399 -221 q 452 -225 427 -225 q 539 -211 502 -225 q 576 -163 576 -196 q 518 -123 576 -123 q 450 -134 479 -123 l 488 -19 q 270 48 363 -13 q 125 220 176 109 q 74 484 74 332 q 130 755 74 637 q 287 938 186 873 q 515 1003 387 1003 q 657 979 598 1003 q 771 913 715 956 q 798 901 786 901 q 833 983 827 901 l 865 983 q 860 664 860 893 l 828 664 q 809 761 818 726 q 789 820 801 795 q 758 869 778 844 q 652 951 716 924 q 513 978 587 978 q 355 918 422 978 q 250 748 287 859 q 212 489 212 637 q 253 229 212 338 q 365 64 294 121 q 526 8 436 8 q 661 35 595 8 q 764 114 727 61 q 804 196 792 152 q 828 334 817 241 l 860 334 z "},"Ĉ":{"ha":956,"x_min":74,"x_max":865,"o":"m 74 0 m 515 1003 q 657 979 598 1003 q 771 913 715 956 q 798 901 786 901 q 833 983 827 901 l 865 983 q 860 664 860 893 l 828 664 q 809 761 818 726 q 789 820 801 795 q 758 869 778 844 q 652 951 716 924 q 513 978 587 978 q 355 918 422 978 q 250 748 287 859 q 212 489 212 637 q 253 229 212 338 q 365 64 294 121 q 526 8 436 8 q 661 35 595 8 q 764 114 727 61 q 804 196 792 152 q 828 334 817 241 l 860 334 q 865 0 860 94 l 833 0 q 822 63 830 43 q 800 82 814 82 q 771 71 789 82 q 695 23 730 41 q 615 -8 660 4 q 514 -20 570 -20 q 282 40 382 -20 q 129 213 183 100 q 74 484 74 327 q 130 755 74 637 q 287 938 186 873 q 515 1003 387 1003 m 518 1272 q 620 1169 551 1218 q 778 1089 688 1120 l 770 1069 q 606 1114 686 1087 q 477 1166 525 1141 q 373 1114 438 1141 q 240 1069 307 1087 l 233 1089 q 391 1169 322 1120 q 493 1272 460 1218 l 518 1272 z "},"Ċ":{"ha":956,"x_min":74,"x_max":865,"o":"m 74 0 m 515 1003 q 657 979 598 1003 q 771 913 715 956 q 798 901 786 901 q 833 983 827 901 l 865 983 q 860 664 860 893 l 828 664 q 809 761 818 726 q 789 820 801 795 q 758 869 778 844 q 652 951 716 924 q 513 978 587 978 q 355 918 422 978 q 250 748 287 859 q 212 489 212 637 q 253 229 212 338 q 365 64 294 121 q 526 8 436 8 q 661 35 595 8 q 764 114 727 61 q 804 196 792 152 q 828 334 817 241 l 860 334 q 865 0 860 94 l 833 0 q 822 63 830 43 q 800 82 814 82 q 771 71 789 82 q 695 23 730 41 q 615 -8 660 4 q 514 -20 570 -20 q 282 40 382 -20 q 129 213 183 100 q 74 484 74 327 q 130 755 74 637 q 287 938 186 873 q 515 1003 387 1003 m 524 1250 q 568 1238 547 1250 q 600 1205 588 1226 q 612 1161 612 1185 q 600 1117 612 1137 q 568 1084 588 1096 q 524 1072 547 1072 q 479 1084 500 1072 q 447 1117 458 1096 q 435 1161 435 1137 q 447 1205 435 1185 q 479 1238 458 1226 q 524 1250 500 1250 z "},"D":{"ha":1004,"x_min":58,"x_max":928,"o":"m 437 983 q 805 861 683 983 q 928 503 928 738 q 868 238 928 351 q 696 62 809 124 q 425 0 583 0 q 344 2 393 0 q 231 4 228 4 q 58 0 117 4 l 58 28 q 131 39 109 30 q 162 71 154 47 q 171 147 171 95 l 171 836 q 162 912 171 888 q 131 945 154 936 q 58 956 109 954 l 58 983 q 194 979 133 979 l 228 979 l 285 981 q 437 983 393 983 m 403 958 q 338 948 359 958 q 308 913 316 939 q 300 839 300 888 l 300 144 q 308 70 300 94 q 338 35 316 45 q 404 25 360 25 q 636 79 552 25 q 754 235 720 132 q 789 497 789 338 q 751 758 789 657 q 630 908 714 859 q 403 958 545 958 z "},"Ð":{"ha":1006,"x_min":60,"x_max":929,"o":"m 439 983 q 807 861 684 983 q 929 503 929 738 q 870 238 929 351 q 697 62 810 124 q 427 0 584 0 q 345 2 394 0 q 232 4 229 4 q 60 0 118 4 l 60 28 q 133 39 110 30 q 164 71 155 47 q 172 147 172 95 l 172 481 l 60 481 l 60 509 l 172 509 l 172 836 q 164 912 172 888 q 133 945 155 936 q 60 956 110 954 l 60 983 q 195 979 134 979 l 229 979 l 286 981 q 439 983 395 983 m 406 25 q 637 79 553 25 q 756 235 722 132 q 790 497 790 338 q 753 758 790 657 q 631 908 715 859 q 404 958 547 958 q 339 948 361 958 q 309 913 317 939 q 301 839 301 888 l 301 509 l 494 509 l 494 481 l 301 481 l 301 144 q 309 70 301 94 q 339 35 317 45 q 406 25 361 25 z "},"Ď":{"ha":1004,"x_min":58,"x_max":928,"o":"m 58 0 m 437 983 q 805 861 683 983 q 928 503 928 738 q 868 238 928 351 q 696 62 809 124 q 425 0 583 0 q 344 2 393 0 q 231 4 228 4 q 58 0 117 4 l 58 28 q 131 39 109 30 q 162 71 154 47 q 171 147 171 95 l 171 836 q 162 912 171 888 q 131 945 154 936 q 58 956 109 954 l 58 983 q 194 979 133 979 l 228 979 l 285 981 q 437 983 393 983 m 403 958 q 338 948 359 958 q 308 913 316 939 q 300 839 300 888 l 300 144 q 308 70 300 94 q 338 35 316 45 q 404 25 360 25 q 636 79 552 25 q 754 235 720 132 q 789 497 789 338 q 751 758 789 657 q 630 908 714 859 q 403 958 545 958 m 706 1267 q 548 1186 616 1236 q 446 1083 479 1137 l 421 1083 q 319 1186 388 1137 q 161 1267 250 1236 l 168 1286 q 332 1242 251 1269 q 461 1189 413 1215 q 567 1242 501 1215 q 699 1286 632 1269 l 706 1267 z "},"Đ":{"ha":1006,"x_min":60,"x_max":929,"o":"m 439 983 q 807 861 684 983 q 929 503 929 738 q 870 238 929 351 q 697 62 810 124 q 427 0 584 0 q 345 2 394 0 q 232 4 229 4 q 60 0 118 4 l 60 28 q 133 39 110 30 q 164 71 155 47 q 172 147 172 95 l 172 481 l 60 481 l 60 509 l 172 509 l 172 836 q 164 912 172 888 q 133 945 155 936 q 60 956 110 954 l 60 983 q 195 979 134 979 l 229 979 l 286 981 q 439 983 395 983 m 406 25 q 637 79 553 25 q 756 235 722 132 q 790 497 790 338 q 753 758 790 657 q 631 908 715 859 q 404 958 547 958 q 339 948 361 958 q 309 913 317 939 q 301 839 301 888 l 301 509 l 494 509 l 494 481 l 301 481 l 301 144 q 309 70 301 94 q 339 35 317 45 q 406 25 361 25 z "},"E":{"ha":846,"x_min":58,"x_max":779,"o":"m 770 178 q 779 0 770 99 q 461 4 685 4 q 58 0 195 4 l 58 28 q 131 39 109 30 q 162 71 154 47 q 171 147 171 95 l 171 836 q 162 912 171 888 q 131 945 154 936 q 58 956 109 954 l 58 983 q 461 979 195 979 q 751 983 665 979 q 742 819 742 892 q 746 733 742 765 l 714 733 q 689 867 704 823 q 637 931 673 911 q 528 951 601 951 l 412 951 q 339 943 362 951 q 308 912 317 935 q 300 836 300 888 l 300 509 l 392 509 q 467 532 441 509 q 502 586 493 555 q 517 665 511 617 q 521 692 518 677 l 553 692 q 548 561 548 623 l 549 494 q 557 297 549 424 l 525 297 l 523 317 q 507 404 517 372 q 471 459 498 437 q 392 481 444 481 l 300 481 l 300 147 q 308 72 300 95 q 339 40 317 48 q 412 32 362 32 l 514 32 q 646 55 601 32 q 711 129 691 78 q 742 278 731 180 l 774 278 q 770 178 770 241 z "},"É":{"ha":846,"x_min":58,"x_max":779,"o":"m 58 0 m 770 178 q 779 0 770 99 q 461 4 685 4 q 58 0 195 4 l 58 28 q 131 39 109 30 q 162 71 154 47 q 171 147 171 95 l 171 836 q 162 912 171 888 q 131 945 154 936 q 58 956 109 954 l 58 983 q 461 979 195 979 q 751 983 665 979 q 742 819 742 892 q 746 733 742 765 l 714 733 q 689 867 704 823 q 637 931 673 911 q 528 951 601 951 l 412 951 q 339 943 362 951 q 308 912 317 935 q 300 836 300 888 l 300 509 l 392 509 q 467 532 441 509 q 502 586 493 555 q 517 665 511 617 q 521 692 518 677 l 553 692 q 548 561 548 623 l 549 494 q 557 297 549 424 l 525 297 l 523 317 q 507 404 517 372 q 471 459 498 437 q 392 481 444 481 l 300 481 l 300 147 q 308 72 300 95 q 339 40 317 48 q 412 32 362 32 l 514 32 q 646 55 601 32 q 711 129 691 78 q 742 278 731 180 l 774 278 q 770 178 770 241 m 574 1286 q 616 1299 595 1299 q 659 1276 643 1299 q 666 1251 666 1263 q 629 1196 666 1220 q 530 1152 599 1177 q 350 1072 422 1108 l 340 1090 q 488 1215 402 1137 q 574 1286 546 1268 z "},"Ĕ":{"ha":846,"x_min":58,"x_max":779,"o":"m 58 0 m 770 178 q 779 0 770 99 q 461 4 685 4 q 58 0 195 4 l 58 28 q 131 39 109 30 q 162 71 154 47 q 171 147 171 95 l 171 836 q 162 912 171 888 q 131 945 154 936 q 58 956 109 954 l 58 983 q 461 979 195 979 q 751 983 665 979 q 742 819 742 892 q 746 733 742 765 l 714 733 q 689 867 704 823 q 637 931 673 911 q 528 951 601 951 l 412 951 q 339 943 362 951 q 308 912 317 935 q 300 836 300 888 l 300 509 l 392 509 q 467 532 441 509 q 502 586 493 555 q 517 665 511 617 q 521 692 518 677 l 553 692 q 548 561 548 623 l 549 494 q 557 297 549 424 l 525 297 l 523 317 q 507 404 517 372 q 471 459 498 437 q 392 481 444 481 l 300 481 l 300 147 q 308 72 300 95 q 339 40 317 48 q 412 32 362 32 l 514 32 q 646 55 601 32 q 711 129 691 78 q 742 278 731 180 l 774 278 q 770 178 770 241 m 701 1247 q 591 1134 661 1181 q 425 1086 522 1086 q 259 1134 329 1086 q 149 1247 189 1181 l 167 1261 q 269 1198 205 1224 q 425 1173 334 1173 q 581 1199 516 1173 q 685 1263 646 1225 l 701 1247 z "},"Ě":{"ha":846,"x_min":58,"x_max":779,"o":"m 58 0 m 770 178 q 779 0 770 99 q 461 4 685 4 q 58 0 195 4 l 58 28 q 131 39 109 30 q 162 71 154 47 q 171 147 171 95 l 171 836 q 162 912 171 888 q 131 945 154 936 q 58 956 109 954 l 58 983 q 461 979 195 979 q 751 983 665 979 q 742 819 742 892 q 746 733 742 765 l 714 733 q 689 867 704 823 q 637 931 673 911 q 528 951 601 951 l 412 951 q 339 943 362 951 q 308 912 317 935 q 300 836 300 888 l 300 509 l 392 509 q 467 532 441 509 q 502 586 493 555 q 517 665 511 617 q 521 692 518 677 l 553 692 q 548 561 548 623 l 549 494 q 557 297 549 424 l 525 297 l 523 317 q 507 404 517 372 q 471 459 498 437 q 392 481 444 481 l 300 481 l 300 147 q 308 72 300 95 q 339 40 317 48 q 412 32 362 32 l 514 32 q 646 55 601 32 q 711 129 691 78 q 742 278 731 180 l 774 278 q 770 178 770 241 m 694 1267 q 535 1186 604 1236 q 434 1083 467 1137 l 409 1083 q 307 1186 376 1137 q 149 1267 238 1236 l 156 1286 q 320 1242 239 1269 q 449 1189 401 1215 q 554 1242 489 1215 q 686 1286 620 1269 l 694 1267 z "},"Ê":{"ha":846,"x_min":58,"x_max":779,"o":"m 58 0 m 770 178 q 779 0 770 99 q 461 4 685 4 q 58 0 195 4 l 58 28 q 131 39 109 30 q 162 71 154 47 q 171 147 171 95 l 171 836 q 162 912 171 888 q 131 945 154 936 q 58 956 109 954 l 58 983 q 461 979 195 979 q 751 983 665 979 q 742 819 742 892 q 746 733 742 765 l 714 733 q 689 867 704 823 q 637 931 673 911 q 528 951 601 951 l 412 951 q 339 943 362 951 q 308 912 317 935 q 300 836 300 888 l 300 509 l 392 509 q 467 532 441 509 q 502 586 493 555 q 517 665 511 617 q 521 692 518 677 l 553 692 q 548 561 548 623 l 549 494 q 557 297 549 424 l 525 297 l 523 317 q 507 404 517 372 q 471 459 498 437 q 392 481 444 481 l 300 481 l 300 147 q 308 72 300 95 q 339 40 317 48 q 412 32 362 32 l 514 32 q 646 55 601 32 q 711 129 691 78 q 742 278 731 180 l 774 278 q 770 178 770 241 m 438 1272 q 539 1169 471 1218 q 698 1089 608 1120 l 690 1069 q 526 1114 606 1087 q 397 1166 445 1141 q 293 1114 358 1141 q 160 1069 227 1087 l 153 1089 q 311 1169 242 1120 q 413 1272 380 1218 l 438 1272 z "},"Ë":{"ha":846,"x_min":58,"x_max":779,"o":"m 58 0 m 770 178 q 779 0 770 99 q 461 4 685 4 q 58 0 195 4 l 58 28 q 131 39 109 30 q 162 71 154 47 q 171 147 171 95 l 171 836 q 162 912 171 888 q 131 945 154 936 q 58 956 109 954 l 58 983 q 461 979 195 979 q 751 983 665 979 q 742 819 742 892 q 746 733 742 765 l 714 733 q 689 867 704 823 q 637 931 673 911 q 528 951 601 951 l 412 951 q 339 943 362 951 q 308 912 317 935 q 300 836 300 888 l 300 509 l 392 509 q 467 532 441 509 q 502 586 493 555 q 517 665 511 617 q 521 692 518 677 l 553 692 q 548 561 548 623 l 549 494 q 557 297 549 424 l 525 297 l 523 317 q 507 404 517 372 q 471 459 498 437 q 392 481 444 481 l 300 481 l 300 147 q 308 72 300 95 q 339 40 317 48 q 412 32 362 32 l 514 32 q 646 55 601 32 q 711 129 691 78 q 742 278 731 180 l 774 278 q 770 178 770 241 m 278 1234 q 318 1222 299 1234 q 348 1193 336 1211 q 359 1153 359 1174 q 348 1113 359 1131 q 318 1083 336 1094 q 278 1072 299 1072 q 221 1096 245 1072 q 197 1153 197 1120 q 208 1193 197 1174 q 238 1222 219 1211 q 278 1234 256 1234 m 572 1234 q 612 1222 593 1234 q 642 1193 631 1211 q 653 1153 653 1174 q 642 1113 653 1131 q 612 1083 631 1094 q 572 1072 594 1072 q 515 1096 539 1072 q 492 1153 492 1120 q 503 1193 492 1174 q 532 1222 513 1211 q 572 1234 551 1234 z "},"Ė":{"ha":846,"x_min":58,"x_max":779,"o":"m 58 0 m 770 178 q 779 0 770 99 q 461 4 685 4 q 58 0 195 4 l 58 28 q 131 39 109 30 q 162 71 154 47 q 171 147 171 95 l 171 836 q 162 912 171 888 q 131 945 154 936 q 58 956 109 954 l 58 983 q 461 979 195 979 q 751 983 665 979 q 742 819 742 892 q 746 733 742 765 l 714 733 q 689 867 704 823 q 637 931 673 911 q 528 951 601 951 l 412 951 q 339 943 362 951 q 308 912 317 935 q 300 836 300 888 l 300 509 l 392 509 q 467 532 441 509 q 502 586 493 555 q 517 665 511 617 q 521 692 518 677 l 553 692 q 548 561 548 623 l 549 494 q 557 297 549 424 l 525 297 l 523 317 q 507 404 517 372 q 471 459 498 437 q 392 481 444 481 l 300 481 l 300 147 q 308 72 300 95 q 339 40 317 48 q 412 32 362 32 l 514 32 q 646 55 601 32 q 711 129 691 78 q 742 278 731 180 l 774 278 q 770 178 770 241 m 444 1250 q 488 1238 467 1250 q 520 1205 508 1226 q 532 1161 532 1185 q 520 1117 532 1137 q 488 1084 508 1096 q 444 1072 467 1072 q 399 1084 420 1072 q 367 1117 378 1096 q 355 1161 355 1137 q 367 1205 355 1185 q 399 1238 378 1226 q 444 1250 420 1250 z "},"È":{"ha":846,"x_min":58,"x_max":779,"o":"m 58 0 m 770 178 q 779 0 770 99 q 461 4 685 4 q 58 0 195 4 l 58 28 q 131 39 109 30 q 162 71 154 47 q 171 147 171 95 l 171 836 q 162 912 171 888 q 131 945 154 936 q 58 956 109 954 l 58 983 q 461 979 195 979 q 751 983 665 979 q 742 819 742 892 q 746 733 742 765 l 714 733 q 689 867 704 823 q 637 931 673 911 q 528 951 601 951 l 412 951 q 339 943 362 951 q 308 912 317 935 q 300 836 300 888 l 300 509 l 392 509 q 467 532 441 509 q 502 586 493 555 q 517 665 511 617 q 521 692 518 677 l 553 692 q 548 561 548 623 l 549 494 q 557 297 549 424 l 525 297 l 523 317 q 507 404 517 372 q 471 459 498 437 q 392 481 444 481 l 300 481 l 300 147 q 308 72 300 95 q 339 40 317 48 q 412 32 362 32 l 514 32 q 646 55 601 32 q 711 129 691 78 q 742 278 731 180 l 774 278 q 770 178 770 241 m 285 1286 q 370 1215 313 1268 q 518 1090 456 1137 l 509 1072 q 328 1152 437 1108 q 229 1196 260 1177 q 193 1251 193 1220 q 200 1276 193 1263 q 243 1299 216 1299 q 285 1286 264 1299 z "},"Ē":{"ha":846,"x_min":58,"x_max":779,"o":"m 58 0 m 770 178 q 779 0 770 99 q 461 4 685 4 q 58 0 195 4 l 58 28 q 131 39 109 30 q 162 71 154 47 q 171 147 171 95 l 171 836 q 162 912 171 888 q 131 945 154 936 q 58 956 109 954 l 58 983 q 461 979 195 979 q 751 983 665 979 q 742 819 742 892 q 746 733 742 765 l 714 733 q 689 867 704 823 q 637 931 673 911 q 528 951 601 951 l 412 951 q 339 943 362 951 q 308 912 317 935 q 300 836 300 888 l 300 509 l 392 509 q 467 532 441 509 q 502 586 493 555 q 517 665 511 617 q 521 692 518 677 l 553 692 q 548 561 548 623 l 549 494 q 557 297 549 424 l 525 297 l 523 317 q 507 404 517 372 q 471 459 498 437 q 392 481 444 481 l 300 481 l 300 147 q 308 72 300 95 q 339 40 317 48 q 412 32 362 32 l 514 32 q 646 55 601 32 q 711 129 691 78 q 742 278 731 180 l 774 278 q 770 178 770 241 m 180 1137 l 180 1173 l 669 1173 l 669 1137 l 180 1137 z "},"Ę":{"ha":846,"x_min":58,"x_max":801,"o":"m 801 -167 q 644 -261 739 -261 q 565 -236 595 -261 q 534 -171 534 -212 q 583 -73 534 -117 q 720 2 631 -28 q 461 4 635 4 q 58 0 195 4 l 58 28 q 131 39 109 30 q 162 71 154 47 q 171 147 171 95 l 171 836 q 162 912 171 888 q 131 945 154 936 q 58 956 109 954 l 58 983 q 461 979 195 979 q 751 983 665 979 q 742 819 742 892 q 746 733 742 765 l 714 733 q 689 867 704 823 q 637 931 673 911 q 528 951 601 951 l 412 951 q 339 943 362 951 q 308 912 317 935 q 300 836 300 888 l 300 509 l 392 509 q 467 532 441 509 q 502 586 493 555 q 517 665 511 617 q 521 692 518 677 l 553 692 q 548 561 548 623 l 549 494 q 557 297 549 424 l 525 297 l 523 317 q 507 404 517 372 q 471 459 498 437 q 392 481 444 481 l 300 481 l 300 147 q 308 72 300 95 q 339 40 317 48 q 412 32 362 32 l 514 32 q 646 55 601 32 q 711 129 691 78 q 742 278 731 180 l 774 278 q 770 178 770 241 q 779 4 770 104 q 779 0 779 3 l 767 1 q 667 -57 698 -20 q 636 -134 636 -94 q 652 -178 636 -161 q 696 -195 668 -195 q 744 -181 721 -195 q 781 -149 766 -168 l 801 -167 z "},"F":{"ha":790,"x_min":58,"x_max":751,"o":"m 751 983 q 742 806 742 884 q 746 692 742 736 l 714 692 q 686 851 703 800 q 628 927 669 903 q 500 951 586 951 l 412 951 q 339 943 362 951 q 308 912 317 935 q 300 836 300 888 l 300 494 l 401 494 q 476 517 450 494 q 512 572 503 541 q 527 650 521 603 q 530 677 528 663 l 562 677 q 557 547 557 610 l 558 481 q 567 283 558 408 l 534 283 l 532 302 q 517 390 526 357 q 480 445 507 422 q 401 467 454 467 l 300 467 l 300 147 q 311 71 300 95 q 350 39 321 47 q 440 28 378 30 l 440 0 q 236 4 368 4 q 58 0 117 4 l 58 28 q 131 39 109 30 q 162 71 154 47 q 171 147 171 95 l 171 836 q 162 912 171 888 q 131 945 154 936 q 58 956 109 954 l 58 983 q 461 979 195 979 q 751 983 665 979 z "},"G":{"ha":977,"x_min":75,"x_max":929,"o":"m 522 1003 q 622 991 578 1003 q 698 961 666 979 q 772 913 730 943 q 800 899 790 899 q 835 983 827 899 l 867 983 q 861 664 861 893 l 829 664 q 803 786 817 739 q 760 869 789 834 q 654 949 719 920 q 519 978 590 978 q 359 918 428 978 q 252 748 290 859 q 214 490 214 638 q 249 217 214 323 q 358 59 285 111 q 545 8 431 8 q 689 52 628 8 q 722 84 714 68 q 729 127 729 100 l 729 261 q 718 346 729 319 q 679 382 707 372 q 589 395 650 392 l 589 422 q 785 418 657 418 q 929 422 882 418 l 929 395 q 883 384 897 392 q 864 352 869 375 q 859 275 859 329 l 859 0 l 831 0 q 819 54 829 28 q 793 79 809 79 q 776 75 784 79 q 747 56 768 71 q 647 -1 699 18 q 530 -20 595 -20 q 286 39 388 -20 q 129 210 183 98 q 75 475 75 321 q 133 754 75 634 q 292 938 190 873 q 522 1003 393 1003 z "},"Ǵ":{"ha":977,"x_min":75,"x_max":929,"o":"m 75 0 m 522 1003 q 622 991 578 1003 q 698 961 666 979 q 772 913 730 943 q 800 899 790 899 q 835 983 827 899 l 867 983 q 861 664 861 893 l 829 664 q 803 786 817 739 q 760 869 789 834 q 654 949 719 920 q 519 978 590 978 q 359 918 428 978 q 252 748 290 859 q 214 490 214 638 q 249 217 214 323 q 358 59 285 111 q 545 8 431 8 q 689 52 628 8 q 722 84 714 68 q 729 127 729 100 l 729 261 q 718 346 729 319 q 679 382 707 372 q 589 395 650 392 l 589 422 q 785 418 657 418 q 929 422 882 418 l 929 395 q 883 384 897 392 q 864 352 869 375 q 859 275 859 329 l 859 0 l 831 0 q 819 54 829 28 q 793 79 809 79 q 776 75 784 79 q 747 56 768 71 q 647 -1 699 18 q 530 -20 595 -20 q 286 39 388 -20 q 129 210 183 98 q 75 475 75 321 q 133 754 75 634 q 292 938 190 873 q 522 1003 393 1003 m 650 1286 q 692 1299 671 1299 q 734 1276 719 1299 q 742 1251 742 1263 q 705 1196 742 1220 q 606 1152 675 1177 q 426 1072 498 1108 l 416 1090 q 564 1215 478 1137 q 650 1286 622 1268 z "},"Ğ":{"ha":977,"x_min":75,"x_max":929,"o":"m 75 0 m 522 1003 q 622 991 578 1003 q 698 961 666 979 q 772 913 730 943 q 800 899 790 899 q 835 983 827 899 l 867 983 q 861 664 861 893 l 829 664 q 803 786 817 739 q 760 869 789 834 q 654 949 719 920 q 519 978 590 978 q 359 918 428 978 q 252 748 290 859 q 214 490 214 638 q 249 217 214 323 q 358 59 285 111 q 545 8 431 8 q 689 52 628 8 q 722 84 714 68 q 729 127 729 100 l 729 261 q 718 346 729 319 q 679 382 707 372 q 589 395 650 392 l 589 422 q 785 418 657 418 q 929 422 882 418 l 929 395 q 883 384 897 392 q 864 352 869 375 q 859 275 859 329 l 859 0 l 831 0 q 819 54 829 28 q 793 79 809 79 q 776 75 784 79 q 747 56 768 71 q 647 -1 699 18 q 530 -20 595 -20 q 286 39 388 -20 q 129 210 183 98 q 75 475 75 321 q 133 754 75 634 q 292 938 190 873 q 522 1003 393 1003 m 777 1247 q 667 1134 737 1181 q 501 1086 597 1086 q 335 1134 405 1086 q 224 1247 265 1181 l 243 1261 q 345 1198 281 1224 q 501 1173 410 1173 q 657 1199 592 1173 q 761 1263 722 1225 l 777 1247 z "},"Ĝ":{"ha":977,"x_min":75,"x_max":929,"o":"m 75 0 m 522 1003 q 622 991 578 1003 q 698 961 666 979 q 772 913 730 943 q 800 899 790 899 q 835 983 827 899 l 867 983 q 861 664 861 893 l 829 664 q 803 786 817 739 q 760 869 789 834 q 654 949 719 920 q 519 978 590 978 q 359 918 428 978 q 252 748 290 859 q 214 490 214 638 q 249 217 214 323 q 358 59 285 111 q 545 8 431 8 q 689 52 628 8 q 722 84 714 68 q 729 127 729 100 l 729 261 q 718 346 729 319 q 679 382 707 372 q 589 395 650 392 l 589 422 q 785 418 657 418 q 929 422 882 418 l 929 395 q 883 384 897 392 q 864 352 869 375 q 859 275 859 329 l 859 0 l 831 0 q 819 54 829 28 q 793 79 809 79 q 776 75 784 79 q 747 56 768 71 q 647 -1 699 18 q 530 -20 595 -20 q 286 39 388 -20 q 129 210 183 98 q 75 475 75 321 q 133 754 75 634 q 292 938 190 873 q 522 1003 393 1003 m 514 1272 q 615 1169 547 1218 q 774 1089 684 1120 l 766 1069 q 602 1114 682 1087 q 473 1166 521 1141 q 369 1114 434 1141 q 236 1069 303 1087 l 229 1089 q 387 1169 318 1120 q 489 1272 456 1218 l 514 1272 z "},"Ģ":{"ha":977,"x_min":75,"x_max":929,"o":"m 75 0 m 522 1003 q 622 991 578 1003 q 698 961 666 979 q 772 913 730 943 q 800 899 790 899 q 835 983 827 899 l 867 983 q 861 664 861 893 l 829 664 q 803 786 817 739 q 760 869 789 834 q 654 949 719 920 q 519 978 590 978 q 359 918 428 978 q 252 748 290 859 q 214 490 214 638 q 249 217 214 323 q 358 59 285 111 q 545 8 431 8 q 689 52 628 8 q 722 84 714 68 q 729 127 729 100 l 729 261 q 718 346 729 319 q 679 382 707 372 q 589 395 650 392 l 589 422 q 785 418 657 418 q 929 422 882 418 l 929 395 q 883 384 897 392 q 864 352 869 375 q 859 275 859 329 l 859 0 l 831 0 q 819 54 829 28 q 793 79 809 79 q 776 75 784 79 q 747 56 768 71 q 647 -1 699 18 q 530 -20 595 -20 q 286 39 388 -20 q 129 210 183 98 q 75 475 75 321 q 133 754 75 634 q 292 938 190 873 q 522 1003 393 1003 m 515 -96 q 581 -124 555 -96 q 606 -193 606 -152 q 581 -278 606 -245 q 492 -335 556 -311 l 482 -310 q 543 -276 518 -299 q 568 -222 568 -253 q 510 -244 543 -244 q 458 -224 478 -244 q 437 -170 437 -205 q 460 -117 437 -138 q 515 -96 483 -96 z "},"Ġ":{"ha":977,"x_min":75,"x_max":929,"o":"m 75 0 m 522 1003 q 622 991 578 1003 q 698 961 666 979 q 772 913 730 943 q 800 899 790 899 q 835 983 827 899 l 867 983 q 861 664 861 893 l 829 664 q 803 786 817 739 q 760 869 789 834 q 654 949 719 920 q 519 978 590 978 q 359 918 428 978 q 252 748 290 859 q 214 490 214 638 q 249 217 214 323 q 358 59 285 111 q 545 8 431 8 q 689 52 628 8 q 722 84 714 68 q 729 127 729 100 l 729 261 q 718 346 729 319 q 679 382 707 372 q 589 395 650 392 l 589 422 q 785 418 657 418 q 929 422 882 418 l 929 395 q 883 384 897 392 q 864 352 869 375 q 859 275 859 329 l 859 0 l 831 0 q 819 54 829 28 q 793 79 809 79 q 776 75 784 79 q 747 56 768 71 q 647 -1 699 18 q 530 -20 595 -20 q 286 39 388 -20 q 129 210 183 98 q 75 475 75 321 q 133 754 75 634 q 292 938 190 873 q 522 1003 393 1003 m 519 1250 q 564 1238 543 1250 q 596 1205 584 1226 q 608 1161 608 1185 q 596 1117 608 1137 q 564 1084 584 1096 q 519 1072 543 1072 q 475 1084 496 1072 q 443 1117 454 1096 q 431 1161 431 1137 q 443 1205 431 1185 q 475 1238 454 1226 q 519 1250 496 1250 z "},"H":{"ha":1051,"x_min":58,"x_max":993,"o":"m 993 956 q 920 945 943 954 q 889 912 897 936 q 880 836 880 888 l 880 147 q 889 71 880 95 q 920 39 897 47 q 993 28 943 30 l 993 0 q 815 4 935 4 q 639 0 704 4 l 639 28 q 712 39 689 30 q 743 71 734 47 q 751 147 751 95 l 751 481 l 300 481 l 300 147 q 308 71 300 95 q 339 39 317 47 q 412 28 362 30 l 412 0 q 236 4 349 4 q 58 0 117 4 l 58 28 q 131 39 109 30 q 162 71 154 47 q 171 147 171 95 l 171 836 q 162 912 171 888 q 131 945 154 936 q 58 956 109 954 l 58 983 q 236 979 116 979 q 412 983 349 979 l 412 956 q 339 945 362 954 q 308 912 317 936 q 300 836 300 888 l 300 509 l 751 509 l 751 836 q 743 912 751 888 q 712 945 734 936 q 639 956 689 954 l 639 983 q 815 979 704 979 q 993 983 935 979 l 993 956 z "},"Ħ":{"ha":1051,"x_min":58,"x_max":993,"o":"m 993 956 q 920 945 943 954 q 889 912 897 936 q 880 836 880 888 l 880 741 l 993 741 l 993 713 l 880 713 l 880 147 q 889 71 880 95 q 920 39 897 47 q 993 28 943 30 l 993 0 q 815 4 935 4 q 639 0 704 4 l 639 28 q 712 39 689 30 q 743 71 734 47 q 751 147 751 95 l 751 481 l 300 481 l 300 147 q 308 71 300 95 q 339 39 317 47 q 412 28 362 30 l 412 0 q 236 4 349 4 q 58 0 117 4 l 58 28 q 131 39 109 30 q 162 71 154 47 q 171 147 171 95 l 171 713 l 58 713 l 58 741 l 171 741 l 171 836 q 162 912 171 888 q 131 945 154 936 q 58 956 109 954 l 58 983 q 236 979 116 979 q 412 983 349 979 l 412 956 q 339 945 362 954 q 308 912 317 936 q 300 836 300 888 l 300 741 l 751 741 l 751 836 q 743 912 751 888 q 712 945 734 936 q 639 956 689 954 l 639 983 q 815 979 704 979 q 993 983 935 979 l 993 956 m 300 713 l 300 509 l 751 509 l 751 713 l 300 713 z "},"Ĥ":{"ha":1051,"x_min":58,"x_max":993,"o":"m 58 0 m 993 956 q 920 945 943 954 q 889 912 897 936 q 880 836 880 888 l 880 147 q 889 71 880 95 q 920 39 897 47 q 993 28 943 30 l 993 0 q 815 4 935 4 q 639 0 704 4 l 639 28 q 712 39 689 30 q 743 71 734 47 q 751 147 751 95 l 751 481 l 300 481 l 300 147 q 308 71 300 95 q 339 39 317 47 q 412 28 362 30 l 412 0 q 236 4 349 4 q 58 0 117 4 l 58 28 q 131 39 109 30 q 162 71 154 47 q 171 147 171 95 l 171 836 q 162 912 171 888 q 131 945 154 936 q 58 956 109 954 l 58 983 q 236 979 116 979 q 412 983 349 979 l 412 956 q 339 945 362 954 q 308 912 317 936 q 300 836 300 888 l 300 509 l 751 509 l 751 836 q 743 912 751 888 q 712 945 734 936 q 639 956 689 954 l 639 983 q 815 979 704 979 q 993 983 935 979 l 993 956 m 542 1272 q 643 1169 574 1218 q 802 1089 712 1120 l 794 1069 q 629 1114 710 1087 q 501 1166 549 1141 q 396 1114 462 1141 q 264 1069 331 1087 l 257 1089 q 415 1169 346 1120 q 517 1272 484 1218 l 542 1272 z "},"I":{"ha":471,"x_min":58,"x_max":412,"o":"m 412 956 q 339 945 362 954 q 308 912 317 936 q 300 836 300 888 l 300 147 q 308 71 300 95 q 339 39 317 47 q 412 28 362 30 l 412 0 q 236 4 349 4 q 58 0 117 4 l 58 28 q 131 39 109 30 q 162 71 154 47 q 171 147 171 95 l 171 836 q 162 912 171 888 q 131 945 154 936 q 58 956 109 954 l 58 983 q 236 979 116 979 q 412 983 349 979 l 412 956 z "},"Ĳ":{"ha":899,"x_min":58,"x_max":850,"o":"m 58 0 m 412 956 q 339 945 362 954 q 308 912 317 936 q 300 836 300 888 l 300 147 q 308 71 300 95 q 339 39 317 47 q 412 28 362 30 l 412 0 q 236 4 349 4 q 58 0 117 4 l 58 28 q 131 39 109 30 q 162 71 154 47 q 171 147 171 95 l 171 836 q 162 912 171 888 q 131 945 154 936 q 58 956 109 954 l 58 983 q 236 979 116 979 q 412 983 349 979 l 412 956 m 850 956 q 777 945 800 954 q 746 912 754 936 q 737 836 737 888 l 737 328 q 733 118 737 210 q 713 -35 728 27 q 659 -151 698 -100 q 558 -232 619 -202 q 420 -261 498 -261 q 304 -236 353 -261 q 237 -140 237 -201 q 258 -87 237 -108 q 311 -66 279 -66 q 366 -87 344 -66 q 387 -142 387 -107 q 372 -189 387 -171 q 329 -212 356 -207 q 367 -230 341 -224 q 418 -235 393 -235 q 522 -203 478 -235 q 585 -117 566 -172 q 604 -8 599 -73 q 608 201 608 56 l 608 836 q 600 912 608 888 q 569 945 591 936 q 496 956 546 954 l 496 983 q 673 979 553 979 q 850 983 785 979 l 850 956 z "},"Í":{"ha":471,"x_min":58,"x_max":477,"o":"m 58 0 m 412 956 q 339 945 362 954 q 308 912 317 936 q 300 836 300 888 l 300 147 q 308 71 300 95 q 339 39 317 47 q 412 28 362 30 l 412 0 q 236 4 349 4 q 58 0 117 4 l 58 28 q 131 39 109 30 q 162 71 154 47 q 171 147 171 95 l 171 836 q 162 912 171 888 q 131 945 154 936 q 58 956 109 954 l 58 983 q 236 979 116 979 q 412 983 349 979 l 412 956 m 385 1286 q 427 1299 406 1299 q 469 1276 454 1299 q 477 1251 477 1263 q 440 1196 477 1220 q 341 1152 410 1177 q 161 1072 233 1108 l 151 1090 q 299 1215 213 1137 q 385 1286 357 1268 z "},"Ĭ":{"ha":471,"x_min":-41,"x_max":512,"o":"m 0 0 m 412 956 q 339 945 362 954 q 308 912 317 936 q 300 836 300 888 l 300 147 q 308 71 300 95 q 339 39 317 47 q 412 28 362 30 l 412 0 q 236 4 349 4 q 58 0 117 4 l 58 28 q 131 39 109 30 q 162 71 154 47 q 171 147 171 95 l 171 836 q 162 912 171 888 q 131 945 154 936 q 58 956 109 954 l 58 983 q 236 979 116 979 q 412 983 349 979 l 412 956 m 512 1247 q 402 1134 472 1181 q 236 1086 332 1086 q 70 1134 140 1086 q -41 1247 0 1181 l -22 1261 q 80 1198 16 1224 q 236 1173 144 1173 q 392 1199 327 1173 q 496 1263 457 1225 l 512 1247 z "},"Î":{"ha":471,"x_min":-36,"x_max":509,"o":"m 0 0 m 412 956 q 339 945 362 954 q 308 912 317 936 q 300 836 300 888 l 300 147 q 308 71 300 95 q 339 39 317 47 q 412 28 362 30 l 412 0 q 236 4 349 4 q 58 0 117 4 l 58 28 q 131 39 109 30 q 162 71 154 47 q 171 147 171 95 l 171 836 q 162 912 171 888 q 131 945 154 936 q 58 956 109 954 l 58 983 q 236 979 116 979 q 412 983 349 979 l 412 956 m 249 1272 q 350 1169 281 1218 q 509 1089 419 1120 l 501 1069 q 336 1114 417 1087 q 208 1166 256 1141 q 103 1114 169 1141 q -29 1069 38 1087 l -36 1089 q 122 1169 53 1120 q 224 1272 191 1218 l 249 1272 z "},"Ï":{"ha":471,"x_min":8,"x_max":464,"o":"m 8 0 m 412 956 q 339 945 362 954 q 308 912 317 936 q 300 836 300 888 l 300 147 q 308 71 300 95 q 339 39 317 47 q 412 28 362 30 l 412 0 q 236 4 349 4 q 58 0 117 4 l 58 28 q 131 39 109 30 q 162 71 154 47 q 171 147 171 95 l 171 836 q 162 912 171 888 q 131 945 154 936 q 58 956 109 954 l 58 983 q 236 979 116 979 q 412 983 349 979 l 412 956 m 89 1234 q 129 1222 110 1234 q 158 1193 147 1211 q 170 1153 170 1174 q 158 1113 170 1131 q 129 1083 147 1094 q 89 1072 110 1072 q 32 1096 56 1072 q 8 1153 8 1120 q 19 1193 8 1174 q 48 1222 30 1211 q 89 1234 67 1234 m 383 1234 q 423 1222 404 1234 q 453 1193 441 1211 q 464 1153 464 1174 q 453 1113 464 1131 q 423 1083 441 1094 q 383 1072 405 1072 q 326 1096 350 1072 q 302 1153 302 1120 q 313 1193 302 1174 q 343 1222 324 1211 q 383 1234 361 1234 z "},"İ":{"ha":471,"x_min":58,"x_max":412,"o":"m 58 0 m 412 956 q 339 945 362 954 q 308 912 317 936 q 300 836 300 888 l 300 147 q 308 71 300 95 q 339 39 317 47 q 412 28 362 30 l 412 0 q 236 4 349 4 q 58 0 117 4 l 58 28 q 131 39 109 30 q 162 71 154 47 q 171 147 171 95 l 171 836 q 162 912 171 888 q 131 945 154 936 q 58 956 109 954 l 58 983 q 236 979 116 979 q 412 983 349 979 l 412 956 m 236 1332 q 280 1320 260 1332 q 313 1287 300 1308 q 325 1243 325 1267 q 313 1199 325 1219 q 280 1166 300 1178 q 236 1154 260 1154 q 192 1166 212 1154 q 159 1199 171 1178 q 147 1243 147 1219 q 159 1287 147 1267 q 192 1320 171 1308 q 236 1332 212 1332 z "},"Ì":{"ha":471,"x_min":3,"x_max":412,"o":"m 3 0 m 412 956 q 339 945 362 954 q 308 912 317 936 q 300 836 300 888 l 300 147 q 308 71 300 95 q 339 39 317 47 q 412 28 362 30 l 412 0 q 236 4 349 4 q 58 0 117 4 l 58 28 q 131 39 109 30 q 162 71 154 47 q 171 147 171 95 l 171 836 q 162 912 171 888 q 131 945 154 936 q 58 956 109 954 l 58 983 q 236 979 116 979 q 412 983 349 979 l 412 956 m 96 1286 q 181 1215 123 1268 q 329 1090 267 1137 l 319 1072 q 139 1152 248 1108 q 40 1196 71 1177 q 3 1251 3 1220 q 11 1276 3 1263 q 54 1299 26 1299 q 96 1286 75 1299 z "},"Ī":{"ha":471,"x_min":-9,"x_max":480,"o":"m 0 0 m 412 956 q 339 945 362 954 q 308 912 317 936 q 300 836 300 888 l 300 147 q 308 71 300 95 q 339 39 317 47 q 412 28 362 30 l 412 0 q 236 4 349 4 q 58 0 117 4 l 58 28 q 131 39 109 30 q 162 71 154 47 q 171 147 171 95 l 171 836 q 162 912 171 888 q 131 945 154 936 q 58 956 109 954 l 58 983 q 236 979 116 979 q 412 983 349 979 l 412 956 m -9 1137 l -9 1173 l 480 1173 l 480 1137 l -9 1137 z "},"Į":{"ha":471,"x_min":58,"x_max":434,"o":"m 434 -167 q 277 -261 372 -261 q 198 -236 228 -261 q 168 -171 168 -212 q 216 -72 168 -117 q 355 3 264 -27 q 236 4 281 4 q 58 0 116 4 l 58 28 q 131 39 109 30 q 162 71 154 47 q 171 147 171 95 l 171 836 q 162 912 171 888 q 131 945 154 936 q 58 956 109 954 l 58 983 q 236 979 116 979 q 412 983 348 979 l 412 956 q 339 945 362 954 q 308 912 317 936 q 300 836 300 888 l 300 147 q 308 71 300 95 q 339 39 317 47 q 412 28 362 30 l 412 0 l 400 1 q 300 -57 331 -20 q 269 -134 269 -94 q 285 -178 269 -161 q 329 -195 301 -195 q 377 -181 354 -195 q 414 -149 399 -168 l 434 -167 z "},"Ĩ":{"ha":471,"x_min":-31,"x_max":500,"o":"m 0 0 m 412 956 q 339 945 362 954 q 308 912 317 936 q 300 836 300 888 l 300 147 q 308 71 300 95 q 339 39 317 47 q 412 28 362 30 l 412 0 q 236 4 349 4 q 58 0 117 4 l 58 28 q 131 39 109 30 q 162 71 154 47 q 171 147 171 95 l 171 836 q 162 912 171 888 q 131 945 154 936 q 58 956 109 954 l 58 983 q 236 979 116 979 q 412 983 349 979 l 412 956 m 123 1253 q 189 1239 158 1253 q 263 1198 219 1225 q 334 1159 306 1171 q 393 1146 361 1146 q 479 1223 458 1146 l 500 1219 q 474 1141 496 1175 q 419 1090 452 1108 q 346 1072 385 1072 q 280 1086 311 1072 q 207 1127 250 1100 q 137 1166 165 1154 q 77 1179 108 1179 q -9 1101 12 1179 l -31 1105 q -5 1183 -26 1150 q 51 1235 17 1217 q 123 1253 85 1253 z "},"J":{"ha":453,"x_min":-208,"x_max":404,"o":"m 404 956 q 331 945 354 954 q 300 912 309 936 q 292 836 292 888 l 292 328 q 287 118 292 210 q 268 -35 283 27 q 213 -151 252 -100 q 113 -232 174 -202 q -25 -261 52 -261 q -142 -236 -93 -261 q -208 -140 -208 -201 q -188 -87 -208 -108 q -135 -66 -167 -66 q -80 -87 -102 -66 q -58 -142 -58 -107 q -74 -189 -58 -171 q -117 -212 -90 -207 q -78 -230 -104 -224 q -28 -235 -52 -235 q 76 -203 33 -235 q 139 -117 120 -172 q 158 -8 153 -73 q 163 201 163 56 l 163 836 q 154 912 163 888 q 123 945 146 936 q 50 956 100 954 l 50 983 q 228 979 108 979 q 404 983 339 979 l 404 956 z "},"Ĵ":{"ha":453,"x_min":-208,"x_max":500,"o":"m 0 0 m 404 956 q 331 945 354 954 q 300 912 309 936 q 292 836 292 888 l 292 328 q 287 118 292 210 q 268 -35 283 27 q 213 -151 252 -100 q 113 -232 174 -202 q -25 -261 52 -261 q -142 -236 -93 -261 q -208 -140 -208 -201 q -188 -87 -208 -108 q -135 -66 -167 -66 q -80 -87 -102 -66 q -58 -142 -58 -107 q -74 -189 -58 -171 q -117 -212 -90 -207 q -78 -230 -104 -224 q -28 -235 -52 -235 q 76 -203 33 -235 q 139 -117 120 -172 q 158 -8 153 -73 q 163 201 163 56 l 163 836 q 154 912 163 888 q 123 945 146 936 q 50 956 100 954 l 50 983 q 228 979 108 979 q 404 983 339 979 l 404 956 m 241 1272 q 342 1169 273 1218 q 500 1089 411 1120 l 493 1069 q 328 1114 409 1087 q 200 1166 248 1141 q 95 1114 161 1141 q -37 1069 30 1087 l -44 1089 q 114 1169 45 1120 q 216 1272 182 1218 l 241 1272 z "},"K":{"ha":909,"x_min":58,"x_max":908,"o":"m 786 113 q 838 58 809 77 q 908 28 866 38 l 908 0 q 742 4 842 4 q 599 0 667 4 l 599 28 q 647 36 631 29 q 663 57 663 43 q 648 90 663 70 l 446 396 q 397 459 418 439 q 355 487 376 479 q 300 497 334 495 l 300 147 q 308 71 300 95 q 339 39 317 47 q 412 28 362 30 l 412 0 q 236 4 349 4 q 58 0 117 4 l 58 28 q 131 39 109 30 q 162 71 154 47 q 171 147 171 95 l 171 836 q 162 912 171 888 q 131 945 154 936 q 58 956 109 954 l 58 983 q 236 979 116 979 q 412 983 349 979 l 412 956 q 339 945 362 954 q 308 912 317 936 q 300 836 300 888 l 300 525 q 458 603 400 528 l 591 772 q 663 905 663 863 q 576 956 663 954 l 576 983 q 736 979 656 979 q 854 983 813 979 l 854 956 q 768 926 808 949 q 690 854 728 903 l 464 564 l 786 113 z "},"Ķ":{"ha":909,"x_min":58,"x_max":908,"o":"m 58 0 m 786 113 q 838 58 809 77 q 908 28 866 38 l 908 0 q 742 4 842 4 q 599 0 667 4 l 599 28 q 647 36 631 29 q 663 57 663 43 q 648 90 663 70 l 446 396 q 397 459 418 439 q 355 487 376 479 q 300 497 334 495 l 300 147 q 308 71 300 95 q 339 39 317 47 q 412 28 362 30 l 412 0 q 236 4 349 4 q 58 0 117 4 l 58 28 q 131 39 109 30 q 162 71 154 47 q 171 147 171 95 l 171 836 q 162 912 171 888 q 131 945 154 936 q 58 956 109 954 l 58 983 q 236 979 116 979 q 412 983 349 979 l 412 956 q 339 945 362 954 q 308 912 317 936 q 300 836 300 888 l 300 525 q 458 603 400 528 l 591 772 q 663 905 663 863 q 576 956 663 954 l 576 983 q 736 979 656 979 q 854 983 813 979 l 854 956 q 768 926 808 949 q 690 854 728 903 l 464 564 l 786 113 m 473 -96 q 538 -124 513 -96 q 563 -193 563 -152 q 538 -278 563 -245 q 449 -335 513 -311 l 439 -310 q 500 -276 475 -299 q 526 -222 526 -253 q 467 -244 500 -244 q 415 -224 435 -244 q 395 -170 395 -205 q 417 -117 395 -138 q 473 -96 440 -96 z "},"L":{"ha":817,"x_min":58,"x_max":779,"o":"m 412 956 q 339 945 362 954 q 308 912 317 936 q 300 836 300 888 l 300 147 q 308 72 300 95 q 339 40 317 48 q 412 32 362 32 l 514 32 q 646 56 601 32 q 711 134 691 81 q 742 292 731 188 l 774 292 q 770 178 770 248 q 779 0 770 99 q 461 4 685 4 q 58 0 195 4 l 58 28 q 131 39 109 30 q 162 71 154 47 q 171 147 171 95 l 171 836 q 162 912 171 888 q 131 945 154 936 q 58 956 109 954 l 58 983 q 236 979 116 979 q 412 983 349 979 l 412 956 z "},"Ĺ":{"ha":817,"x_min":58,"x_max":779,"o":"m 58 0 m 412 956 q 339 945 362 954 q 308 912 317 936 q 300 836 300 888 l 300 147 q 308 72 300 95 q 339 40 317 48 q 412 32 362 32 l 514 32 q 646 56 601 32 q 711 134 691 81 q 742 292 731 188 l 774 292 q 770 178 770 248 q 779 0 770 99 q 461 4 685 4 q 58 0 195 4 l 58 28 q 131 39 109 30 q 162 71 154 47 q 171 147 171 95 l 171 836 q 162 912 171 888 q 131 945 154 936 q 58 956 109 954 l 58 983 q 236 979 116 979 q 412 983 349 979 l 412 956 m 385 1286 q 427 1299 406 1299 q 469 1276 454 1299 q 477 1251 477 1263 q 440 1196 477 1220 q 341 1152 410 1177 q 161 1072 233 1108 l 151 1090 q 299 1215 213 1137 q 385 1286 357 1268 z "},"Ľ":{"ha":817,"x_min":58,"x_max":779,"o":"m 58 0 m 412 956 q 339 945 362 954 q 308 912 317 936 q 300 836 300 888 l 300 147 q 308 72 300 95 q 339 40 317 48 q 412 32 362 32 l 514 32 q 646 56 601 32 q 711 134 691 81 q 742 292 731 188 l 774 292 q 770 178 770 248 q 779 0 770 99 q 461 4 685 4 q 58 0 195 4 l 58 28 q 131 39 109 30 q 162 71 154 47 q 171 147 171 95 l 171 836 q 162 912 171 888 q 131 945 154 936 q 58 956 109 954 l 58 983 q 236 979 116 979 q 412 983 349 979 l 412 956 m 608 991 q 615 942 615 976 q 602 878 615 914 q 568 801 589 842 q 503 680 547 760 l 494 664 l 475 669 q 503 899 503 846 q 494 941 503 928 q 461 954 486 954 l 461 983 q 518 981 490 981 q 608 991 565 981 z "},"Ļ":{"ha":817,"x_min":58,"x_max":779,"o":"m 58 0 m 412 956 q 339 945 362 954 q 308 912 317 936 q 300 836 300 888 l 300 147 q 308 72 300 95 q 339 40 317 48 q 412 32 362 32 l 514 32 q 646 56 601 32 q 711 134 691 81 q 742 292 731 188 l 774 292 q 770 178 770 248 q 779 0 770 99 q 461 4 685 4 q 58 0 195 4 l 58 28 q 131 39 109 30 q 162 71 154 47 q 171 147 171 95 l 171 836 q 162 912 171 888 q 131 945 154 936 q 58 956 109 954 l 58 983 q 236 979 116 979 q 412 983 349 979 l 412 956 m 453 -96 q 518 -124 493 -96 q 543 -193 543 -152 q 518 -278 543 -245 q 429 -335 494 -311 l 420 -310 q 481 -276 456 -299 q 506 -222 506 -253 q 448 -244 481 -244 q 395 -224 416 -244 q 375 -170 375 -205 q 398 -117 375 -138 q 453 -96 420 -96 z "},"Ŀ":{"ha":860,"x_min":58,"x_max":822,"o":"m 58 0 m 412 956 q 339 945 362 954 q 308 912 317 936 q 300 836 300 888 l 300 147 q 308 72 300 95 q 339 40 317 48 q 412 32 362 32 l 514 32 q 646 56 601 32 q 711 134 691 81 q 742 292 731 188 l 774 292 q 770 178 770 248 q 779 0 770 99 q 461 4 685 4 q 58 0 195 4 l 58 28 q 131 39 109 30 q 162 71 154 47 q 171 147 171 95 l 171 836 q 162 912 171 888 q 131 945 154 936 q 58 956 109 954 l 58 983 q 236 979 116 979 q 412 983 349 979 l 412 956 m 733 583 q 778 571 757 583 q 810 539 798 559 q 822 494 822 518 q 810 450 822 471 q 778 418 798 430 q 733 406 757 406 q 689 418 709 406 q 656 450 668 430 q 644 494 644 471 q 656 539 644 518 q 689 571 668 559 q 733 583 709 583 z "},"Ł":{"ha":817,"x_min":58,"x_max":779,"o":"m 770 178 q 779 0 770 99 q 461 4 685 4 q 58 0 195 4 l 58 28 q 131 39 109 30 q 162 71 154 47 q 171 147 171 95 l 171 357 l 58 292 l 58 323 l 171 389 l 171 836 q 162 912 171 888 q 131 945 154 936 q 58 956 109 954 l 58 983 q 236 979 116 979 q 412 983 349 979 l 412 956 q 339 945 362 954 q 308 912 317 936 q 300 836 300 888 l 300 450 l 657 657 l 657 625 l 300 418 l 300 147 q 308 72 300 95 q 339 40 317 48 q 412 32 362 32 l 514 32 q 646 56 601 32 q 711 134 691 81 q 742 292 731 188 l 774 292 q 770 178 770 248 z "},"M":{"ha":1210,"x_min":58,"x_max":1152,"o":"m 1152 956 q 1079 945 1101 954 q 1047 912 1056 936 q 1039 836 1039 888 l 1039 147 q 1047 71 1039 95 q 1079 39 1056 47 q 1152 28 1101 30 l 1152 0 q 975 4 1086 4 q 798 0 856 4 l 798 28 q 870 39 848 30 q 901 71 892 47 q 909 147 909 95 l 909 890 l 575 -7 l 553 -7 l 203 895 l 203 161 q 212 81 203 108 q 248 42 222 54 q 329 28 274 30 l 329 0 q 187 4 279 4 q 58 0 104 4 l 58 28 q 130 42 106 30 q 162 81 153 54 q 171 161 171 108 l 171 836 q 162 912 171 888 q 131 945 154 936 q 58 956 109 954 l 58 983 q 187 979 104 979 q 306 983 260 979 l 611 178 l 909 979 l 975 979 q 1152 983 1086 979 l 1152 956 z "},"N":{"ha":981,"x_min":58,"x_max":930,"o":"m 930 956 q 859 942 882 954 q 827 903 836 930 q 818 822 818 876 l 818 -7 l 786 -7 l 203 895 l 203 161 q 212 81 203 108 q 248 42 222 54 q 329 28 274 30 l 329 0 q 187 4 279 4 q 58 0 104 4 l 58 28 q 130 42 106 30 q 162 81 153 54 q 171 161 171 108 l 171 836 q 162 912 171 888 q 131 945 154 936 q 58 956 109 954 l 58 983 q 187 979 104 979 q 296 983 250 979 l 786 228 l 786 822 q 777 903 786 876 q 741 942 768 930 q 660 956 715 954 l 660 983 q 802 979 709 979 q 930 983 884 979 l 930 956 z "},"Ń":{"ha":981,"x_min":58,"x_max":930,"o":"m 58 0 m 930 956 q 859 942 882 954 q 827 903 836 930 q 818 822 818 876 l 818 -7 l 786 -7 l 203 895 l 203 161 q 212 81 203 108 q 248 42 222 54 q 329 28 274 30 l 329 0 q 187 4 279 4 q 58 0 104 4 l 58 28 q 130 42 106 30 q 162 81 153 54 q 171 161 171 108 l 171 836 q 162 912 171 888 q 131 945 154 936 q 58 956 109 954 l 58 983 q 187 979 104 979 q 296 983 250 979 l 786 228 l 786 822 q 777 903 786 876 q 741 942 768 930 q 660 956 715 954 l 660 983 q 802 979 709 979 q 930 983 884 979 l 930 956 m 668 1286 q 710 1299 689 1299 q 753 1276 737 1299 q 760 1251 760 1263 q 724 1196 760 1220 q 625 1152 693 1177 q 444 1072 516 1108 l 435 1090 q 583 1215 496 1137 q 668 1286 640 1268 z "},"Ň":{"ha":981,"x_min":58,"x_max":930,"o":"m 58 0 m 930 956 q 859 942 882 954 q 827 903 836 930 q 818 822 818 876 l 818 -7 l 786 -7 l 203 895 l 203 161 q 212 81 203 108 q 248 42 222 54 q 329 28 274 30 l 329 0 q 187 4 279 4 q 58 0 104 4 l 58 28 q 130 42 106 30 q 162 81 153 54 q 171 161 171 108 l 171 836 q 162 912 171 888 q 131 945 154 936 q 58 956 109 954 l 58 983 q 187 979 104 979 q 296 983 250 979 l 786 228 l 786 822 q 777 903 786 876 q 741 942 768 930 q 660 956 715 954 l 660 983 q 802 979 709 979 q 930 983 884 979 l 930 956 m 788 1267 q 630 1186 699 1236 q 528 1083 561 1137 l 503 1083 q 401 1186 470 1137 q 243 1267 332 1236 l 250 1286 q 414 1242 333 1269 q 543 1189 495 1215 q 649 1242 583 1215 q 781 1286 714 1269 l 788 1267 z "},"Ņ":{"ha":981,"x_min":58,"x_max":930,"o":"m 58 0 m 930 956 q 859 942 882 954 q 827 903 836 930 q 818 822 818 876 l 818 -7 l 786 -7 l 203 895 l 203 161 q 212 81 203 108 q 248 42 222 54 q 329 28 274 30 l 329 0 q 187 4 279 4 q 58 0 104 4 l 58 28 q 130 42 106 30 q 162 81 153 54 q 171 161 171 108 l 171 836 q 162 912 171 888 q 131 945 154 936 q 58 956 109 954 l 58 983 q 187 979 104 979 q 296 983 250 979 l 786 228 l 786 822 q 777 903 786 876 q 741 942 768 930 q 660 956 715 954 l 660 983 q 802 979 709 979 q 930 983 884 979 l 930 956 m 502 -96 q 567 -124 542 -96 q 592 -193 592 -152 q 567 -278 592 -245 q 478 -335 543 -311 l 469 -310 q 530 -276 505 -299 q 555 -222 555 -253 q 496 -244 530 -244 q 444 -224 465 -244 q 424 -170 424 -205 q 447 -117 424 -138 q 502 -96 469 -96 z "},"Ŋ":{"ha":979,"x_min":58,"x_max":930,"o":"m 802 979 q 930 983 885 979 l 930 956 q 858 945 880 954 q 826 912 835 936 q 818 836 818 888 l 818 126 q 792 -111 818 -26 q 724 -229 767 -197 q 621 -261 681 -261 q 531 -240 567 -261 q 496 -175 496 -219 q 514 -125 496 -144 q 561 -106 533 -106 q 610 -125 589 -106 q 631 -171 631 -144 q 621 -207 631 -189 q 595 -235 610 -225 q 627 -237 611 -237 q 783 -3 766 -237 l 203 895 l 203 147 q 211 71 203 95 q 242 39 220 47 q 315 28 265 30 l 315 0 q 187 4 265 4 q 58 0 104 4 l 58 28 q 131 39 109 30 q 162 71 154 47 q 171 147 171 95 l 171 836 q 162 912 171 888 q 131 945 154 936 q 58 956 109 954 l 58 983 q 187 979 104 979 q 315 983 264 979 l 786 256 l 786 836 q 778 912 786 888 q 746 945 769 936 q 673 956 724 954 l 673 983 q 802 979 724 979 z "},"Ñ":{"ha":981,"x_min":58,"x_max":930,"o":"m 58 0 m 930 956 q 859 942 882 954 q 827 903 836 930 q 818 822 818 876 l 818 -7 l 786 -7 l 203 895 l 203 161 q 212 81 203 108 q 248 42 222 54 q 329 28 274 30 l 329 0 q 187 4 279 4 q 58 0 104 4 l 58 28 q 130 42 106 30 q 162 81 153 54 q 171 161 171 108 l 171 836 q 162 912 171 888 q 131 945 154 936 q 58 956 109 954 l 58 983 q 187 979 104 979 q 296 983 250 979 l 786 228 l 786 822 q 777 903 786 876 q 741 942 768 930 q 660 956 715 954 l 660 983 q 802 979 709 979 q 930 983 884 979 l 930 956 m 407 1253 q 472 1239 441 1253 q 547 1198 503 1225 q 617 1159 589 1171 q 677 1146 645 1146 q 763 1223 741 1146 l 783 1219 q 758 1141 779 1175 q 702 1090 736 1108 q 629 1072 669 1072 q 564 1086 595 1072 q 490 1127 533 1100 q 420 1166 449 1154 q 360 1179 391 1179 q 274 1101 295 1179 l 253 1105 q 279 1183 257 1150 q 334 1235 300 1217 q 407 1253 368 1253 z "},"O":{"ha":1029,"x_min":74,"x_max":956,"o":"m 515 1003 q 747 943 648 1003 q 901 770 846 884 q 956 500 956 656 q 899 229 956 347 q 743 45 843 111 q 514 -20 642 -20 q 282 40 382 -20 q 129 213 183 100 q 74 484 74 327 q 130 755 74 637 q 287 938 186 873 q 515 1003 387 1003 m 510 978 q 353 916 421 978 q 249 743 286 854 q 212 489 212 632 q 253 235 212 345 q 364 65 294 125 q 519 5 434 5 q 676 67 608 5 q 780 240 743 130 q 817 494 817 351 q 776 749 817 639 q 665 918 735 859 q 510 978 595 978 z "},"Ó":{"ha":1029,"x_min":74,"x_max":956,"o":"m 74 0 m 515 1003 q 747 943 648 1003 q 901 770 846 884 q 956 500 956 656 q 899 229 956 347 q 743 45 843 111 q 514 -20 642 -20 q 282 40 382 -20 q 129 213 183 100 q 74 484 74 327 q 130 755 74 637 q 287 938 186 873 q 515 1003 387 1003 m 510 978 q 353 916 421 978 q 249 743 286 854 q 212 489 212 632 q 253 235 212 345 q 364 65 294 125 q 519 5 434 5 q 676 67 608 5 q 780 240 743 130 q 817 494 817 351 q 776 749 817 639 q 665 918 735 859 q 510 978 595 978 m 661 1286 q 703 1299 682 1299 q 746 1276 730 1299 q 753 1251 753 1263 q 717 1196 753 1220 q 618 1152 686 1177 q 437 1072 509 1108 l 428 1090 q 576 1215 490 1137 q 661 1286 633 1268 z "},"Ŏ":{"ha":1029,"x_min":74,"x_max":956,"o":"m 74 0 m 515 1003 q 747 943 648 1003 q 901 770 846 884 q 956 500 956 656 q 899 229 956 347 q 743 45 843 111 q 514 -20 642 -20 q 282 40 382 -20 q 129 213 183 100 q 74 484 74 327 q 130 755 74 637 q 287 938 186 873 q 515 1003 387 1003 m 510 978 q 353 916 421 978 q 249 743 286 854 q 212 489 212 632 q 253 235 212 345 q 364 65 294 125 q 519 5 434 5 q 676 67 608 5 q 780 240 743 130 q 817 494 817 351 q 776 749 817 639 q 665 918 735 859 q 510 978 595 978 m 789 1247 q 679 1134 749 1181 q 513 1086 609 1086 q 347 1134 416 1086 q 236 1247 277 1181 l 254 1261 q 357 1198 292 1224 q 513 1173 421 1173 q 669 1199 604 1173 q 772 1263 734 1225 l 789 1247 z "},"Ô":{"ha":1029,"x_min":74,"x_max":956,"o":"m 74 0 m 515 1003 q 747 943 648 1003 q 901 770 846 884 q 956 500 956 656 q 899 229 956 347 q 743 45 843 111 q 514 -20 642 -20 q 282 40 382 -20 q 129 213 183 100 q 74 484 74 327 q 130 755 74 637 q 287 938 186 873 q 515 1003 387 1003 m 510 978 q 353 916 421 978 q 249 743 286 854 q 212 489 212 632 q 253 235 212 345 q 364 65 294 125 q 519 5 434 5 q 676 67 608 5 q 780 240 743 130 q 817 494 817 351 q 776 749 817 639 q 665 918 735 859 q 510 978 595 978 m 526 1272 q 627 1169 558 1218 q 785 1089 696 1120 l 778 1069 q 613 1114 694 1087 q 485 1166 532 1141 q 380 1114 446 1141 q 248 1069 315 1087 l 241 1089 q 398 1169 330 1120 q 500 1272 467 1218 l 526 1272 z "},"Ö":{"ha":1029,"x_min":74,"x_max":956,"o":"m 74 0 m 515 1003 q 747 943 648 1003 q 901 770 846 884 q 956 500 956 656 q 899 229 956 347 q 743 45 843 111 q 514 -20 642 -20 q 282 40 382 -20 q 129 213 183 100 q 74 484 74 327 q 130 755 74 637 q 287 938 186 873 q 515 1003 387 1003 m 510 978 q 353 916 421 978 q 249 743 286 854 q 212 489 212 632 q 253 235 212 345 q 364 65 294 125 q 519 5 434 5 q 676 67 608 5 q 780 240 743 130 q 817 494 817 351 q 776 749 817 639 q 665 918 735 859 q 510 978 595 978 m 366 1234 q 405 1222 387 1234 q 435 1193 424 1211 q 446 1153 446 1174 q 435 1113 446 1131 q 405 1083 424 1094 q 366 1072 387 1072 q 309 1096 332 1072 q 285 1153 285 1120 q 296 1193 285 1174 q 325 1222 307 1211 q 366 1234 344 1234 m 660 1234 q 700 1222 681 1234 q 729 1193 718 1211 q 741 1153 741 1174 q 729 1113 741 1131 q 700 1083 718 1094 q 660 1072 682 1072 q 603 1096 627 1072 q 579 1153 579 1120 q 590 1193 579 1174 q 620 1222 601 1211 q 660 1234 638 1234 z "},"Ò":{"ha":1029,"x_min":74,"x_max":956,"o":"m 74 0 m 515 1003 q 747 943 648 1003 q 901 770 846 884 q 956 500 956 656 q 899 229 956 347 q 743 45 843 111 q 514 -20 642 -20 q 282 40 382 -20 q 129 213 183 100 q 74 484 74 327 q 130 755 74 637 q 287 938 186 873 q 515 1003 387 1003 m 510 978 q 353 916 421 978 q 249 743 286 854 q 212 489 212 632 q 253 235 212 345 q 364 65 294 125 q 519 5 434 5 q 676 67 608 5 q 780 240 743 130 q 817 494 817 351 q 776 749 817 639 q 665 918 735 859 q 510 978 595 978 m 372 1286 q 458 1215 400 1268 q 606 1090 544 1137 l 596 1072 q 416 1152 524 1108 q 317 1196 347 1177 q 280 1251 280 1220 q 288 1276 280 1263 q 330 1299 303 1299 q 372 1286 351 1299 z "},"Ő":{"ha":1029,"x_min":74,"x_max":956,"o":"m 74 0 m 515 1003 q 747 943 648 1003 q 901 770 846 884 q 956 500 956 656 q 899 229 956 347 q 743 45 843 111 q 514 -20 642 -20 q 282 40 382 -20 q 129 213 183 100 q 74 484 74 327 q 130 755 74 637 q 287 938 186 873 q 515 1003 387 1003 m 510 978 q 353 916 421 978 q 249 743 286 854 q 212 489 212 632 q 253 235 212 345 q 364 65 294 125 q 519 5 434 5 q 676 67 608 5 q 780 240 743 130 q 817 494 817 351 q 776 749 817 639 q 665 918 735 859 q 510 978 595 978 m 469 1280 q 516 1301 492 1301 q 554 1283 540 1301 q 567 1251 567 1269 q 538 1198 567 1223 q 434 1137 508 1174 q 319 1072 355 1097 l 307 1089 q 391 1190 344 1126 q 469 1280 441 1256 m 729 1280 q 776 1301 752 1301 q 814 1283 800 1301 q 827 1251 827 1269 q 798 1198 827 1223 q 694 1137 768 1174 q 579 1072 615 1097 l 567 1089 q 650 1190 604 1126 q 729 1280 701 1256 z "},"Ō":{"ha":1029,"x_min":74,"x_max":956,"o":"m 74 0 m 515 1003 q 747 943 648 1003 q 901 770 846 884 q 956 500 956 656 q 899 229 956 347 q 743 45 843 111 q 514 -20 642 -20 q 282 40 382 -20 q 129 213 183 100 q 74 484 74 327 q 130 755 74 637 q 287 938 186 873 q 515 1003 387 1003 m 510 978 q 353 916 421 978 q 249 743 286 854 q 212 489 212 632 q 253 235 212 345 q 364 65 294 125 q 519 5 434 5 q 676 67 608 5 q 780 240 743 130 q 817 494 817 351 q 776 749 817 639 q 665 918 735 859 q 510 978 595 978 m 268 1137 l 268 1173 l 757 1173 l 757 1137 l 268 1137 z "},"Ø":{"ha":1029,"x_min":74,"x_max":956,"o":"m 810 895 q 918 730 880 830 q 956 500 956 629 q 899 229 956 347 q 743 45 843 111 q 514 -20 642 -20 q 244 66 355 -20 l 131 -102 l 102 -82 l 218 89 q 111 255 149 155 q 74 484 74 355 q 130 755 74 637 q 287 938 186 873 q 515 1003 387 1003 q 785 917 675 1003 l 893 1074 l 920 1055 l 810 895 m 510 978 q 353 916 421 978 q 249 743 286 854 q 212 489 212 632 q 282 169 212 300 l 728 846 q 630 944 686 909 q 510 978 574 978 m 519 5 q 676 67 608 5 q 780 240 743 130 q 817 494 817 351 q 747 814 817 686 l 302 136 q 400 39 344 73 q 519 5 456 5 z "},"Õ":{"ha":1029,"x_min":74,"x_max":956,"o":"m 74 0 m 515 1003 q 747 943 648 1003 q 901 770 846 884 q 956 500 956 656 q 899 229 956 347 q 743 45 843 111 q 514 -20 642 -20 q 282 40 382 -20 q 129 213 183 100 q 74 484 74 327 q 130 755 74 637 q 287 938 186 873 q 515 1003 387 1003 m 510 978 q 353 916 421 978 q 249 743 286 854 q 212 489 212 632 q 253 235 212 345 q 364 65 294 125 q 519 5 434 5 q 676 67 608 5 q 780 240 743 130 q 817 494 817 351 q 776 749 817 639 q 665 918 735 859 q 510 978 595 978 m 400 1253 q 465 1239 435 1253 q 540 1198 496 1225 q 610 1159 583 1171 q 670 1146 638 1146 q 756 1223 734 1146 l 777 1219 q 751 1141 772 1175 q 695 1090 729 1108 q 623 1072 662 1072 q 557 1086 588 1072 q 484 1127 526 1100 q 413 1166 442 1154 q 353 1179 385 1179 q 267 1101 288 1179 l 246 1105 q 272 1183 250 1150 q 328 1235 294 1217 q 400 1253 361 1253 z "},"Œ":{"ha":1289,"x_min":74,"x_max":1222,"o":"m 1213 178 q 1222 0 1213 99 q 932 4 1136 4 q 628 1 737 4 q 514 -20 571 -20 q 282 40 382 -20 q 129 213 183 100 q 74 484 74 327 q 130 755 74 637 q 287 938 186 873 q 515 1003 387 1003 q 637 982 580 1003 q 932 979 749 979 q 1194 983 1117 979 q 1185 819 1185 892 q 1189 733 1185 765 l 1157 733 q 1132 867 1147 823 q 1080 931 1116 911 q 971 951 1044 951 l 925 951 q 852 943 875 951 q 821 912 829 935 q 812 836 812 888 l 812 509 l 872 509 q 946 528 920 509 q 982 574 972 548 q 998 640 991 601 l 1002 664 l 1034 664 q 1029 556 1029 608 l 1029 494 q 1038 325 1029 435 l 1006 325 l 1003 342 q 987 416 997 389 q 951 462 978 444 q 872 481 924 481 l 812 481 l 812 147 q 821 72 812 95 q 852 40 829 48 q 925 32 875 32 l 957 32 q 1089 55 1044 32 q 1154 129 1134 78 q 1185 278 1174 180 l 1217 278 q 1213 178 1213 241 m 684 836 q 635 943 684 908 q 510 978 587 978 q 353 916 421 978 q 249 743 286 854 q 212 489 212 632 q 253 235 212 345 q 364 65 294 125 q 519 5 434 5 q 596 21 558 5 q 659 68 634 36 q 684 147 684 100 l 684 836 z "},"P":{"ha":812,"x_min":58,"x_max":772,"o":"m 300 147 q 311 71 300 95 q 350 39 321 47 q 440 28 378 30 l 440 0 q 236 4 368 4 q 58 0 117 4 l 58 28 q 131 39 109 30 q 162 71 154 47 q 171 147 171 95 l 171 836 q 162 912 171 888 q 131 945 154 936 q 58 956 109 954 l 58 983 q 228 979 116 979 q 378 981 252 979 l 437 982 q 622 948 547 982 q 735 852 697 913 q 772 708 772 790 q 739 562 772 632 q 623 444 705 491 q 407 397 541 397 l 300 397 l 300 147 m 403 956 q 338 946 359 956 q 308 911 316 936 q 300 836 300 886 l 300 425 l 393 425 q 581 498 529 425 q 633 693 633 570 q 610 840 633 783 q 537 927 587 898 q 403 956 486 956 z "},"Þ":{"ha":806,"x_min":58,"x_max":762,"o":"m 300 147 q 308 71 300 95 q 339 39 317 47 q 412 28 362 30 l 412 0 q 236 4 349 4 q 58 0 117 4 l 58 28 q 131 39 109 30 q 162 71 154 47 q 171 147 171 95 l 171 836 q 162 912 171 888 q 131 945 154 936 q 58 956 109 954 l 58 983 q 236 979 117 979 q 412 983 349 979 l 412 956 q 339 945 362 954 q 308 912 317 936 q 300 836 300 888 l 300 774 q 369 776 328 774 l 428 777 q 612 741 536 777 q 725 645 687 706 q 762 505 762 583 q 729 356 762 427 q 613 238 695 285 q 397 192 532 192 l 300 192 l 300 147 m 393 750 q 300 749 362 750 l 300 220 l 383 220 q 572 294 519 220 q 624 497 624 369 q 570 687 624 625 q 393 750 516 750 z "},"Q":{"ha":1029,"x_min":74,"x_max":1060,"o":"m 1060 -40 q 972 -199 1029 -146 q 785 -261 903 -261 q 695 -251 739 -261 q 609 -224 650 -240 q 506 -181 568 -209 q 338 -114 394 -132 q 319 -109 322 -109 l 304 -104 q 189 -125 243 -125 q 125 -97 125 -125 q 200 -68 125 -68 q 304 -79 250 -68 q 405 -41 347 -68 q 461 -17 435 -27 q 257 57 344 -5 q 122 229 170 120 q 74 484 74 338 q 130 755 74 637 q 287 938 186 873 q 515 1003 387 1003 q 747 943 648 1003 q 901 770 846 884 q 956 500 956 656 q 905 242 956 355 q 765 61 855 129 q 558 -18 675 -7 l 558 -18 q 498 -31 524 -22 q 436 -55 472 -39 q 353 -86 387 -76 q 613 -135 505 -117 q 793 -153 722 -153 q 949 -124 892 -153 q 1039 -32 1007 -95 l 1060 -40 m 212 489 q 253 235 212 345 q 364 65 294 125 q 519 5 434 5 q 676 67 608 5 q 780 240 743 130 q 817 494 817 351 q 776 749 817 639 q 665 918 735 859 q 510 978 595 978 q 353 916 421 978 q 249 743 286 854 q 212 489 212 632 z "},"R":{"ha":900,"x_min":58,"x_max":917,"o":"m 917 69 q 852 1 884 22 q 768 -20 821 -20 q 675 14 711 -20 q 619 131 638 47 l 589 269 q 558 381 572 342 q 514 443 543 420 q 432 467 484 467 l 300 467 l 300 147 q 308 71 300 95 q 339 39 317 47 q 412 28 362 30 l 412 0 q 236 4 349 4 q 58 0 117 4 l 58 28 q 131 39 109 30 q 162 71 154 47 q 171 147 171 95 l 171 836 q 162 912 171 888 q 131 945 154 936 q 58 956 109 954 l 58 983 q 228 979 117 979 q 378 981 252 979 l 437 982 q 621 950 546 982 q 734 864 696 919 q 772 741 772 810 q 747 631 772 686 q 661 532 721 576 q 503 473 600 488 l 519 471 q 619 440 582 460 q 679 383 656 419 q 714 288 701 347 l 749 146 q 767 79 758 103 q 788 43 776 55 q 820 32 801 32 q 858 44 843 32 q 896 85 873 56 l 917 69 m 403 956 q 338 946 359 956 q 308 911 316 936 q 300 836 300 886 l 300 494 l 393 494 q 540 524 487 494 q 613 604 593 554 q 633 725 633 654 q 579 897 633 839 q 403 956 525 956 z "},"Ŕ":{"ha":900,"x_min":58,"x_max":917,"o":"m 58 0 m 917 69 q 852 1 884 22 q 768 -20 821 -20 q 675 14 711 -20 q 619 131 638 47 l 589 269 q 558 381 572 342 q 514 443 543 420 q 432 467 484 467 l 300 467 l 300 147 q 308 71 300 95 q 339 39 317 47 q 412 28 362 30 l 412 0 q 236 4 349 4 q 58 0 117 4 l 58 28 q 131 39 109 30 q 162 71 154 47 q 171 147 171 95 l 171 836 q 162 912 171 888 q 131 945 154 936 q 58 956 109 954 l 58 983 q 228 979 117 979 q 378 981 252 979 l 437 982 q 621 950 546 982 q 734 864 696 919 q 772 741 772 810 q 747 631 772 686 q 661 532 721 576 q 503 473 600 488 l 519 471 q 619 440 582 460 q 679 383 656 419 q 714 288 701 347 l 749 146 q 767 79 758 103 q 788 43 776 55 q 820 32 801 32 q 858 44 843 32 q 896 85 873 56 l 917 69 m 403 956 q 338 946 359 956 q 308 911 316 936 q 300 836 300 886 l 300 494 l 393 494 q 540 524 487 494 q 613 604 593 554 q 633 725 633 654 q 579 897 633 839 q 403 956 525 956 m 559 1286 q 602 1299 581 1299 q 644 1276 629 1299 q 652 1251 652 1263 q 615 1196 652 1220 q 516 1152 585 1177 q 336 1072 408 1108 l 326 1090 q 474 1215 388 1137 q 559 1286 532 1268 z "},"Ř":{"ha":900,"x_min":58,"x_max":917,"o":"m 58 0 m 917 69 q 852 1 884 22 q 768 -20 821 -20 q 675 14 711 -20 q 619 131 638 47 l 589 269 q 558 381 572 342 q 514 443 543 420 q 432 467 484 467 l 300 467 l 300 147 q 308 71 300 95 q 339 39 317 47 q 412 28 362 30 l 412 0 q 236 4 349 4 q 58 0 117 4 l 58 28 q 131 39 109 30 q 162 71 154 47 q 171 147 171 95 l 171 836 q 162 912 171 888 q 131 945 154 936 q 58 956 109 954 l 58 983 q 228 979 117 979 q 378 981 252 979 l 437 982 q 621 950 546 982 q 734 864 696 919 q 772 741 772 810 q 747 631 772 686 q 661 532 721 576 q 503 473 600 488 l 519 471 q 619 440 582 460 q 679 383 656 419 q 714 288 701 347 l 749 146 q 767 79 758 103 q 788 43 776 55 q 820 32 801 32 q 858 44 843 32 q 896 85 873 56 l 917 69 m 403 956 q 338 946 359 956 q 308 911 316 936 q 300 836 300 886 l 300 494 l 393 494 q 540 524 487 494 q 613 604 593 554 q 633 725 633 654 q 579 897 633 839 q 403 956 525 956 m 680 1267 q 521 1186 590 1236 q 420 1083 452 1137 l 395 1083 q 293 1186 361 1137 q 135 1267 224 1236 l 142 1286 q 306 1242 224 1269 q 435 1189 387 1215 q 540 1242 475 1215 q 672 1286 606 1269 l 680 1267 z "},"Ŗ":{"ha":900,"x_min":58,"x_max":917,"o":"m 58 0 m 917 69 q 852 1 884 22 q 768 -20 821 -20 q 675 14 711 -20 q 619 131 638 47 l 589 269 q 558 381 572 342 q 514 443 543 420 q 432 467 484 467 l 300 467 l 300 147 q 308 71 300 95 q 339 39 317 47 q 412 28 362 30 l 412 0 q 236 4 349 4 q 58 0 117 4 l 58 28 q 131 39 109 30 q 162 71 154 47 q 171 147 171 95 l 171 836 q 162 912 171 888 q 131 945 154 936 q 58 956 109 954 l 58 983 q 228 979 117 979 q 378 981 252 979 l 437 982 q 621 950 546 982 q 734 864 696 919 q 772 741 772 810 q 747 631 772 686 q 661 532 721 576 q 503 473 600 488 l 519 471 q 619 440 582 460 q 679 383 656 419 q 714 288 701 347 l 749 146 q 767 79 758 103 q 788 43 776 55 q 820 32 801 32 q 858 44 843 32 q 896 85 873 56 l 917 69 m 403 956 q 338 946 359 956 q 308 911 316 936 q 300 836 300 886 l 300 494 l 393 494 q 540 524 487 494 q 613 604 593 554 q 633 725 633 654 q 579 897 633 839 q 403 956 525 956 m 460 -96 q 525 -124 500 -96 q 550 -193 550 -152 q 525 -278 550 -245 q 436 -335 500 -311 l 427 -310 q 488 -276 463 -299 q 513 -222 513 -253 q 454 -244 488 -244 q 402 -224 422 -244 q 382 -170 382 -205 q 405 -117 382 -138 q 460 -96 427 -96 z "},"S":{"ha":750,"x_min":87,"x_max":682,"o":"m 355 999 q 429 992 398 999 q 480 974 460 985 q 525 947 500 964 q 572 928 556 928 q 592 942 585 928 q 603 989 599 957 l 635 989 q 628 705 628 907 l 596 705 q 565 837 591 777 q 491 935 540 897 q 368 972 441 972 q 281 952 319 972 q 220 895 242 932 q 199 811 199 859 q 223 720 199 758 q 284 652 247 681 q 391 582 322 624 l 432 557 q 570 461 519 502 q 652 368 621 421 q 682 244 682 315 q 643 99 682 159 q 537 10 604 40 q 387 -20 470 -20 q 278 -6 321 -20 q 197 32 235 8 q 150 52 166 52 q 130 37 137 52 q 119 -9 123 22 l 87 -9 q 93 323 93 66 l 125 323 q 194 95 134 182 q 378 8 254 8 q 466 28 425 8 q 533 89 507 47 q 558 193 558 131 q 532 289 558 247 q 461 367 506 332 q 342 447 416 402 q 209 536 259 496 q 126 630 159 575 q 94 758 94 684 q 130 891 94 837 q 225 972 165 945 q 355 999 284 999 z "},"Ś":{"ha":750,"x_min":87,"x_max":682,"o":"m 87 0 m 355 999 q 429 992 398 999 q 480 974 460 985 q 525 947 500 964 q 572 928 556 928 q 592 942 585 928 q 603 989 599 957 l 635 989 q 628 705 628 907 l 596 705 q 565 837 591 777 q 491 935 540 897 q 368 972 441 972 q 281 952 319 972 q 220 895 242 932 q 199 811 199 859 q 223 720 199 758 q 284 652 247 681 q 391 582 322 624 l 432 557 q 570 461 519 502 q 652 368 621 421 q 682 244 682 315 q 643 99 682 159 q 537 10 604 40 q 387 -20 470 -20 q 278 -6 321 -20 q 197 32 235 8 q 150 52 166 52 q 130 37 137 52 q 119 -9 123 22 l 87 -9 q 93 323 93 66 l 125 323 q 194 95 134 182 q 378 8 254 8 q 466 28 425 8 q 533 89 507 47 q 558 193 558 131 q 532 289 558 247 q 461 367 506 332 q 342 447 416 402 q 209 536 259 496 q 126 630 159 575 q 94 758 94 684 q 130 891 94 837 q 225 972 165 945 q 355 999 284 999 m 530 1286 q 572 1299 551 1299 q 615 1276 600 1299 q 623 1251 623 1263 q 586 1196 623 1220 q 487 1152 555 1177 q 307 1072 378 1108 l 297 1090 q 445 1215 359 1137 q 530 1286 503 1268 z "},"Š":{"ha":750,"x_min":87,"x_max":682,"o":"m 87 0 m 355 999 q 429 992 398 999 q 480 974 460 985 q 525 947 500 964 q 572 928 556 928 q 592 942 585 928 q 603 989 599 957 l 635 989 q 628 705 628 907 l 596 705 q 565 837 591 777 q 491 935 540 897 q 368 972 441 972 q 281 952 319 972 q 220 895 242 932 q 199 811 199 859 q 223 720 199 758 q 284 652 247 681 q 391 582 322 624 l 432 557 q 570 461 519 502 q 652 368 621 421 q 682 244 682 315 q 643 99 682 159 q 537 10 604 40 q 387 -20 470 -20 q 278 -6 321 -20 q 197 32 235 8 q 150 52 166 52 q 130 37 137 52 q 119 -9 123 22 l 87 -9 q 93 323 93 66 l 125 323 q 194 95 134 182 q 378 8 254 8 q 466 28 425 8 q 533 89 507 47 q 558 193 558 131 q 532 289 558 247 q 461 367 506 332 q 342 447 416 402 q 209 536 259 496 q 126 630 159 575 q 94 758 94 684 q 130 891 94 837 q 225 972 165 945 q 355 999 284 999 m 650 1267 q 492 1186 561 1236 q 391 1083 423 1137 l 366 1083 q 263 1186 332 1137 q 106 1267 195 1236 l 113 1286 q 276 1242 195 1269 q 406 1189 357 1215 q 511 1242 446 1215 q 643 1286 576 1269 l 650 1267 z "},"Ş":{"ha":750,"x_min":87,"x_max":682,"o":"m 682 244 q 646 104 682 162 q 546 15 609 45 q 404 -20 483 -16 l 376 -100 q 458 -90 418 -90 q 520 -107 498 -90 q 543 -155 543 -125 q 519 -216 543 -192 q 459 -250 495 -239 q 387 -261 423 -261 q 271 -245 315 -261 l 277 -221 q 330 -225 305 -225 q 417 -211 380 -225 q 454 -163 454 -196 q 396 -123 454 -123 q 328 -134 357 -123 l 366 -19 q 271 -3 309 -17 q 197 32 233 10 q 150 52 166 52 q 130 37 137 52 q 119 -9 123 22 l 87 -9 q 93 323 93 66 l 125 323 q 194 95 134 182 q 378 8 254 8 q 466 28 425 8 q 533 89 507 47 q 558 193 558 131 q 532 289 558 247 q 461 367 506 332 q 342 447 416 402 q 209 536 259 496 q 126 630 159 575 q 94 758 94 684 q 130 891 94 837 q 225 972 165 945 q 355 999 284 999 q 429 992 398 999 q 480 974 460 985 q 525 947 500 964 q 572 928 556 928 q 592 942 585 928 q 603 989 599 957 l 635 989 q 628 705 628 907 l 596 705 q 565 837 591 777 q 491 935 540 897 q 368 972 441 972 q 281 952 319 972 q 220 895 242 932 q 199 811 199 859 q 223 720 199 758 q 284 652 247 681 q 391 582 322 624 l 432 557 q 570 461 519 502 q 652 368 621 421 q 682 244 682 315 z "},"Ŝ":{"ha":750,"x_min":87,"x_max":682,"o":"m 87 0 m 355 999 q 429 992 398 999 q 480 974 460 985 q 525 947 500 964 q 572 928 556 928 q 592 942 585 928 q 603 989 599 957 l 635 989 q 628 705 628 907 l 596 705 q 565 837 591 777 q 491 935 540 897 q 368 972 441 972 q 281 952 319 972 q 220 895 242 932 q 199 811 199 859 q 223 720 199 758 q 284 652 247 681 q 391 582 322 624 l 432 557 q 570 461 519 502 q 652 368 621 421 q 682 244 682 315 q 643 99 682 159 q 537 10 604 40 q 387 -20 470 -20 q 278 -6 321 -20 q 197 32 235 8 q 150 52 166 52 q 130 37 137 52 q 119 -9 123 22 l 87 -9 q 93 323 93 66 l 125 323 q 194 95 134 182 q 378 8 254 8 q 466 28 425 8 q 533 89 507 47 q 558 193 558 131 q 532 289 558 247 q 461 367 506 332 q 342 447 416 402 q 209 536 259 496 q 126 630 159 575 q 94 758 94 684 q 130 891 94 837 q 225 972 165 945 q 355 999 284 999 m 395 1272 q 496 1169 427 1218 q 654 1089 565 1120 l 647 1069 q 482 1114 563 1087 q 354 1166 401 1141 q 249 1114 315 1141 q 117 1069 184 1087 l 110 1089 q 268 1169 199 1120 q 370 1272 336 1218 l 395 1272 z "},"Ș":{"ha":750,"x_min":87,"x_max":682,"o":"m 87 0 m 355 999 q 429 992 398 999 q 480 974 460 985 q 525 947 500 964 q 572 928 556 928 q 592 942 585 928 q 603 989 599 957 l 635 989 q 628 705 628 907 l 596 705 q 565 837 591 777 q 491 935 540 897 q 368 972 441 972 q 281 952 319 972 q 220 895 242 932 q 199 811 199 859 q 223 720 199 758 q 284 652 247 681 q 391 582 322 624 l 432 557 q 570 461 519 502 q 652 368 621 421 q 682 244 682 315 q 643 99 682 159 q 537 10 604 40 q 387 -20 470 -20 q 278 -6 321 -20 q 197 32 235 8 q 150 52 166 52 q 130 37 137 52 q 119 -9 123 22 l 87 -9 q 93 323 93 66 l 125 323 q 194 95 134 182 q 378 8 254 8 q 466 28 425 8 q 533 89 507 47 q 558 193 558 131 q 532 289 558 247 q 461 367 506 332 q 342 447 416 402 q 209 536 259 496 q 126 630 159 575 q 94 758 94 684 q 130 891 94 837 q 225 972 165 945 q 355 999 284 999 m 389 -96 q 454 -124 429 -96 q 479 -193 479 -152 q 455 -278 479 -245 q 366 -335 430 -311 l 356 -310 q 417 -276 392 -299 q 442 -222 442 -253 q 384 -244 417 -244 q 332 -224 352 -244 q 311 -170 311 -205 q 334 -117 311 -138 q 389 -96 357 -96 z "},"ẞ":{"ha":946,"x_min":22,"x_max":892,"o":"m 511 1003 q 668 978 597 1003 q 802 904 739 954 l 591 572 q 746 512 677 554 q 853 408 814 470 q 892 269 892 346 q 850 124 892 191 q 729 19 808 58 q 547 -20 651 -20 q 415 5 469 -20 q 347 102 347 39 q 368 154 347 134 q 421 175 389 175 q 476 155 454 175 q 497 100 497 134 q 481 53 497 71 q 439 29 466 35 q 483 12 453 17 q 541 7 513 7 q 657 44 609 7 q 729 142 705 81 q 753 273 753 203 q 717 425 753 360 q 617 530 682 490 q 467 582 553 569 l 685 937 q 615 967 659 957 q 526 978 571 978 q 337 896 410 978 q 264 616 264 814 l 264 147 q 270 74 264 98 q 292 39 276 50 q 340 28 308 28 l 340 0 q 289 1 326 0 q 182 4 237 4 q 22 0 81 4 l 22 28 q 95 39 73 30 q 126 71 118 47 q 135 147 135 95 l 135 532 q 511 1003 135 1003 z "},"T":{"ha":863,"x_min":40,"x_max":822,"o":"m 822 983 q 812 806 812 884 q 817 692 812 736 l 785 692 q 757 851 774 800 q 699 927 741 903 q 571 951 657 951 l 496 951 l 496 161 q 507 77 496 104 q 546 40 517 50 q 636 28 574 30 l 636 0 q 432 4 563 4 q 227 0 293 4 l 227 28 q 317 40 288 30 q 356 77 345 50 q 367 161 367 104 l 367 951 l 292 951 q 164 927 205 951 q 105 851 122 903 q 78 692 89 800 l 46 692 q 50 806 50 736 q 40 983 50 887 q 432 979 155 979 q 822 983 707 979 z "},"Ŧ":{"ha":871,"x_min":43,"x_max":825,"o":"m 825 983 q 815 806 815 884 q 819 692 815 736 l 787 692 q 760 851 777 800 q 702 927 743 903 q 574 951 660 951 l 498 951 l 498 509 l 721 509 l 721 481 l 498 481 l 498 161 q 509 77 498 104 q 549 40 520 50 q 639 28 577 30 l 639 0 q 435 4 566 4 q 229 0 296 4 l 229 28 q 319 40 291 30 q 359 77 348 50 q 370 161 370 104 l 370 481 l 146 481 l 146 509 l 370 509 l 370 951 l 294 951 q 166 927 208 951 q 108 851 125 903 q 81 692 92 800 l 49 692 q 53 806 53 736 q 43 983 53 887 q 435 979 158 979 q 825 983 709 979 z "},"Ť":{"ha":863,"x_min":40,"x_max":822,"o":"m 40 0 m 822 983 q 812 806 812 884 q 817 692 812 736 l 785 692 q 757 851 774 800 q 699 927 741 903 q 571 951 657 951 l 496 951 l 496 161 q 507 77 496 104 q 546 40 517 50 q 636 28 574 30 l 636 0 q 432 4 563 4 q 227 0 293 4 l 227 28 q 317 40 288 30 q 356 77 345 50 q 367 161 367 104 l 367 951 l 292 951 q 164 927 205 951 q 105 851 122 903 q 78 692 89 800 l 46 692 q 50 806 50 736 q 40 983 50 887 q 432 979 155 979 q 822 983 707 979 m 701 1267 q 542 1186 611 1236 q 441 1083 473 1137 l 416 1083 q 314 1186 382 1137 q 156 1267 245 1236 l 163 1286 q 327 1242 245 1269 q 456 1189 408 1215 q 561 1242 496 1215 q 693 1286 627 1269 l 701 1267 z "},"Ţ":{"ha":863,"x_min":40,"x_max":822,"o":"m 822 983 q 812 806 812 884 q 817 692 812 736 l 785 692 q 757 851 774 800 q 699 927 741 903 q 571 951 657 951 l 496 951 l 496 161 q 507 77 496 104 q 546 40 517 50 q 636 28 574 30 l 636 0 q 447 4 568 4 l 411 -100 q 493 -90 452 -90 q 555 -107 532 -90 q 578 -155 578 -125 q 554 -216 578 -192 q 494 -250 530 -239 q 421 -261 458 -261 q 306 -245 350 -261 l 311 -221 q 364 -225 340 -225 q 452 -211 414 -225 q 489 -163 489 -196 q 431 -123 489 -123 q 363 -134 391 -123 l 409 4 q 227 0 287 4 l 227 28 q 317 40 288 30 q 356 77 345 50 q 367 161 367 104 l 367 951 l 292 951 q 164 927 205 951 q 105 851 122 903 q 78 692 89 800 l 46 692 q 50 806 50 736 q 40 983 50 887 q 432 979 155 979 q 822 983 707 979 z "},"Ț":{"ha":863,"x_min":40,"x_max":822,"o":"m 40 0 m 822 983 q 812 806 812 884 q 817 692 812 736 l 785 692 q 757 851 774 800 q 699 927 741 903 q 571 951 657 951 l 496 951 l 496 161 q 507 77 496 104 q 546 40 517 50 q 636 28 574 30 l 636 0 q 432 4 563 4 q 227 0 293 4 l 227 28 q 317 40 288 30 q 356 77 345 50 q 367 161 367 104 l 367 951 l 292 951 q 164 927 205 951 q 105 851 122 903 q 78 692 89 800 l 46 692 q 50 806 50 736 q 40 983 50 887 q 432 979 155 979 q 822 983 707 979 m 424 -96 q 489 -124 464 -96 q 514 -193 514 -152 q 489 -278 514 -245 q 400 -335 465 -311 l 391 -310 q 452 -276 427 -299 q 477 -222 477 -253 q 418 -244 452 -244 q 366 -224 387 -244 q 346 -170 346 -205 q 369 -117 346 -138 q 424 -96 391 -96 z "},"U":{"ha":947,"x_min":37,"x_max":909,"o":"m 909 956 q 838 942 861 954 q 806 903 814 930 q 798 822 798 876 l 798 404 q 784 233 798 304 q 741 110 771 161 q 638 15 705 50 q 486 -20 570 -20 q 253 56 334 -20 q 190 137 212 94 q 159 241 168 180 q 150 400 150 302 l 150 836 q 141 912 150 888 q 110 945 133 936 q 37 956 87 954 l 37 983 q 215 979 96 979 q 392 983 327 979 l 392 956 q 319 945 342 954 q 288 912 296 936 q 279 836 279 888 l 279 376 q 294 192 279 265 q 357 74 309 119 q 498 29 405 29 q 705 123 646 29 q 765 389 765 218 l 765 822 q 753 901 765 873 q 714 941 741 929 q 639 956 688 954 l 639 983 q 781 979 689 979 q 909 983 864 979 l 909 956 z "},"Ú":{"ha":947,"x_min":37,"x_max":909,"o":"m 37 0 m 909 956 q 838 942 861 954 q 806 903 814 930 q 798 822 798 876 l 798 404 q 784 233 798 304 q 741 110 771 161 q 638 15 705 50 q 486 -20 570 -20 q 253 56 334 -20 q 190 137 212 94 q 159 241 168 180 q 150 400 150 302 l 150 836 q 141 912 150 888 q 110 945 133 936 q 37 956 87 954 l 37 983 q 215 979 96 979 q 392 983 327 979 l 392 956 q 319 945 342 954 q 288 912 296 936 q 279 836 279 888 l 279 376 q 294 192 279 265 q 357 74 309 119 q 498 29 405 29 q 705 123 646 29 q 765 389 765 218 l 765 822 q 753 901 765 873 q 714 941 741 929 q 639 956 688 954 l 639 983 q 781 979 689 979 q 909 983 864 979 l 909 956 m 637 1286 q 680 1299 659 1299 q 722 1276 707 1299 q 730 1251 730 1263 q 693 1196 730 1220 q 594 1152 663 1177 q 414 1072 486 1108 l 404 1090 q 552 1215 466 1137 q 637 1286 610 1268 z "},"Ŭ":{"ha":947,"x_min":37,"x_max":909,"o":"m 37 0 m 909 956 q 838 942 861 954 q 806 903 814 930 q 798 822 798 876 l 798 404 q 784 233 798 304 q 741 110 771 161 q 638 15 705 50 q 486 -20 570 -20 q 253 56 334 -20 q 190 137 212 94 q 159 241 168 180 q 150 400 150 302 l 150 836 q 141 912 150 888 q 110 945 133 936 q 37 956 87 954 l 37 983 q 215 979 96 979 q 392 983 327 979 l 392 956 q 319 945 342 954 q 288 912 296 936 q 279 836 279 888 l 279 376 q 294 192 279 265 q 357 74 309 119 q 498 29 405 29 q 705 123 646 29 q 765 389 765 218 l 765 822 q 753 901 765 873 q 714 941 741 929 q 639 956 688 954 l 639 983 q 781 979 689 979 q 909 983 864 979 l 909 956 m 765 1247 q 655 1134 725 1181 q 489 1086 585 1086 q 323 1134 393 1086 q 212 1247 253 1181 l 231 1261 q 333 1198 269 1224 q 489 1173 397 1173 q 645 1199 580 1173 q 749 1263 710 1225 l 765 1247 z "},"Û":{"ha":947,"x_min":37,"x_max":909,"o":"m 37 0 m 909 956 q 838 942 861 954 q 806 903 814 930 q 798 822 798 876 l 798 404 q 784 233 798 304 q 741 110 771 161 q 638 15 705 50 q 486 -20 570 -20 q 253 56 334 -20 q 190 137 212 94 q 159 241 168 180 q 150 400 150 302 l 150 836 q 141 912 150 888 q 110 945 133 936 q 37 956 87 954 l 37 983 q 215 979 96 979 q 392 983 327 979 l 392 956 q 319 945 342 954 q 288 912 296 936 q 279 836 279 888 l 279 376 q 294 192 279 265 q 357 74 309 119 q 498 29 405 29 q 705 123 646 29 q 765 389 765 218 l 765 822 q 753 901 765 873 q 714 941 741 929 q 639 956 688 954 l 639 983 q 781 979 689 979 q 909 983 864 979 l 909 956 m 502 1272 q 603 1169 534 1218 q 762 1089 672 1120 l 754 1069 q 589 1114 670 1087 q 461 1166 509 1141 q 356 1114 422 1141 q 224 1069 291 1087 l 217 1089 q 375 1169 306 1120 q 477 1272 444 1218 l 502 1272 z "},"Ü":{"ha":947,"x_min":37,"x_max":909,"o":"m 37 0 m 909 956 q 838 942 861 954 q 806 903 814 930 q 798 822 798 876 l 798 404 q 784 233 798 304 q 741 110 771 161 q 638 15 705 50 q 486 -20 570 -20 q 253 56 334 -20 q 190 137 212 94 q 159 241 168 180 q 150 400 150 302 l 150 836 q 141 912 150 888 q 110 945 133 936 q 37 956 87 954 l 37 983 q 215 979 96 979 q 392 983 327 979 l 392 956 q 319 945 342 954 q 288 912 296 936 q 279 836 279 888 l 279 376 q 294 192 279 265 q 357 74 309 119 q 498 29 405 29 q 705 123 646 29 q 765 389 765 218 l 765 822 q 753 901 765 873 q 714 941 741 929 q 639 956 688 954 l 639 983 q 781 979 689 979 q 909 983 864 979 l 909 956 m 342 1234 q 381 1222 363 1234 q 411 1193 400 1211 q 422 1153 422 1174 q 411 1113 422 1131 q 381 1083 400 1094 q 342 1072 363 1072 q 285 1096 309 1072 q 261 1153 261 1120 q 272 1193 261 1174 q 301 1222 283 1211 q 342 1234 320 1234 m 636 1234 q 676 1222 657 1234 q 706 1193 694 1211 q 717 1153 717 1174 q 706 1113 717 1131 q 676 1083 694 1094 q 636 1072 658 1072 q 579 1096 603 1072 q 555 1153 555 1120 q 566 1193 555 1174 q 596 1222 577 1211 q 636 1234 614 1234 z "},"Ù":{"ha":947,"x_min":37,"x_max":909,"o":"m 37 0 m 909 956 q 838 942 861 954 q 806 903 814 930 q 798 822 798 876 l 798 404 q 784 233 798 304 q 741 110 771 161 q 638 15 705 50 q 486 -20 570 -20 q 253 56 334 -20 q 190 137 212 94 q 159 241 168 180 q 150 400 150 302 l 150 836 q 141 912 150 888 q 110 945 133 936 q 37 956 87 954 l 37 983 q 215 979 96 979 q 392 983 327 979 l 392 956 q 319 945 342 954 q 288 912 296 936 q 279 836 279 888 l 279 376 q 294 192 279 265 q 357 74 309 119 q 498 29 405 29 q 705 123 646 29 q 765 389 765 218 l 765 822 q 753 901 765 873 q 714 941 741 929 q 639 956 688 954 l 639 983 q 781 979 689 979 q 909 983 864 979 l 909 956 m 349 1286 q 434 1215 376 1268 q 582 1090 520 1137 l 572 1072 q 392 1152 500 1108 q 293 1196 323 1177 q 256 1251 256 1220 q 264 1276 256 1263 q 307 1299 279 1299 q 349 1286 328 1299 z "},"Ű":{"ha":947,"x_min":37,"x_max":909,"o":"m 37 0 m 909 956 q 838 942 861 954 q 806 903 814 930 q 798 822 798 876 l 798 404 q 784 233 798 304 q 741 110 771 161 q 638 15 705 50 q 486 -20 570 -20 q 253 56 334 -20 q 190 137 212 94 q 159 241 168 180 q 150 400 150 302 l 150 836 q 141 912 150 888 q 110 945 133 936 q 37 956 87 954 l 37 983 q 215 979 96 979 q 392 983 327 979 l 392 956 q 319 945 342 954 q 288 912 296 936 q 279 836 279 888 l 279 376 q 294 192 279 265 q 357 74 309 119 q 498 29 405 29 q 705 123 646 29 q 765 389 765 218 l 765 822 q 753 901 765 873 q 714 941 741 929 q 639 956 688 954 l 639 983 q 781 979 689 979 q 909 983 864 979 l 909 956 m 446 1280 q 492 1301 469 1301 q 530 1283 516 1301 q 543 1251 543 1269 q 514 1198 543 1223 q 410 1137 484 1174 q 296 1072 332 1097 l 283 1089 q 367 1190 320 1126 q 446 1280 418 1256 m 705 1280 q 752 1301 728 1301 q 790 1283 776 1301 q 803 1251 803 1269 q 774 1198 803 1223 q 670 1137 744 1174 q 555 1072 591 1097 l 543 1089 q 627 1190 580 1126 q 705 1280 677 1256 z "},"Ū":{"ha":947,"x_min":37,"x_max":909,"o":"m 37 0 m 909 956 q 838 942 861 954 q 806 903 814 930 q 798 822 798 876 l 798 404 q 784 233 798 304 q 741 110 771 161 q 638 15 705 50 q 486 -20 570 -20 q 253 56 334 -20 q 190 137 212 94 q 159 241 168 180 q 150 400 150 302 l 150 836 q 141 912 150 888 q 110 945 133 936 q 37 956 87 954 l 37 983 q 215 979 96 979 q 392 983 327 979 l 392 956 q 319 945 342 954 q 288 912 296 936 q 279 836 279 888 l 279 376 q 294 192 279 265 q 357 74 309 119 q 498 29 405 29 q 705 123 646 29 q 765 389 765 218 l 765 822 q 753 901 765 873 q 714 941 741 929 q 639 956 688 954 l 639 983 q 781 979 689 979 q 909 983 864 979 l 909 956 m 244 1137 l 244 1173 l 733 1173 l 733 1137 l 244 1137 z "},"Ų":{"ha":947,"x_min":37,"x_max":909,"o":"m 781 979 q 909 983 863 979 l 909 956 q 838 942 861 954 q 806 903 814 930 q 798 822 798 876 l 798 404 q 784 233 798 304 q 741 110 771 161 q 670 35 715 66 q 569 -10 626 3 q 492 -66 516 -33 q 468 -134 468 -99 q 484 -178 468 -161 q 528 -195 500 -195 q 575 -181 553 -195 q 612 -149 598 -168 l 633 -167 q 476 -261 571 -261 q 396 -236 427 -261 q 366 -171 366 -212 q 400 -87 366 -126 q 498 -20 434 -49 l 486 -20 q 253 56 334 -20 q 190 137 212 94 q 159 241 168 180 q 150 400 150 302 l 150 836 q 141 912 150 888 q 110 945 133 936 q 37 956 87 954 l 37 983 q 215 979 96 979 q 392 983 327 979 l 392 956 q 319 945 342 954 q 288 912 296 936 q 279 836 279 888 l 279 376 q 294 192 279 265 q 357 74 309 119 q 498 29 405 29 q 705 123 646 29 q 765 389 765 218 l 765 822 q 753 901 765 873 q 714 941 741 929 q 639 956 688 954 l 639 983 q 781 979 688 979 z "},"Ů":{"ha":947,"x_min":37,"x_max":909,"o":"m 37 0 m 909 956 q 838 942 861 954 q 806 903 814 930 q 798 822 798 876 l 798 404 q 784 233 798 304 q 741 110 771 161 q 638 15 705 50 q 486 -20 570 -20 q 253 56 334 -20 q 190 137 212 94 q 159 241 168 180 q 150 400 150 302 l 150 836 q 141 912 150 888 q 110 945 133 936 q 37 956 87 954 l 37 983 q 215 979 96 979 q 392 983 327 979 l 392 956 q 319 945 342 954 q 288 912 296 936 q 279 836 279 888 l 279 376 q 294 192 279 265 q 357 74 309 119 q 498 29 405 29 q 705 123 646 29 q 765 389 765 218 l 765 822 q 753 901 765 873 q 714 941 741 929 q 639 956 688 954 l 639 983 q 781 979 689 979 q 909 983 864 979 l 909 956 m 489 1368 q 556 1352 526 1368 q 606 1308 587 1337 q 624 1242 624 1279 q 606 1174 624 1203 q 556 1129 587 1145 q 489 1114 526 1114 q 423 1129 453 1114 q 374 1174 393 1145 q 356 1242 356 1203 q 374 1308 356 1279 q 423 1352 393 1337 q 489 1368 454 1368 m 489 1339 q 444 1327 466 1339 q 409 1293 422 1316 q 395 1240 395 1271 q 409 1187 395 1209 q 444 1154 422 1165 q 489 1143 466 1143 q 535 1154 513 1143 q 571 1187 557 1165 q 585 1240 585 1209 q 571 1293 585 1271 q 535 1327 557 1316 q 489 1339 513 1339 z "},"Ũ":{"ha":947,"x_min":37,"x_max":909,"o":"m 37 0 m 909 956 q 838 942 861 954 q 806 903 814 930 q 798 822 798 876 l 798 404 q 784 233 798 304 q 741 110 771 161 q 638 15 705 50 q 486 -20 570 -20 q 253 56 334 -20 q 190 137 212 94 q 159 241 168 180 q 150 400 150 302 l 150 836 q 141 912 150 888 q 110 945 133 936 q 37 956 87 954 l 37 983 q 215 979 96 979 q 392 983 327 979 l 392 956 q 319 945 342 954 q 288 912 296 936 q 279 836 279 888 l 279 376 q 294 192 279 265 q 357 74 309 119 q 498 29 405 29 q 705 123 646 29 q 765 389 765 218 l 765 822 q 753 901 765 873 q 714 941 741 929 q 639 956 688 954 l 639 983 q 781 979 689 979 q 909 983 864 979 l 909 956 m 376 1253 q 441 1239 411 1253 q 516 1198 472 1225 q 587 1159 559 1171 q 646 1146 614 1146 q 732 1223 711 1146 l 753 1219 q 727 1141 749 1175 q 672 1090 705 1108 q 599 1072 638 1072 q 533 1086 564 1072 q 460 1127 503 1100 q 390 1166 418 1154 q 330 1179 361 1179 q 243 1101 264 1179 l 222 1105 q 248 1183 227 1150 q 304 1235 270 1217 q 376 1253 338 1253 z "},"V":{"ha":875,"x_min":-8,"x_max":885,"o":"m 781 979 q 885 983 843 979 l 885 956 q 775 835 815 940 l 449 -7 l 437 -7 l 427 -7 l 87 867 q -8 956 54 953 l -8 983 q 140 979 48 979 q 318 983 260 979 l 318 956 q 242 943 265 954 q 220 904 220 932 q 236 839 220 881 l 488 172 l 714 758 q 742 871 742 830 q 712 935 742 916 q 621 956 682 954 l 621 983 q 781 979 700 979 z "},"W":{"ha":1257,"x_min":-9,"x_max":1260,"o":"m 1156 979 q 1260 983 1218 979 l 1260 956 q 1150 835 1183 939 l 888 -7 l 876 -7 l 865 -7 l 624 709 l 403 -7 l 392 -7 l 380 -7 l 86 867 q -9 956 56 952 l -9 983 q 139 979 46 979 q 289 983 239 979 l 289 956 q 237 942 252 953 q 221 907 221 931 q 236 839 221 885 l 439 220 l 608 758 l 571 867 q 489 956 543 953 l 489 983 q 624 979 539 979 q 802 983 743 979 l 802 956 q 747 950 766 954 q 717 937 728 947 q 707 906 707 926 q 721 839 707 883 l 920 221 l 1092 758 q 1114 870 1114 829 q 1086 935 1114 916 q 996 956 1058 954 l 996 983 q 1156 979 1075 979 z "},"Ẃ":{"ha":1257,"x_min":-9,"x_max":1260,"o":"m 0 0 m 1156 979 q 1260 983 1218 979 l 1260 956 q 1150 835 1183 939 l 888 -7 l 876 -7 l 865 -7 l 624 709 l 403 -7 l 392 -7 l 380 -7 l 86 867 q -9 956 56 952 l -9 983 q 139 979 46 979 q 289 983 239 979 l 289 956 q 237 942 252 953 q 221 907 221 931 q 236 839 221 885 l 439 220 l 608 758 l 571 867 q 489 956 543 953 l 489 983 q 624 979 539 979 q 802 983 743 979 l 802 956 q 747 950 766 954 q 717 937 728 947 q 707 906 707 926 q 721 839 707 883 l 920 221 l 1092 758 q 1114 870 1114 829 q 1086 935 1114 916 q 996 956 1058 954 l 996 983 q 1156 979 1075 979 m 793 1286 q 835 1299 814 1299 q 878 1276 862 1299 q 885 1251 885 1263 q 848 1196 885 1220 q 749 1152 818 1177 q 569 1072 641 1108 l 559 1090 q 707 1215 621 1137 q 793 1286 765 1268 z "},"Ŵ":{"ha":1257,"x_min":-9,"x_max":1260,"o":"m 0 0 m 1156 979 q 1260 983 1218 979 l 1260 956 q 1150 835 1183 939 l 888 -7 l 876 -7 l 865 -7 l 624 709 l 403 -7 l 392 -7 l 380 -7 l 86 867 q -9 956 56 952 l -9 983 q 139 979 46 979 q 289 983 239 979 l 289 956 q 237 942 252 953 q 221 907 221 931 q 236 839 221 885 l 439 220 l 608 758 l 571 867 q 489 956 543 953 l 489 983 q 624 979 539 979 q 802 983 743 979 l 802 956 q 747 950 766 954 q 717 937 728 947 q 707 906 707 926 q 721 839 707 883 l 920 221 l 1092 758 q 1114 870 1114 829 q 1086 935 1114 916 q 996 956 1058 954 l 996 983 q 1156 979 1075 979 m 657 1272 q 759 1169 690 1218 q 917 1089 827 1120 l 909 1069 q 745 1114 825 1087 q 616 1166 664 1141 q 512 1114 577 1141 q 379 1069 446 1087 l 372 1089 q 530 1169 461 1120 q 632 1272 599 1218 l 657 1272 z "},"Ẅ":{"ha":1257,"x_min":-9,"x_max":1260,"o":"m 0 0 m 1156 979 q 1260 983 1218 979 l 1260 956 q 1150 835 1183 939 l 888 -7 l 876 -7 l 865 -7 l 624 709 l 403 -7 l 392 -7 l 380 -7 l 86 867 q -9 956 56 952 l -9 983 q 139 979 46 979 q 289 983 239 979 l 289 956 q 237 942 252 953 q 221 907 221 931 q 236 839 221 885 l 439 220 l 608 758 l 571 867 q 489 956 543 953 l 489 983 q 624 979 539 979 q 802 983 743 979 l 802 956 q 747 950 766 954 q 717 937 728 947 q 707 906 707 926 q 721 839 707 883 l 920 221 l 1092 758 q 1114 870 1114 829 q 1086 935 1114 916 q 996 956 1058 954 l 996 983 q 1156 979 1075 979 m 497 1234 q 537 1222 518 1234 q 567 1193 555 1211 q 578 1153 578 1174 q 567 1113 578 1131 q 537 1083 555 1094 q 497 1072 518 1072 q 440 1096 464 1072 q 416 1153 416 1120 q 427 1193 416 1174 q 457 1222 438 1211 q 497 1234 475 1234 m 791 1234 q 831 1222 812 1234 q 861 1193 850 1211 q 872 1153 872 1174 q 861 1113 872 1131 q 831 1083 850 1094 q 791 1072 813 1072 q 734 1096 758 1072 q 711 1153 711 1120 q 722 1193 711 1174 q 751 1222 732 1211 q 791 1234 770 1234 z "},"Ẁ":{"ha":1257,"x_min":-9,"x_max":1260,"o":"m 0 0 m 1156 979 q 1260 983 1218 979 l 1260 956 q 1150 835 1183 939 l 888 -7 l 876 -7 l 865 -7 l 624 709 l 403 -7 l 392 -7 l 380 -7 l 86 867 q -9 956 56 952 l -9 983 q 139 979 46 979 q 289 983 239 979 l 289 956 q 237 942 252 953 q 221 907 221 931 q 236 839 221 885 l 439 220 l 608 758 l 571 867 q 489 956 543 953 l 489 983 q 624 979 539 979 q 802 983 743 979 l 802 956 q 747 950 766 954 q 717 937 728 947 q 707 906 707 926 q 721 839 707 883 l 920 221 l 1092 758 q 1114 870 1114 829 q 1086 935 1114 916 q 996 956 1058 954 l 996 983 q 1156 979 1075 979 m 504 1286 q 589 1215 532 1268 q 737 1090 675 1137 l 728 1072 q 547 1152 656 1108 q 448 1196 479 1177 q 412 1251 412 1220 q 419 1276 412 1263 q 462 1299 435 1299 q 504 1286 483 1299 z "},"X":{"ha":880,"x_min":22,"x_max":871,"o":"m 778 98 q 808 57 795 71 q 836 37 821 43 q 871 29 850 31 l 871 0 q 852 1 867 0 q 751 5 775 5 q 581 1 680 5 l 555 0 l 555 29 q 632 34 610 29 q 654 52 654 39 q 644 77 654 62 l 407 440 l 257 216 q 204 94 204 138 q 236 44 204 59 q 328 28 267 29 l 328 0 q 140 4 249 4 q 22 0 64 4 l 22 28 q 101 65 64 34 q 179 155 139 96 l 389 468 l 117 885 q 86 927 99 913 q 59 947 73 941 q 24 954 45 953 l 24 983 q 42 982 27 983 q 143 978 119 978 q 339 983 236 978 l 339 954 q 246 924 246 954 q 258 893 246 913 l 475 562 l 611 766 q 671 900 671 857 q 645 942 671 929 q 564 956 618 954 l 564 983 q 724 979 643 979 q 842 983 800 979 l 842 956 q 762 918 800 949 q 685 828 724 886 l 490 538 l 778 98 z "},"Y":{"ha":821,"x_min":-4,"x_max":817,"o":"m 713 979 q 817 983 775 979 l 817 956 q 762 921 789 949 q 705 832 736 892 l 488 400 l 488 147 q 496 71 488 95 q 527 39 505 47 q 600 28 550 30 l 600 0 q 424 4 535 4 q 245 0 304 4 l 245 28 q 318 39 296 30 q 350 71 341 47 q 358 147 358 95 l 358 357 l 77 876 q 32 939 51 923 q -4 954 14 954 l -4 983 q 118 979 50 979 q 313 983 253 979 l 313 954 q 215 901 215 954 q 229 852 215 880 l 460 410 l 637 762 q 675 882 675 839 q 645 938 675 921 q 553 956 614 954 l 553 983 q 713 979 632 979 z "},"Ý":{"ha":821,"x_min":-4,"x_max":817,"o":"m 0 0 m 713 979 q 817 983 775 979 l 817 956 q 762 921 789 949 q 705 832 736 892 l 488 400 l 488 147 q 496 71 488 95 q 527 39 505 47 q 600 28 550 30 l 600 0 q 424 4 535 4 q 245 0 304 4 l 245 28 q 318 39 296 30 q 350 71 341 47 q 358 147 358 95 l 358 357 l 77 876 q 32 939 51 923 q -4 954 14 954 l -4 983 q 118 979 50 979 q 313 983 253 979 l 313 954 q 215 901 215 954 q 229 852 215 880 l 460 410 l 637 762 q 675 882 675 839 q 645 938 675 921 q 553 956 614 954 l 553 983 q 713 979 632 979 m 571 1286 q 613 1299 592 1299 q 656 1276 640 1299 q 663 1251 663 1263 q 627 1196 663 1220 q 528 1152 596 1177 q 347 1072 419 1108 l 338 1090 q 486 1215 399 1137 q 571 1286 543 1268 z "},"Ŷ":{"ha":821,"x_min":-4,"x_max":817,"o":"m 0 0 m 713 979 q 817 983 775 979 l 817 956 q 762 921 789 949 q 705 832 736 892 l 488 400 l 488 147 q 496 71 488 95 q 527 39 505 47 q 600 28 550 30 l 600 0 q 424 4 535 4 q 245 0 304 4 l 245 28 q 318 39 296 30 q 350 71 341 47 q 358 147 358 95 l 358 357 l 77 876 q 32 939 51 923 q -4 954 14 954 l -4 983 q 118 979 50 979 q 313 983 253 979 l 313 954 q 215 901 215 954 q 229 852 215 880 l 460 410 l 637 762 q 675 882 675 839 q 645 938 675 921 q 553 956 614 954 l 553 983 q 713 979 632 979 m 435 1272 q 537 1169 468 1218 q 695 1089 606 1120 l 688 1069 q 523 1114 604 1087 q 395 1166 442 1141 q 290 1114 355 1141 q 157 1069 224 1087 l 151 1089 q 308 1169 239 1120 q 410 1272 377 1218 l 435 1272 z "},"Ÿ":{"ha":821,"x_min":-4,"x_max":817,"o":"m 0 0 m 713 979 q 817 983 775 979 l 817 956 q 762 921 789 949 q 705 832 736 892 l 488 400 l 488 147 q 496 71 488 95 q 527 39 505 47 q 600 28 550 30 l 600 0 q 424 4 535 4 q 245 0 304 4 l 245 28 q 318 39 296 30 q 350 71 341 47 q 358 147 358 95 l 358 357 l 77 876 q 32 939 51 923 q -4 954 14 954 l -4 983 q 118 979 50 979 q 313 983 253 979 l 313 954 q 215 901 215 954 q 229 852 215 880 l 460 410 l 637 762 q 675 882 675 839 q 645 938 675 921 q 553 956 614 954 l 553 983 q 713 979 632 979 m 275 1234 q 315 1222 296 1234 q 345 1193 334 1211 q 356 1153 356 1174 q 345 1113 356 1131 q 315 1083 334 1094 q 275 1072 296 1072 q 218 1096 242 1072 q 195 1153 195 1120 q 205 1193 195 1174 q 235 1222 216 1211 q 275 1234 254 1234 m 570 1234 q 609 1222 591 1234 q 639 1193 628 1211 q 650 1153 650 1174 q 639 1113 650 1131 q 610 1083 628 1094 q 570 1072 591 1072 q 513 1096 536 1072 q 489 1153 489 1120 q 500 1193 489 1174 q 529 1222 511 1211 q 570 1234 548 1234 z "},"Ỳ":{"ha":821,"x_min":-4,"x_max":817,"o":"m 0 0 m 713 979 q 817 983 775 979 l 817 956 q 762 921 789 949 q 705 832 736 892 l 488 400 l 488 147 q 496 71 488 95 q 527 39 505 47 q 600 28 550 30 l 600 0 q 424 4 535 4 q 245 0 304 4 l 245 28 q 318 39 296 30 q 350 71 341 47 q 358 147 358 95 l 358 357 l 77 876 q 32 939 51 923 q -4 954 14 954 l -4 983 q 118 979 50 979 q 313 983 253 979 l 313 954 q 215 901 215 954 q 229 852 215 880 l 460 410 l 637 762 q 675 882 675 839 q 645 938 675 921 q 553 956 614 954 l 553 983 q 713 979 632 979 m 282 1286 q 368 1215 310 1268 q 515 1090 454 1137 l 506 1072 q 326 1152 434 1108 q 227 1196 257 1177 q 190 1251 190 1220 q 197 1276 190 1263 q 240 1299 213 1299 q 282 1286 261 1299 z "},"Z":{"ha":825,"x_min":58,"x_max":764,"o":"m 189 32 l 482 32 q 614 56 569 32 q 679 134 659 81 q 710 292 699 188 l 742 292 q 737 178 737 241 q 747 0 737 106 q 401 4 644 4 q 58 0 164 4 l 58 28 l 637 951 l 346 951 q 214 927 259 951 q 149 849 169 903 q 118 692 129 795 l 86 692 q 90 806 90 736 q 81 983 90 884 q 427 979 183 979 q 764 983 663 979 l 764 956 l 189 32 z "},"Ź":{"ha":825,"x_min":58,"x_max":764,"o":"m 58 0 m 189 32 l 482 32 q 614 56 569 32 q 679 134 659 81 q 710 292 699 188 l 742 292 q 737 178 737 241 q 747 0 737 106 q 401 4 644 4 q 58 0 164 4 l 58 28 l 637 951 l 346 951 q 214 927 259 951 q 149 849 169 903 q 118 692 129 795 l 86 692 q 90 806 90 736 q 81 983 90 884 q 427 979 183 979 q 764 983 663 979 l 764 956 l 189 32 m 558 1286 q 600 1299 579 1299 q 643 1276 627 1299 q 650 1251 650 1263 q 614 1196 650 1220 q 515 1152 583 1177 q 334 1072 406 1108 l 325 1090 q 473 1215 387 1137 q 558 1286 530 1268 z "},"Ž":{"ha":825,"x_min":58,"x_max":764,"o":"m 58 0 m 189 32 l 482 32 q 614 56 569 32 q 679 134 659 81 q 710 292 699 188 l 742 292 q 737 178 737 241 q 747 0 737 106 q 401 4 644 4 q 58 0 164 4 l 58 28 l 637 951 l 346 951 q 214 927 259 951 q 149 849 169 903 q 118 692 129 795 l 86 692 q 90 806 90 736 q 81 983 90 884 q 427 979 183 979 q 764 983 663 979 l 764 956 l 189 32 m 678 1267 q 520 1186 589 1236 q 418 1083 451 1137 l 393 1083 q 291 1186 360 1137 q 134 1267 222 1236 l 140 1286 q 304 1242 223 1269 q 433 1189 385 1215 q 539 1242 473 1215 q 671 1286 604 1269 l 678 1267 z "},"Ż":{"ha":825,"x_min":58,"x_max":764,"o":"m 58 0 m 189 32 l 482 32 q 614 56 569 32 q 679 134 659 81 q 710 292 699 188 l 742 292 q 737 178 737 241 q 747 0 737 106 q 401 4 644 4 q 58 0 164 4 l 58 28 l 637 951 l 346 951 q 214 927 259 951 q 149 849 169 903 q 118 692 129 795 l 86 692 q 90 806 90 736 q 81 983 90 884 q 427 979 183 979 q 764 983 663 979 l 764 956 l 189 32 m 410 1332 q 454 1320 433 1332 q 486 1287 474 1308 q 498 1243 498 1267 q 486 1199 498 1219 q 454 1166 474 1178 q 410 1154 433 1154 q 365 1166 386 1154 q 333 1199 345 1178 q 321 1243 321 1219 q 333 1287 321 1267 q 365 1320 345 1308 q 410 1332 386 1332 z "},"a":{"ha":692,"x_min":54,"x_max":690,"o":"m 346 734 q 446 721 403 734 q 514 682 490 707 q 558 607 546 650 q 570 488 570 564 l 570 102 q 579 52 570 67 q 612 36 589 36 q 644 43 629 36 q 675 65 658 51 l 690 41 q 650 13 666 23 q 612 -3 633 3 q 564 -9 591 -9 q 470 24 496 -9 q 444 114 444 58 q 347 19 404 47 q 231 -9 290 -9 q 142 7 182 -9 q 78 59 102 24 q 54 146 54 94 q 80 236 54 199 q 153 301 106 273 q 278 363 199 330 l 305 374 q 383 408 355 394 q 427 439 410 421 q 444 481 444 457 l 444 567 q 411 677 444 648 q 315 707 377 707 q 178 657 217 707 q 224 628 205 650 q 243 572 243 605 q 221 517 243 537 q 161 497 199 497 q 106 521 126 497 q 86 583 86 545 q 151 682 86 637 q 235 720 185 705 q 346 734 285 734 m 444 424 q 410 395 434 408 q 311 345 387 381 q 243 306 271 326 q 196 252 216 286 q 176 168 176 218 q 207 77 176 108 q 288 46 237 46 q 444 151 380 46 l 444 424 z "},"á":{"ha":692,"x_min":54,"x_max":690,"o":"m 54 0 m 346 734 q 446 721 403 734 q 514 682 490 707 q 558 607 546 650 q 570 488 570 564 l 570 102 q 579 52 570 67 q 612 36 589 36 q 644 43 629 36 q 675 65 658 51 l 690 41 q 650 13 666 23 q 612 -3 633 3 q 564 -9 591 -9 q 470 24 496 -9 q 444 114 444 58 q 347 19 404 47 q 231 -9 290 -9 q 142 7 182 -9 q 78 59 102 24 q 54 146 54 94 q 80 236 54 199 q 153 301 106 273 q 278 363 199 330 l 305 374 q 383 408 355 394 q 427 439 410 421 q 444 481 444 457 l 444 567 q 411 677 444 648 q 315 707 377 707 q 178 657 217 707 q 224 628 205 650 q 243 572 243 605 q 221 517 243 537 q 161 497 199 497 q 106 521 126 497 q 86 583 86 545 q 151 682 86 637 q 235 720 185 705 q 346 734 285 734 m 444 424 q 410 395 434 408 q 311 345 387 381 q 243 306 271 326 q 196 252 216 286 q 176 168 176 218 q 207 77 176 108 q 288 46 237 46 q 444 151 380 46 l 444 424 m 490 1129 q 509 1090 509 1114 q 490 1043 509 1068 q 411 966 471 1018 q 271 832 323 887 l 256 844 q 351 1013 300 914 q 407 1108 389 1084 q 460 1139 431 1139 q 490 1129 477 1139 z "},"ă":{"ha":692,"x_min":54,"x_max":690,"o":"m 54 0 m 346 734 q 446 721 403 734 q 514 682 490 707 q 558 607 546 650 q 570 488 570 564 l 570 102 q 579 52 570 67 q 612 36 589 36 q 644 43 629 36 q 675 65 658 51 l 690 41 q 650 13 666 23 q 612 -3 633 3 q 564 -9 591 -9 q 470 24 496 -9 q 444 114 444 58 q 347 19 404 47 q 231 -9 290 -9 q 142 7 182 -9 q 78 59 102 24 q 54 146 54 94 q 80 236 54 199 q 153 301 106 273 q 278 363 199 330 l 305 374 q 383 408 355 394 q 427 439 410 421 q 444 481 444 457 l 444 567 q 411 677 444 648 q 315 707 377 707 q 178 657 217 707 q 224 628 205 650 q 243 572 243 605 q 221 517 243 537 q 161 497 199 497 q 106 521 126 497 q 86 583 86 545 q 151 682 86 637 q 235 720 185 705 q 346 734 285 734 m 444 424 q 410 395 434 408 q 311 345 387 381 q 243 306 271 326 q 196 252 216 286 q 176 168 176 218 q 207 77 176 108 q 288 46 237 46 q 444 151 380 46 l 444 424 m 589 1082 q 491 939 555 999 q 340 879 428 879 q 190 939 254 879 q 92 1082 127 999 l 115 1095 q 340 961 197 961 q 477 999 422 961 q 566 1095 532 1038 l 589 1082 z "},"â":{"ha":692,"x_min":54,"x_max":690,"o":"m 54 0 m 346 734 q 446 721 403 734 q 514 682 490 707 q 558 607 546 650 q 570 488 570 564 l 570 102 q 579 52 570 67 q 612 36 589 36 q 644 43 629 36 q 675 65 658 51 l 690 41 q 650 13 666 23 q 612 -3 633 3 q 564 -9 591 -9 q 470 24 496 -9 q 444 114 444 58 q 347 19 404 47 q 231 -9 290 -9 q 142 7 182 -9 q 78 59 102 24 q 54 146 54 94 q 80 236 54 199 q 153 301 106 273 q 278 363 199 330 l 305 374 q 383 408 355 394 q 427 439 410 421 q 444 481 444 457 l 444 567 q 411 677 444 648 q 315 707 377 707 q 178 657 217 707 q 224 628 205 650 q 243 572 243 605 q 221 517 243 537 q 161 497 199 497 q 106 521 126 497 q 86 583 86 545 q 151 682 86 637 q 235 720 185 705 q 346 734 285 734 m 444 424 q 410 395 434 408 q 311 345 387 381 q 243 306 271 326 q 196 252 216 286 q 176 168 176 218 q 207 77 176 108 q 288 46 237 46 q 444 151 380 46 l 444 424 m 354 1114 q 445 979 382 1043 q 586 875 507 914 l 575 856 q 429 919 500 882 q 314 994 357 957 q 223 919 279 957 q 109 856 167 882 l 97 875 q 238 979 176 914 q 329 1114 300 1043 l 354 1114 z "},"ä":{"ha":692,"x_min":54,"x_max":690,"o":"m 54 0 m 346 734 q 446 721 403 734 q 514 682 490 707 q 558 607 546 650 q 570 488 570 564 l 570 102 q 579 52 570 67 q 612 36 589 36 q 644 43 629 36 q 675 65 658 51 l 690 41 q 650 13 666 23 q 612 -3 633 3 q 564 -9 591 -9 q 470 24 496 -9 q 444 114 444 58 q 347 19 404 47 q 231 -9 290 -9 q 142 7 182 -9 q 78 59 102 24 q 54 146 54 94 q 80 236 54 199 q 153 301 106 273 q 278 363 199 330 l 305 374 q 383 408 355 394 q 427 439 410 421 q 444 481 444 457 l 444 567 q 411 677 444 648 q 315 707 377 707 q 178 657 217 707 q 224 628 205 650 q 243 572 243 605 q 221 517 243 537 q 161 497 199 497 q 106 521 126 497 q 86 583 86 545 q 151 682 86 637 q 235 720 185 705 q 346 734 285 734 m 444 424 q 410 395 434 408 q 311 345 387 381 q 243 306 271 326 q 196 252 216 286 q 176 168 176 218 q 207 77 176 108 q 288 46 237 46 q 444 151 380 46 l 444 424 m 196 1032 q 236 1021 217 1032 q 266 991 254 1010 q 277 951 277 972 q 266 911 277 930 q 236 882 254 892 q 196 871 218 871 q 139 895 163 871 q 115 951 115 918 q 126 991 115 972 q 156 1021 137 1010 q 196 1032 174 1032 m 490 1032 q 530 1021 511 1032 q 560 991 549 1010 q 571 951 571 972 q 560 911 571 930 q 530 882 549 892 q 490 871 512 871 q 434 895 457 871 q 410 951 410 918 q 421 991 410 972 q 450 1021 432 1010 q 490 1032 469 1032 z "},"à":{"ha":692,"x_min":54,"x_max":690,"o":"m 54 0 m 346 734 q 446 721 403 734 q 514 682 490 707 q 558 607 546 650 q 570 488 570 564 l 570 102 q 579 52 570 67 q 612 36 589 36 q 644 43 629 36 q 675 65 658 51 l 690 41 q 650 13 666 23 q 612 -3 633 3 q 564 -9 591 -9 q 470 24 496 -9 q 444 114 444 58 q 347 19 404 47 q 231 -9 290 -9 q 142 7 182 -9 q 78 59 102 24 q 54 146 54 94 q 80 236 54 199 q 153 301 106 273 q 278 363 199 330 l 305 374 q 383 408 355 394 q 427 439 410 421 q 444 481 444 457 l 444 567 q 411 677 444 648 q 315 707 377 707 q 178 657 217 707 q 224 628 205 650 q 243 572 243 605 q 221 517 243 537 q 161 497 199 497 q 106 521 126 497 q 86 583 86 545 q 151 682 86 637 q 235 720 185 705 q 346 734 285 734 m 444 424 q 410 395 434 408 q 311 345 387 381 q 243 306 271 326 q 196 252 216 286 q 176 168 176 218 q 207 77 176 108 q 288 46 237 46 q 444 151 380 46 l 444 424 m 171 1129 q 201 1139 184 1139 q 254 1108 231 1139 q 310 1013 273 1084 q 406 844 361 914 l 390 832 q 250 965 330 896 q 171 1043 193 1016 q 152 1090 152 1068 q 171 1129 152 1114 z "},"ā":{"ha":692,"x_min":54,"x_max":690,"o":"m 54 0 m 346 734 q 446 721 403 734 q 514 682 490 707 q 558 607 546 650 q 570 488 570 564 l 570 102 q 579 52 570 67 q 612 36 589 36 q 644 43 629 36 q 675 65 658 51 l 690 41 q 650 13 666 23 q 612 -3 633 3 q 564 -9 591 -9 q 470 24 496 -9 q 444 114 444 58 q 347 19 404 47 q 231 -9 290 -9 q 142 7 182 -9 q 78 59 102 24 q 54 146 54 94 q 80 236 54 199 q 153 301 106 273 q 278 363 199 330 l 305 374 q 383 408 355 394 q 427 439 410 421 q 444 481 444 457 l 444 567 q 411 677 444 648 q 315 707 377 707 q 178 657 217 707 q 224 628 205 650 q 243 572 243 605 q 221 517 243 537 q 161 497 199 497 q 106 521 126 497 q 86 583 86 545 q 151 682 86 637 q 235 720 185 705 q 346 734 285 734 m 444 424 q 410 395 434 408 q 311 345 387 381 q 243 306 271 326 q 196 252 216 286 q 176 168 176 218 q 207 77 176 108 q 288 46 237 46 q 444 151 380 46 l 444 424 m 121 954 l 121 989 l 554 989 l 554 954 l 121 954 z "},"ą":{"ha":692,"x_min":54,"x_max":690,"o":"m 556 -195 q 604 -181 581 -195 q 641 -149 627 -168 l 661 -167 q 505 -261 600 -261 q 425 -236 455 -261 q 395 -171 395 -212 q 435 -81 395 -122 q 550 -9 475 -39 q 444 114 444 -3 q 347 19 404 47 q 231 -9 290 -9 q 142 7 182 -9 q 78 59 102 24 q 54 146 54 94 q 80 236 54 199 q 153 301 106 273 q 278 363 199 330 l 305 374 q 383 408 355 394 q 427 439 410 421 q 444 481 444 457 l 444 567 q 411 677 444 648 q 315 707 377 707 q 178 657 217 707 q 224 628 205 650 q 243 572 243 605 q 221 517 243 537 q 161 497 199 497 q 106 521 126 497 q 86 583 86 545 q 151 682 86 637 q 235 720 185 705 q 346 734 285 734 q 446 721 403 734 q 514 682 490 707 q 558 607 546 650 q 570 488 570 564 l 570 102 q 579 52 570 67 q 612 36 589 36 q 644 43 629 36 q 675 65 658 51 l 690 41 q 629 3 652 12 q 617 -3 627 1 q 496 -134 496 -54 q 512 -178 496 -161 q 556 -195 528 -195 m 444 424 q 410 395 434 408 q 311 345 387 381 q 243 306 271 326 q 196 252 216 286 q 176 168 176 218 q 207 77 176 108 q 288 46 237 46 q 444 151 380 46 l 444 424 z "},"å":{"ha":692,"x_min":54,"x_max":690,"o":"m 54 0 m 346 734 q 446 721 403 734 q 514 682 490 707 q 558 607 546 650 q 570 488 570 564 l 570 102 q 579 52 570 67 q 612 36 589 36 q 644 43 629 36 q 675 65 658 51 l 690 41 q 650 13 666 23 q 612 -3 633 3 q 564 -9 591 -9 q 470 24 496 -9 q 444 114 444 58 q 347 19 404 47 q 231 -9 290 -9 q 142 7 182 -9 q 78 59 102 24 q 54 146 54 94 q 80 236 54 199 q 153 301 106 273 q 278 363 199 330 l 305 374 q 383 408 355 394 q 427 439 410 421 q 444 481 444 457 l 444 567 q 411 677 444 648 q 315 707 377 707 q 178 657 217 707 q 224 628 205 650 q 243 572 243 605 q 221 517 243 537 q 161 497 199 497 q 106 521 126 497 q 86 583 86 545 q 151 682 86 637 q 235 720 185 705 q 346 734 285 734 m 444 424 q 410 395 434 408 q 311 345 387 381 q 243 306 271 326 q 196 252 216 286 q 176 168 176 218 q 207 77 176 108 q 288 46 237 46 q 444 151 380 46 l 444 424 m 342 1099 q 409 1083 378 1099 q 458 1039 440 1067 q 477 972 477 1010 q 458 905 477 934 q 409 860 440 876 q 342 844 378 844 q 276 860 306 844 q 227 905 245 876 q 209 972 209 934 q 227 1039 209 1010 q 276 1083 245 1067 q 342 1099 307 1099 m 342 1069 q 297 1058 319 1069 q 261 1024 275 1046 q 248 971 248 1002 q 261 918 248 940 q 297 885 275 896 q 342 873 319 873 q 388 885 366 873 q 424 918 410 896 q 438 971 438 940 q 424 1024 438 1002 q 388 1058 410 1046 q 342 1069 366 1069 z "},"ã":{"ha":692,"x_min":54,"x_max":690,"o":"m 54 0 m 346 734 q 446 721 403 734 q 514 682 490 707 q 558 607 546 650 q 570 488 570 564 l 570 102 q 579 52 570 67 q 612 36 589 36 q 644 43 629 36 q 675 65 658 51 l 690 41 q 650 13 666 23 q 612 -3 633 3 q 564 -9 591 -9 q 470 24 496 -9 q 444 114 444 58 q 347 19 404 47 q 231 -9 290 -9 q 142 7 182 -9 q 78 59 102 24 q 54 146 54 94 q 80 236 54 199 q 153 301 106 273 q 278 363 199 330 l 305 374 q 383 408 355 394 q 427 439 410 421 q 444 481 444 457 l 444 567 q 411 677 444 648 q 315 707 377 707 q 178 657 217 707 q 224 628 205 650 q 243 572 243 605 q 221 517 243 537 q 161 497 199 497 q 106 521 126 497 q 86 583 86 545 q 151 682 86 637 q 235 720 185 705 q 346 734 285 734 m 444 424 q 410 395 434 408 q 311 345 387 381 q 243 306 271 326 q 196 252 216 286 q 176 168 176 218 q 207 77 176 108 q 288 46 237 46 q 444 151 380 46 l 444 424 m 239 1067 q 299 1054 274 1067 q 356 1017 325 1042 q 403 986 383 996 q 449 975 423 975 q 556 1048 512 975 l 576 1039 q 511 931 555 966 q 412 896 467 896 q 350 909 376 896 q 293 947 323 922 q 245 979 264 968 q 201 989 226 989 q 94 914 139 989 l 74 924 q 139 1032 95 997 q 239 1067 182 1067 z "},"æ":{"ha":1031,"x_min":57,"x_max":971,"o":"m 758 39 q 860 71 816 39 q 935 178 904 103 l 962 167 q 916 76 947 118 q 837 7 884 33 q 730 -20 789 -20 q 570 26 635 -20 q 473 158 505 72 q 235 -20 395 -20 q 148 -4 188 -20 q 82 46 107 12 q 57 134 57 81 q 83 230 57 190 q 154 300 109 271 q 273 361 200 329 l 301 373 q 381 410 354 396 q 424 440 408 423 q 440 481 440 458 l 440 567 q 304 707 440 707 q 229 695 266 707 q 171 657 193 684 q 214 633 198 651 q 229 586 229 614 q 207 532 229 552 q 153 511 185 511 q 100 532 121 511 q 79 585 79 553 q 144 685 79 640 q 335 734 217 734 q 453 714 404 734 q 529 646 502 694 q 725 734 602 734 q 907 659 843 734 q 971 429 971 583 l 567 429 q 562 340 562 392 q 590 180 562 249 q 662 75 617 112 q 758 39 707 39 m 720 708 q 648 681 680 708 q 593 597 615 654 q 564 456 571 541 l 838 456 q 827 583 840 526 q 787 674 814 640 q 720 708 760 708 m 440 424 q 328 353 416 395 q 217 272 255 317 q 179 157 179 227 q 210 64 179 93 q 288 36 241 36 q 440 151 384 36 l 440 424 z "},"b":{"ha":782,"x_min":5,"x_max":717,"o":"m 453 734 q 590 692 530 734 q 683 565 649 650 q 717 357 717 479 q 675 152 717 237 q 563 23 633 66 q 407 -20 492 -20 q 308 1 356 -20 q 224 62 260 22 l 125 -22 l 102 -12 q 111 68 111 22 l 111 921 q 88 1014 111 985 q 5 1043 64 1043 l 5 1072 q 92 1068 49 1068 q 236 1088 181 1068 l 236 586 q 324 695 267 656 q 453 734 381 734 m 396 12 q 536 97 490 12 q 582 357 582 181 q 540 610 582 526 q 412 693 498 693 q 339 673 374 693 q 277 614 304 653 q 236 520 250 575 l 236 81 q 311 30 269 47 q 396 12 352 12 z "},"c":{"ha":675,"x_min":64,"x_max":627,"o":"m 387 734 q 549 690 481 734 q 614 583 614 646 q 593 526 614 547 q 541 505 572 505 q 486 524 508 505 q 464 575 464 543 q 480 625 464 605 q 522 652 497 645 q 473 693 509 677 q 397 710 437 710 q 302 677 347 710 q 228 569 257 645 q 199 370 199 493 q 254 118 199 197 q 399 40 310 40 q 512 75 458 40 q 600 183 566 109 l 627 174 q 578 80 611 124 q 493 8 546 37 q 371 -20 441 -20 q 214 25 284 -20 q 104 153 144 70 q 64 349 64 237 q 105 549 64 461 q 220 686 146 637 q 387 734 294 734 z "},"ć":{"ha":675,"x_min":64,"x_max":627,"o":"m 64 0 m 387 734 q 549 690 481 734 q 614 583 614 646 q 593 526 614 547 q 541 505 572 505 q 486 524 508 505 q 464 575 464 543 q 480 625 464 605 q 522 652 497 645 q 473 693 509 677 q 397 710 437 710 q 302 677 347 710 q 228 569 257 645 q 199 370 199 493 q 254 118 199 197 q 399 40 310 40 q 512 75 458 40 q 600 183 566 109 l 627 174 q 578 80 611 124 q 493 8 546 37 q 371 -20 441 -20 q 214 25 284 -20 q 104 153 144 70 q 64 349 64 237 q 105 549 64 461 q 220 686 146 637 q 387 734 294 734 m 514 1129 q 533 1090 533 1114 q 514 1043 533 1068 q 435 966 494 1018 q 294 832 347 887 l 279 844 q 375 1013 324 914 q 431 1108 412 1084 q 484 1139 454 1139 q 514 1129 500 1139 z "},"č":{"ha":675,"x_min":64,"x_max":627,"o":"m 64 0 m 387 734 q 549 690 481 734 q 614 583 614 646 q 593 526 614 547 q 541 505 572 505 q 486 524 508 505 q 464 575 464 543 q 480 625 464 605 q 522 652 497 645 q 473 693 509 677 q 397 710 437 710 q 302 677 347 710 q 228 569 257 645 q 199 370 199 493 q 254 118 199 197 q 399 40 310 40 q 512 75 458 40 q 600 183 566 109 l 627 174 q 578 80 611 124 q 493 8 546 37 q 371 -20 441 -20 q 214 25 284 -20 q 104 153 144 70 q 64 349 64 237 q 105 549 64 461 q 220 686 146 637 q 387 734 294 734 m 596 1095 q 455 991 517 1055 q 364 856 393 926 l 339 856 q 249 991 311 926 q 107 1095 186 1055 l 119 1114 q 265 1050 194 1088 q 380 975 336 1012 q 471 1050 415 1013 q 585 1114 527 1088 l 596 1095 z "},"ç":{"ha":675,"x_min":64,"x_max":627,"o":"m 358 -20 l 332 -100 q 414 -90 373 -90 q 476 -107 453 -90 q 498 -155 498 -125 q 474 -216 498 -192 q 414 -250 450 -239 q 341 -261 378 -261 q 226 -245 270 -261 l 232 -221 q 284 -225 260 -225 q 372 -211 334 -225 q 410 -163 410 -196 q 351 -123 410 -123 q 283 -134 311 -123 l 322 -16 q 189 44 248 -3 q 97 169 130 91 q 64 349 64 248 q 105 549 64 461 q 220 686 146 637 q 387 734 294 734 q 549 690 481 734 q 614 583 614 646 q 593 526 614 547 q 541 505 572 505 q 486 524 508 505 q 464 575 464 543 q 480 625 464 605 q 522 652 497 645 q 473 693 509 677 q 397 710 437 710 q 302 677 347 710 q 228 569 257 645 q 199 370 199 493 q 254 118 199 197 q 399 40 310 40 q 512 75 458 40 q 600 183 566 109 l 627 174 q 578 80 611 124 q 493 8 546 37 q 371 -20 441 -20 l 358 -20 z "},"ĉ":{"ha":675,"x_min":64,"x_max":627,"o":"m 64 0 m 387 734 q 549 690 481 734 q 614 583 614 646 q 593 526 614 547 q 541 505 572 505 q 486 524 508 505 q 464 575 464 543 q 480 625 464 605 q 522 652 497 645 q 473 693 509 677 q 397 710 437 710 q 302 677 347 710 q 228 569 257 645 q 199 370 199 493 q 254 118 199 197 q 399 40 310 40 q 512 75 458 40 q 600 183 566 109 l 627 174 q 578 80 611 124 q 493 8 546 37 q 371 -20 441 -20 q 214 25 284 -20 q 104 153 144 70 q 64 349 64 237 q 105 549 64 461 q 220 686 146 637 q 387 734 294 734 m 378 1114 q 468 979 406 1043 q 610 875 530 914 l 599 856 q 452 919 524 882 q 338 994 381 957 q 247 919 302 957 q 132 856 191 882 l 121 875 q 262 979 200 914 q 353 1114 324 1043 l 378 1114 z "},"ċ":{"ha":675,"x_min":64,"x_max":627,"o":"m 64 0 m 387 734 q 549 690 481 734 q 614 583 614 646 q 593 526 614 547 q 541 505 572 505 q 486 524 508 505 q 464 575 464 543 q 480 625 464 605 q 522 652 497 645 q 473 693 509 677 q 397 710 437 710 q 302 677 347 710 q 228 569 257 645 q 199 370 199 493 q 254 118 199 197 q 399 40 310 40 q 512 75 458 40 q 600 183 566 109 l 627 174 q 578 80 611 124 q 493 8 546 37 q 371 -20 441 -20 q 214 25 284 -20 q 104 153 144 70 q 64 349 64 237 q 105 549 64 461 q 220 686 146 637 q 387 734 294 734 m 385 1063 q 429 1050 409 1063 q 462 1018 450 1038 q 474 974 474 998 q 462 929 474 950 q 429 897 450 909 q 385 885 409 885 q 341 897 361 885 q 308 929 320 909 q 296 974 296 950 q 308 1018 296 998 q 341 1050 320 1038 q 385 1063 361 1063 z "},"d":{"ha":807,"x_min":66,"x_max":778,"o":"m 672 151 q 695 58 672 87 q 778 29 719 29 l 778 0 q 692 4 734 4 q 547 -16 602 4 l 547 108 q 472 13 522 45 q 350 -20 422 -20 q 198 22 262 -20 q 100 149 134 64 q 66 357 66 233 q 109 564 66 478 q 223 692 151 649 q 380 734 294 734 q 477 714 433 734 q 547 652 522 694 l 547 922 q 524 1016 547 987 q 441 1044 500 1044 l 441 1074 q 528 1069 486 1069 q 672 1089 617 1069 l 672 151 m 390 22 q 457 41 425 22 q 513 95 490 59 q 547 182 536 132 l 547 595 q 392 703 509 703 q 293 664 336 703 q 225 548 250 626 q 201 357 201 471 q 249 106 201 190 q 390 22 296 22 z "},"ð":{"ha":770,"x_min":64,"x_max":692,"o":"m 433 954 q 692 419 692 758 q 648 177 692 276 q 532 29 604 78 q 375 -20 460 -20 q 213 23 283 -20 q 103 149 142 65 q 64 354 64 233 q 99 537 64 450 q 203 680 134 625 q 367 734 271 734 q 533 663 480 734 q 385 931 492 828 l 135 808 l 122 833 l 363 951 q 180 1063 296 1008 l 192 1086 q 408 972 319 1036 l 604 1068 l 616 1043 l 433 954 m 368 8 q 506 103 452 8 q 559 419 559 198 q 557 508 559 470 q 376 705 533 705 q 247 621 296 705 q 199 351 199 537 q 221 155 199 232 q 282 43 244 79 q 368 8 321 8 z "},"ď":{"ha":807,"x_min":66,"x_max":867,"o":"m 66 0 m 672 151 q 695 58 672 87 q 778 29 719 29 l 778 0 q 692 4 734 4 q 547 -16 602 4 l 547 108 q 472 13 522 45 q 350 -20 422 -20 q 198 22 262 -20 q 100 149 134 64 q 66 357 66 233 q 109 564 66 478 q 223 692 151 649 q 380 734 294 734 q 477 714 433 734 q 547 652 522 694 l 547 922 q 524 1016 547 987 q 441 1044 500 1044 l 441 1074 q 528 1069 486 1069 q 672 1089 617 1069 l 672 151 m 390 22 q 457 41 425 22 q 513 95 490 59 q 547 182 536 132 l 547 595 q 392 703 509 703 q 293 664 336 703 q 225 548 250 626 q 201 357 201 471 q 249 106 201 190 q 390 22 296 22 m 859 1089 q 864 1063 862 1082 q 867 1032 867 1045 q 846 943 867 996 q 773 782 825 890 l 754 787 q 782 989 782 948 q 776 1031 782 1018 q 754 1044 770 1044 l 754 1074 q 777 1073 762 1073 q 859 1089 818 1073 z "},"đ":{"ha":807,"x_min":66,"x_max":791,"o":"m 672 151 q 695 58 672 87 q 778 29 719 29 l 778 0 q 692 4 734 4 q 547 -16 602 4 l 547 108 q 472 13 522 45 q 350 -20 422 -20 q 198 22 262 -20 q 100 149 134 64 q 66 357 66 233 q 109 564 66 478 q 223 692 151 649 q 380 734 294 734 q 477 714 433 734 q 547 652 522 694 l 547 844 l 300 844 l 300 872 l 547 872 l 547 922 q 524 1016 547 987 q 441 1044 500 1044 l 441 1074 q 528 1069 486 1069 q 672 1089 617 1069 l 672 872 l 791 872 l 791 844 l 672 844 l 672 151 m 390 22 q 457 41 425 22 q 513 95 490 59 q 547 182 536 132 l 547 595 q 392 703 509 703 q 293 664 336 703 q 225 548 250 626 q 201 357 201 471 q 249 106 201 190 q 390 22 296 22 z "},"e":{"ha":703,"x_min":64,"x_max":643,"o":"m 643 167 q 591 76 627 118 q 502 7 555 33 q 383 -20 449 -20 q 212 25 284 -20 q 102 152 140 71 q 64 340 64 234 q 102 550 64 461 q 212 687 141 639 q 378 734 283 734 q 570 659 503 734 q 637 429 637 583 l 203 429 q 199 340 199 392 q 229 180 199 249 q 308 75 259 112 q 411 39 357 39 q 615 178 551 39 l 643 167 m 372 708 q 294 681 330 708 q 233 596 258 653 q 201 456 209 540 l 504 456 q 492 583 507 525 q 448 674 478 640 q 372 708 417 708 z "},"é":{"ha":703,"x_min":64,"x_max":643,"o":"m 64 0 m 643 167 q 591 76 627 118 q 502 7 555 33 q 383 -20 449 -20 q 212 25 284 -20 q 102 152 140 71 q 64 340 64 234 q 102 550 64 461 q 212 687 141 639 q 378 734 283 734 q 570 659 503 734 q 637 429 637 583 l 203 429 q 199 340 199 392 q 229 180 199 249 q 308 75 259 112 q 411 39 357 39 q 615 178 551 39 l 643 167 m 372 708 q 294 681 330 708 q 233 596 258 653 q 201 456 209 540 l 504 456 q 492 583 507 525 q 448 674 478 640 q 372 708 417 708 m 525 1129 q 544 1090 544 1114 q 525 1043 544 1068 q 446 966 505 1018 q 305 832 357 887 l 290 844 q 386 1013 335 914 q 441 1108 423 1084 q 494 1139 465 1139 q 525 1129 511 1139 z "},"ĕ":{"ha":703,"x_min":64,"x_max":643,"o":"m 64 0 m 643 167 q 591 76 627 118 q 502 7 555 33 q 383 -20 449 -20 q 212 25 284 -20 q 102 152 140 71 q 64 340 64 234 q 102 550 64 461 q 212 687 141 639 q 378 734 283 734 q 570 659 503 734 q 637 429 637 583 l 203 429 q 199 340 199 392 q 229 180 199 249 q 308 75 259 112 q 411 39 357 39 q 615 178 551 39 l 643 167 m 372 708 q 294 681 330 708 q 233 596 258 653 q 201 456 209 540 l 504 456 q 492 583 507 525 q 448 674 478 640 q 372 708 417 708 m 624 1082 q 526 939 589 999 q 375 879 463 879 q 225 939 288 879 q 127 1082 161 999 l 150 1095 q 375 961 231 961 q 511 999 456 961 q 600 1095 566 1038 l 624 1082 z "},"ě":{"ha":703,"x_min":64,"x_max":643,"o":"m 64 0 m 643 167 q 591 76 627 118 q 502 7 555 33 q 383 -20 449 -20 q 212 25 284 -20 q 102 152 140 71 q 64 340 64 234 q 102 550 64 461 q 212 687 141 639 q 378 734 283 734 q 570 659 503 734 q 637 429 637 583 l 203 429 q 199 340 199 392 q 229 180 199 249 q 308 75 259 112 q 411 39 357 39 q 615 178 551 39 l 643 167 m 372 708 q 294 681 330 708 q 233 596 258 653 q 201 456 209 540 l 504 456 q 492 583 507 525 q 448 674 478 640 q 372 708 417 708 m 607 1095 q 466 991 528 1055 q 375 856 404 926 l 350 856 q 259 991 321 926 q 118 1095 197 1055 l 130 1114 q 276 1050 205 1088 q 391 975 347 1012 q 482 1050 426 1013 q 596 1114 538 1088 l 607 1095 z "},"ê":{"ha":703,"x_min":64,"x_max":643,"o":"m 64 0 m 643 167 q 591 76 627 118 q 502 7 555 33 q 383 -20 449 -20 q 212 25 284 -20 q 102 152 140 71 q 64 340 64 234 q 102 550 64 461 q 212 687 141 639 q 378 734 283 734 q 570 659 503 734 q 637 429 637 583 l 203 429 q 199 340 199 392 q 229 180 199 249 q 308 75 259 112 q 411 39 357 39 q 615 178 551 39 l 643 167 m 372 708 q 294 681 330 708 q 233 596 258 653 q 201 456 209 540 l 504 456 q 492 583 507 525 q 448 674 478 640 q 372 708 417 708 m 389 1114 q 479 979 417 1043 q 621 875 541 914 l 610 856 q 463 919 534 882 q 349 994 392 957 q 257 919 313 957 q 143 856 201 882 l 132 875 q 273 979 211 914 q 363 1114 335 1043 l 389 1114 z "},"ë":{"ha":703,"x_min":64,"x_max":643,"o":"m 64 0 m 643 167 q 591 76 627 118 q 502 7 555 33 q 383 -20 449 -20 q 212 25 284 -20 q 102 152 140 71 q 64 340 64 234 q 102 550 64 461 q 212 687 141 639 q 378 734 283 734 q 570 659 503 734 q 637 429 637 583 l 203 429 q 199 340 199 392 q 229 180 199 249 q 308 75 259 112 q 411 39 357 39 q 615 178 551 39 l 643 167 m 372 708 q 294 681 330 708 q 233 596 258 653 q 201 456 209 540 l 504 456 q 492 583 507 525 q 448 674 478 640 q 372 708 417 708 m 231 1032 q 270 1021 252 1032 q 300 991 289 1010 q 311 951 311 972 q 300 911 311 930 q 271 882 289 892 q 231 871 252 871 q 174 895 197 871 q 150 951 150 918 q 161 991 150 972 q 190 1021 172 1010 q 231 1032 209 1032 m 525 1032 q 565 1021 546 1032 q 594 991 583 1010 q 606 951 606 972 q 594 911 606 930 q 565 882 583 892 q 525 871 547 871 q 468 895 492 871 q 445 951 445 918 q 456 991 445 972 q 485 1021 467 1010 q 525 1032 503 1032 z "},"ė":{"ha":703,"x_min":64,"x_max":643,"o":"m 64 0 m 643 167 q 591 76 627 118 q 502 7 555 33 q 383 -20 449 -20 q 212 25 284 -20 q 102 152 140 71 q 64 340 64 234 q 102 550 64 461 q 212 687 141 639 q 378 734 283 734 q 570 659 503 734 q 637 429 637 583 l 203 429 q 199 340 199 392 q 229 180 199 249 q 308 75 259 112 q 411 39 357 39 q 615 178 551 39 l 643 167 m 372 708 q 294 681 330 708 q 233 596 258 653 q 201 456 209 540 l 504 456 q 492 583 507 525 q 448 674 478 640 q 372 708 417 708 m 376 1063 q 420 1050 400 1063 q 453 1018 441 1038 q 465 974 465 998 q 453 929 465 950 q 420 897 441 909 q 376 885 400 885 q 332 897 353 885 q 299 929 311 909 q 288 974 288 950 q 299 1018 288 998 q 332 1050 311 1038 q 376 1063 353 1063 z "},"è":{"ha":703,"x_min":64,"x_max":643,"o":"m 64 0 m 643 167 q 591 76 627 118 q 502 7 555 33 q 383 -20 449 -20 q 212 25 284 -20 q 102 152 140 71 q 64 340 64 234 q 102 550 64 461 q 212 687 141 639 q 378 734 283 734 q 570 659 503 734 q 637 429 637 583 l 203 429 q 199 340 199 392 q 229 180 199 249 q 308 75 259 112 q 411 39 357 39 q 615 178 551 39 l 643 167 m 372 708 q 294 681 330 708 q 233 596 258 653 q 201 456 209 540 l 504 456 q 492 583 507 525 q 448 674 478 640 q 372 708 417 708 m 205 1129 q 235 1139 218 1139 q 289 1108 265 1139 q 345 1013 307 1084 q 440 844 395 914 l 425 832 q 285 965 364 896 q 205 1043 227 1016 q 186 1090 186 1068 q 205 1129 186 1114 z "},"ē":{"ha":703,"x_min":64,"x_max":643,"o":"m 64 0 m 643 167 q 591 76 627 118 q 502 7 555 33 q 383 -20 449 -20 q 212 25 284 -20 q 102 152 140 71 q 64 340 64 234 q 102 550 64 461 q 212 687 141 639 q 378 734 283 734 q 570 659 503 734 q 637 429 637 583 l 203 429 q 199 340 199 392 q 229 180 199 249 q 308 75 259 112 q 411 39 357 39 q 615 178 551 39 l 643 167 m 372 708 q 294 681 330 708 q 233 596 258 653 q 201 456 209 540 l 504 456 q 492 583 507 525 q 448 674 478 640 q 372 708 417 708 m 155 954 l 155 989 l 589 989 l 589 954 l 155 954 z "},"ę":{"ha":703,"x_min":64,"x_max":643,"o":"m 477 -4 q 359 -134 359 -55 q 375 -178 359 -161 q 418 -195 391 -195 q 466 -181 444 -195 q 503 -149 489 -168 l 524 -167 q 367 -261 462 -261 q 287 -236 317 -261 q 257 -171 257 -212 q 291 -88 257 -127 q 388 -20 324 -50 l 383 -20 q 212 25 284 -20 q 102 152 140 71 q 64 340 64 234 q 102 550 64 461 q 212 687 141 639 q 378 734 283 734 q 570 659 503 734 q 637 429 637 583 l 203 429 q 199 340 199 392 q 229 180 199 249 q 308 75 259 112 q 411 39 357 39 q 615 178 551 39 l 643 167 q 585 69 626 114 q 488 0 545 24 l 483 -1 l 477 -4 m 372 708 q 294 681 330 708 q 233 596 258 653 q 201 456 209 540 l 504 456 q 492 583 507 525 q 448 674 478 640 q 372 708 417 708 z "},"f":{"ha":461,"x_min":36,"x_max":547,"o":"m 383 1086 q 504 1048 454 1086 q 547 962 547 1013 q 527 910 547 930 q 473 889 506 889 q 419 909 441 889 q 397 964 397 930 q 413 1011 397 992 q 456 1035 429 1029 q 433 1057 452 1048 q 387 1065 415 1065 q 297 1014 326 1065 q 277 931 281 986 q 272 750 272 876 l 272 714 l 421 714 l 421 686 l 272 686 l 272 143 q 309 54 272 79 q 419 29 345 29 l 419 0 q 386 1 412 0 q 205 5 248 5 q 66 1 174 5 q 41 0 47 0 l 41 29 q 103 38 81 29 q 137 68 126 47 q 147 129 147 90 l 147 686 l 36 686 l 36 714 l 147 714 q 154 852 147 797 q 176 946 161 907 q 218 1017 191 985 q 289 1068 245 1049 q 383 1086 332 1086 z "},"g":{"ha":720,"x_min":26,"x_max":694,"o":"m 532 153 q 649 122 604 153 q 694 24 694 92 q 651 -109 694 -43 q 520 -218 608 -174 q 306 -261 433 -261 q 169 -247 233 -261 q 66 -203 105 -232 q 26 -134 26 -174 q 76 -42 26 -86 q 201 36 126 2 l 196 36 q 100 58 143 36 q 57 142 57 81 q 97 232 57 189 q 231 317 136 275 q 136 391 170 341 q 102 515 102 440 q 172 680 102 625 q 358 734 242 734 q 456 722 412 734 q 505 846 471 800 q 600 892 543 892 q 654 871 635 892 q 673 819 673 851 q 654 772 673 791 q 607 753 635 753 q 556 774 572 753 q 533 840 541 795 q 496 772 513 822 q 481 715 485 736 q 580 642 545 692 q 615 515 615 591 q 582 392 615 441 q 491 319 549 343 q 358 296 433 296 q 256 309 300 296 q 169 253 199 279 q 139 199 139 228 q 155 164 139 176 q 205 153 170 153 l 532 153 m 358 710 q 264 666 296 710 q 232 515 232 621 q 264 365 232 410 q 358 321 296 321 q 453 365 420 321 q 485 515 485 409 q 453 666 485 622 q 358 710 420 710 m 343 -237 q 464 -215 405 -237 q 561 -149 523 -193 q 599 -41 599 -104 q 590 2 599 -14 q 557 27 581 19 q 493 36 534 36 l 235 36 q 165 -25 191 14 q 140 -104 140 -64 q 170 -179 140 -149 q 247 -223 200 -209 q 343 -237 294 -237 z "},"ǵ":{"ha":720,"x_min":26,"x_max":694,"o":"m 26 0 m 532 153 q 649 122 604 153 q 694 24 694 92 q 651 -109 694 -43 q 520 -218 608 -174 q 306 -261 433 -261 q 169 -247 233 -261 q 66 -203 105 -232 q 26 -134 26 -174 q 76 -42 26 -86 q 201 36 126 2 l 196 36 q 100 58 143 36 q 57 142 57 81 q 97 232 57 189 q 231 317 136 275 q 136 391 170 341 q 102 515 102 440 q 172 680 102 625 q 358 734 242 734 q 456 722 412 734 q 505 846 471 800 q 600 892 543 892 q 654 871 635 892 q 673 819 673 851 q 654 772 673 791 q 607 753 635 753 q 556 774 572 753 q 533 840 541 795 q 496 772 513 822 q 481 715 485 736 q 580 642 545 692 q 615 515 615 591 q 582 392 615 441 q 491 319 549 343 q 358 296 433 296 q 256 309 300 296 q 169 253 199 279 q 139 199 139 228 q 155 164 139 176 q 205 153 170 153 l 532 153 m 358 710 q 264 666 296 710 q 232 515 232 621 q 264 365 232 410 q 358 321 296 321 q 453 365 420 321 q 485 515 485 409 q 453 666 485 622 q 358 710 420 710 m 343 -237 q 464 -215 405 -237 q 561 -149 523 -193 q 599 -41 599 -104 q 590 2 599 -14 q 557 27 581 19 q 493 36 534 36 l 235 36 q 165 -25 191 14 q 140 -104 140 -64 q 170 -179 140 -149 q 247 -223 200 -209 q 343 -237 294 -237 m 498 1129 q 517 1090 517 1114 q 498 1043 517 1068 q 419 966 479 1018 q 279 832 331 887 l 264 844 q 359 1013 309 914 q 415 1108 397 1084 q 468 1139 439 1139 q 498 1129 485 1139 z "},"ğ":{"ha":701,"x_min":37,"x_max":677,"o":"m 334 879 q 184 939 248 879 q 86 1082 121 999 l 109 1095 q 334 961 191 961 q 471 999 416 961 q 559 1095 526 1038 l 583 1082 q 485 939 549 999 q 334 879 422 879 m 515 153 q 677 20 677 153 q 634 -113 677 -48 q 505 -219 591 -178 q 294 -261 418 -261 q 168 -246 227 -261 q 73 -203 109 -231 q 37 -139 37 -176 q 212 33 37 -43 l 207 33 q 112 57 156 33 q 68 140 68 80 q 102 227 68 186 q 219 313 137 268 q 116 387 153 336 q 79 515 79 437 q 150 680 79 625 q 336 734 220 734 q 435 723 387 734 q 478 832 446 785 q 521 879 496 860 q 578 897 547 897 q 631 877 610 897 q 652 823 652 856 q 631 769 652 791 q 576 747 611 747 q 528 765 547 747 q 505 812 509 782 q 476 772 492 808 q 459 715 465 745 q 557 642 522 692 q 593 515 593 591 q 560 392 593 441 q 469 319 527 343 q 336 296 412 296 q 246 306 288 296 q 191 269 210 283 q 161 237 172 254 q 150 199 150 220 q 168 161 150 170 q 228 153 186 153 l 515 153 m 336 710 q 242 666 274 710 q 210 515 210 622 q 242 365 210 409 q 336 321 274 321 q 430 365 398 321 q 463 515 463 410 q 430 666 463 621 q 336 710 398 710 m 329 -237 q 454 -214 392 -237 q 556 -145 516 -190 q 596 -39 596 -100 q 573 16 596 -1 q 490 33 550 33 l 248 33 q 177 -28 202 9 q 151 -109 151 -66 q 177 -180 151 -151 q 244 -223 203 -209 q 329 -237 285 -237 z "},"ĝ":{"ha":701,"x_min":37,"x_max":677,"o":"m 309 994 q 217 919 273 957 q 103 856 161 882 l 92 875 q 233 979 171 914 q 323 1114 295 1043 l 349 1114 q 402 1004 364 1057 q 486 917 439 951 l 472 897 q 382 941 427 915 q 309 994 338 968 m 515 153 q 677 20 677 153 q 634 -113 677 -48 q 505 -219 591 -178 q 294 -261 418 -261 q 168 -246 227 -261 q 73 -203 109 -231 q 37 -139 37 -176 q 212 33 37 -43 l 207 33 q 112 57 156 33 q 68 140 68 80 q 102 227 68 186 q 219 313 137 268 q 116 387 153 336 q 79 515 79 437 q 150 680 79 625 q 336 734 220 734 q 435 723 387 734 q 478 832 446 785 q 521 879 496 860 q 578 897 547 897 q 631 877 610 897 q 652 823 652 856 q 631 769 652 791 q 576 747 611 747 q 528 765 547 747 q 505 812 509 782 q 476 772 492 808 q 459 715 465 745 q 557 642 522 692 q 593 515 593 591 q 560 392 593 441 q 469 319 527 343 q 336 296 412 296 q 246 306 288 296 q 191 269 210 283 q 161 237 172 254 q 150 199 150 220 q 168 161 150 170 q 228 153 186 153 l 515 153 m 336 710 q 242 666 274 710 q 210 515 210 622 q 242 365 210 409 q 336 321 274 321 q 430 365 398 321 q 463 515 463 410 q 430 666 463 621 q 336 710 398 710 m 329 -237 q 454 -214 392 -237 q 556 -145 516 -190 q 596 -39 596 -100 q 573 16 596 -1 q 490 33 550 33 l 248 33 q 177 -28 202 9 q 151 -109 151 -66 q 177 -180 151 -151 q 244 -223 203 -209 q 329 -237 285 -237 z "},"ģ":{"ha":701,"x_min":37,"x_max":677,"o":"m 342 895 q 277 923 302 895 q 252 992 252 951 q 276 1077 252 1044 q 366 1134 301 1110 l 375 1109 q 314 1075 339 1098 q 289 1021 288 1052 q 347 1043 314 1043 q 399 1023 379 1043 q 420 968 420 1004 q 397 916 420 937 q 342 895 374 895 m 515 153 q 677 20 677 153 q 634 -113 677 -48 q 505 -219 591 -178 q 294 -261 418 -261 q 168 -246 227 -261 q 73 -203 109 -231 q 37 -139 37 -176 q 212 33 37 -43 l 207 33 q 112 57 156 33 q 68 140 68 80 q 102 227 68 186 q 219 313 137 268 q 116 387 153 336 q 79 515 79 437 q 150 680 79 625 q 336 734 220 734 q 435 723 387 734 q 478 832 446 785 q 521 879 496 860 q 578 897 547 897 q 631 877 610 897 q 652 823 652 856 q 631 769 652 791 q 576 747 611 747 q 528 765 547 747 q 505 812 509 782 q 476 772 492 808 q 459 715 465 745 q 557 642 522 692 q 593 515 593 591 q 560 392 593 441 q 469 319 527 343 q 336 296 412 296 q 246 306 288 296 q 191 269 210 283 q 161 237 172 254 q 150 199 150 220 q 168 161 150 170 q 228 153 186 153 l 515 153 m 336 710 q 242 666 274 710 q 210 515 210 622 q 242 365 210 409 q 336 321 274 321 q 430 365 398 321 q 463 515 463 410 q 430 666 463 621 q 336 710 398 710 m 329 -237 q 454 -214 392 -237 q 556 -145 516 -190 q 596 -39 596 -100 q 573 16 596 -1 q 490 33 550 33 l 248 33 q 177 -28 202 9 q 151 -109 151 -66 q 177 -180 151 -151 q 244 -223 203 -209 q 329 -237 285 -237 z "},"ġ":{"ha":701,"x_min":37,"x_max":677,"o":"m 336 885 q 292 897 313 885 q 259 929 271 909 q 248 974 248 950 q 259 1018 248 998 q 292 1050 271 1038 q 336 1063 313 1063 q 380 1050 360 1063 q 413 1018 401 1038 q 425 974 425 998 q 413 929 425 950 q 380 897 401 909 q 336 885 360 885 m 515 153 q 677 20 677 153 q 634 -113 677 -48 q 505 -219 591 -178 q 294 -261 418 -261 q 168 -246 227 -261 q 73 -203 109 -231 q 37 -139 37 -176 q 212 33 37 -43 l 207 33 q 112 57 156 33 q 68 140 68 80 q 102 227 68 186 q 219 313 137 268 q 116 387 153 336 q 79 515 79 437 q 150 680 79 625 q 336 734 220 734 q 435 723 387 734 q 478 832 446 785 q 521 879 496 860 q 578 897 547 897 q 631 877 610 897 q 652 823 652 856 q 631 769 652 791 q 576 747 611 747 q 528 765 547 747 q 505 812 509 782 q 476 772 492 808 q 459 715 465 745 q 557 642 522 692 q 593 515 593 591 q 560 392 593 441 q 469 319 527 343 q 336 296 412 296 q 246 306 288 296 q 191 269 210 283 q 161 237 172 254 q 150 199 150 220 q 168 161 150 170 q 228 153 186 153 l 515 153 m 336 710 q 242 666 274 710 q 210 515 210 622 q 242 365 210 409 q 336 321 274 321 q 430 365 398 321 q 463 515 463 410 q 430 666 463 621 q 336 710 398 710 m 329 -237 q 454 -214 392 -237 q 556 -145 516 -190 q 596 -39 596 -100 q 573 16 596 -1 q 490 33 550 33 l 248 33 q 177 -28 202 9 q 151 -109 151 -66 q 177 -180 151 -151 q 244 -223 203 -209 q 329 -237 285 -237 z "},"h":{"ha":817,"x_min":28,"x_max":796,"o":"m 258 568 q 355 695 293 656 q 494 734 417 734 q 642 682 591 734 q 679 612 668 654 q 690 500 690 570 l 690 129 q 701 68 690 90 q 734 38 711 47 q 796 29 757 29 l 796 0 q 774 1 791 0 q 629 5 662 5 q 492 1 570 5 l 473 0 l 473 29 q 528 38 508 29 q 556 68 547 47 q 566 129 566 90 l 566 530 q 557 614 566 581 q 525 669 549 648 q 453 690 500 690 q 352 658 397 690 q 283 569 308 626 q 258 439 258 511 l 258 129 q 268 68 258 90 q 296 38 277 47 q 350 29 315 29 l 350 0 l 331 1 q 195 5 252 5 q 48 1 135 5 l 28 0 l 28 29 q 90 38 67 29 q 123 68 113 47 q 134 129 134 90 l 134 921 q 110 1014 134 985 q 28 1043 87 1043 l 28 1072 q 114 1068 72 1068 q 258 1088 203 1068 l 258 568 z "},"ħ":{"ha":817,"x_min":14,"x_max":796,"o":"m 690 129 q 701 68 690 90 q 734 38 711 47 q 796 29 757 29 l 796 0 q 774 1 791 0 q 629 5 662 5 q 492 1 570 5 l 473 0 l 473 29 q 528 38 508 29 q 556 68 547 47 q 566 129 566 90 l 566 530 q 557 614 566 581 q 525 669 549 648 q 453 690 500 690 q 352 658 397 690 q 283 569 308 626 q 258 439 258 511 l 258 129 q 268 68 258 90 q 296 38 277 47 q 350 29 315 29 l 350 0 l 331 1 q 195 5 252 5 q 48 1 135 5 l 28 0 l 28 29 q 90 38 67 29 q 123 68 113 47 q 134 129 134 90 l 134 844 l 14 844 l 14 872 l 134 872 l 134 921 q 110 1014 134 985 q 28 1043 87 1043 l 28 1072 q 114 1068 72 1068 q 258 1088 203 1068 l 258 872 l 505 872 l 505 844 l 258 844 l 258 568 q 355 695 293 656 q 494 734 417 734 q 642 682 591 734 q 679 612 668 654 q 690 500 690 570 l 690 129 z "},"ĥ":{"ha":817,"x_min":28,"x_max":796,"o":"m 28 0 m 258 568 q 355 695 293 656 q 494 734 417 734 q 642 682 591 734 q 679 612 668 654 q 690 500 690 570 l 690 129 q 701 68 690 90 q 734 38 711 47 q 796 29 757 29 l 796 0 q 774 1 791 0 q 629 5 662 5 q 492 1 570 5 l 473 0 l 473 29 q 528 38 508 29 q 556 68 547 47 q 566 129 566 90 l 566 530 q 557 614 566 581 q 525 669 549 648 q 453 690 500 690 q 352 658 397 690 q 283 569 308 626 q 258 439 258 511 l 258 129 q 268 68 258 90 q 296 38 277 47 q 350 29 315 29 l 350 0 l 331 1 q 195 5 252 5 q 48 1 135 5 l 28 0 l 28 29 q 90 38 67 29 q 123 68 113 47 q 134 129 134 90 l 134 921 q 110 1014 134 985 q 28 1043 87 1043 l 28 1072 q 114 1068 72 1068 q 258 1088 203 1068 l 258 568 m 404 1361 q 506 1258 437 1307 q 664 1178 574 1208 l 656 1158 q 492 1203 572 1176 q 363 1255 411 1230 q 259 1203 324 1230 q 126 1158 193 1176 l 119 1178 q 277 1258 208 1208 q 379 1361 346 1307 l 404 1361 z "},"i":{"ha":407,"x_min":40,"x_max":376,"o":"m 40 0 m 199 1063 q 243 1050 222 1063 q 275 1018 263 1038 q 288 974 288 998 q 275 929 288 950 q 243 897 263 909 q 199 885 222 885 q 154 897 175 885 q 122 929 134 909 q 110 974 110 950 q 122 1018 110 998 q 154 1050 134 1038 q 199 1063 175 1063 m 271 129 q 281 68 271 90 q 314 38 292 47 q 376 29 337 29 l 376 0 l 355 1 q 208 5 270 5 q 61 1 146 5 l 40 0 l 40 29 q 102 38 79 29 q 135 68 125 47 q 146 129 146 90 l 146 564 q 122 657 146 628 q 40 686 99 686 l 40 715 q 126 711 83 711 q 271 730 214 711 l 271 129 z "},"ı":{"ha":407,"x_min":40,"x_max":376,"o":"m 271 129 q 281 68 271 90 q 314 38 292 47 q 376 29 337 29 l 376 0 l 355 1 q 208 5 270 5 q 61 1 146 5 l 40 0 l 40 29 q 102 38 79 29 q 135 68 125 47 q 146 129 146 90 l 146 564 q 122 657 146 628 q 40 686 99 686 l 40 715 q 126 711 83 711 q 271 730 214 711 l 271 129 z "},"í":{"ha":407,"x_min":40,"x_max":376,"o":"m 40 0 m 271 129 q 281 68 271 90 q 314 38 292 47 q 376 29 337 29 l 376 0 l 355 1 q 208 5 270 5 q 61 1 146 5 l 40 0 l 40 29 q 102 38 79 29 q 135 68 125 47 q 146 129 146 90 l 146 564 q 122 657 146 628 q 40 686 99 686 l 40 715 q 126 711 83 711 q 271 730 214 711 l 271 129 m 345 1129 q 363 1090 363 1114 q 345 1043 363 1068 q 265 966 325 1018 q 125 832 177 887 l 110 844 q 205 1013 155 914 q 261 1108 243 1084 q 314 1139 285 1139 q 345 1129 331 1139 z "},"ĭ":{"ha":407,"x_min":-54,"x_max":444,"o":"m 0 0 m 271 129 q 281 68 271 90 q 314 38 292 47 q 376 29 337 29 l 376 0 l 355 1 q 208 5 270 5 q 61 1 146 5 l 40 0 l 40 29 q 102 38 79 29 q 135 68 125 47 q 146 129 146 90 l 146 564 q 122 657 146 628 q 40 686 99 686 l 40 715 q 126 711 83 711 q 271 730 214 711 l 271 129 m 444 1082 q 346 939 409 999 q 195 879 282 879 q 44 939 108 879 q -54 1082 -19 999 l -31 1095 q 195 961 51 961 q 331 999 276 961 q 420 1095 386 1038 l 444 1082 z "},"î":{"ha":407,"x_min":-49,"x_max":440,"o":"m 0 0 m 271 129 q 281 68 271 90 q 314 38 292 47 q 376 29 337 29 l 376 0 l 355 1 q 208 5 270 5 q 61 1 146 5 l 40 0 l 40 29 q 102 38 79 29 q 135 68 125 47 q 146 129 146 90 l 146 564 q 122 657 146 628 q 40 686 99 686 l 40 715 q 126 711 83 711 q 271 730 214 711 l 271 129 m 208 1114 q 299 979 237 1043 q 440 875 361 914 l 429 856 q 283 919 354 882 q 168 994 212 957 q 77 919 133 957 q -37 856 21 882 l -49 875 q 93 979 31 914 q 183 1114 155 1043 l 208 1114 z "},"ï":{"ha":407,"x_min":-31,"x_max":425,"o":"m 0 0 m 271 129 q 281 68 271 90 q 314 38 292 47 q 376 29 337 29 l 376 0 l 355 1 q 208 5 270 5 q 61 1 146 5 l 40 0 l 40 29 q 102 38 79 29 q 135 68 125 47 q 146 129 146 90 l 146 564 q 122 657 146 628 q 40 686 99 686 l 40 715 q 126 711 83 711 q 271 730 214 711 l 271 129 m 50 1032 q 90 1021 71 1032 q 120 991 109 1010 q 131 951 131 972 q 120 911 131 930 q 90 882 109 892 q 50 871 72 871 q -7 895 17 871 q -31 951 -31 918 q -20 991 -31 972 q 10 1021 -9 1010 q 50 1032 28 1032 m 345 1032 q 384 1021 366 1032 q 414 991 403 1010 q 425 951 425 972 q 414 911 425 930 q 385 882 403 892 q 345 871 366 871 q 288 895 311 871 q 264 951 264 918 q 275 991 264 972 q 304 1021 286 1010 q 345 1032 323 1032 z "},"ì":{"ha":407,"x_min":6,"x_max":376,"o":"m 6 0 m 271 129 q 281 68 271 90 q 314 38 292 47 q 376 29 337 29 l 376 0 l 355 1 q 208 5 270 5 q 61 1 146 5 l 40 0 l 40 29 q 102 38 79 29 q 135 68 125 47 q 146 129 146 90 l 146 564 q 122 657 146 628 q 40 686 99 686 l 40 715 q 126 711 83 711 q 271 730 214 711 l 271 129 m 25 1129 q 55 1139 38 1139 q 109 1108 85 1139 q 164 1013 127 1084 q 260 844 215 914 l 244 832 q 104 965 184 896 q 25 1043 47 1016 q 6 1090 6 1068 q 25 1129 6 1114 z "},"ĳ":{"ha":781,"x_min":22,"x_max":682,"o":"m 171 1063 q 215 1050 195 1063 q 248 1018 235 1038 q 260 974 260 998 q 248 929 260 950 q 215 897 235 909 q 171 885 195 885 q 126 897 147 885 q 94 929 106 909 q 82 974 82 950 q 94 1018 82 998 q 126 1050 106 1038 q 171 1063 147 1063 m 593 1063 q 637 1050 617 1063 q 670 1018 658 1038 q 682 974 682 998 q 670 929 682 950 q 637 897 658 909 q 593 885 617 885 q 549 897 570 885 q 516 929 528 909 q 505 974 505 950 q 516 1018 505 998 q 549 1050 528 1038 q 593 1063 570 1063 m 671 160 q 651 -58 671 34 q 581 -205 632 -150 q 439 -261 530 -261 q 355 -241 384 -261 q 326 -183 326 -220 q 345 -134 326 -153 q 395 -115 363 -115 q 441 -132 423 -115 q 460 -176 460 -148 q 412 -239 460 -219 q 436 -240 421 -240 q 500 -222 476 -240 q 535 -166 524 -204 q 546 -64 546 -127 l 546 157 q 461 27 520 74 q 318 -20 403 -20 q 174 33 224 -20 q 138 104 149 60 q 127 215 127 147 l 127 564 q 104 657 127 628 q 22 686 81 686 l 22 715 q 109 711 66 711 q 253 730 196 711 l 253 184 q 259 99 253 132 q 288 46 265 66 q 358 25 311 25 q 457 58 414 25 q 523 148 500 91 q 546 277 546 205 l 546 564 q 523 657 546 628 q 440 686 499 686 l 440 715 q 526 711 484 711 q 671 730 614 711 l 671 160 z "},"ī":{"ha":407,"x_min":-16,"x_max":390,"o":"m -16 954 l -16 989 l 390 989 l 390 954 l -16 954 m 271 129 q 281 68 271 90 q 314 38 292 47 q 376 29 337 29 l 376 0 l 355 1 q 208 5 270 5 q 61 1 146 5 l 40 0 l 40 29 q 102 38 79 29 q 135 68 125 47 q 146 129 146 90 l 146 564 q 122 657 146 628 q 40 686 99 686 l 40 715 q 126 711 83 711 q 271 730 214 711 l 271 129 z "},"į":{"ha":407,"x_min":40,"x_max":391,"o":"m 196 885 q 152 897 172 885 q 119 929 131 909 q 107 974 107 950 q 119 1018 107 998 q 152 1050 131 1038 q 196 1063 172 1063 q 240 1050 220 1063 q 273 1018 260 1038 q 285 974 285 998 q 273 929 285 950 q 240 897 260 909 q 196 885 220 885 m 391 -167 q 235 -261 330 -261 q 155 -236 185 -261 q 125 -171 125 -212 q 174 -72 125 -117 q 313 3 223 -27 q 208 5 248 5 q 61 1 146 5 l 40 0 l 40 29 q 102 38 79 29 q 135 68 125 47 q 146 129 146 90 l 146 564 q 122 657 146 628 q 40 686 99 686 l 40 715 q 126 711 83 711 q 271 730 214 711 l 271 129 q 281 68 271 90 q 314 38 292 47 q 376 29 337 29 l 376 0 l 357 1 l 347 -3 q 227 -134 227 -54 q 242 -178 227 -161 q 286 -195 258 -195 q 334 -181 311 -195 q 371 -149 357 -168 l 391 -167 z "},"ĩ":{"ha":407,"x_min":-72,"x_max":430,"o":"m 0 0 m 271 129 q 281 68 271 90 q 314 38 292 47 q 376 29 337 29 l 376 0 l 355 1 q 208 5 270 5 q 61 1 146 5 l 40 0 l 40 29 q 102 38 79 29 q 135 68 125 47 q 146 129 146 90 l 146 564 q 122 657 146 628 q 40 686 99 686 l 40 715 q 126 711 83 711 q 271 730 214 711 l 271 129 m 94 1067 q 154 1054 128 1067 q 210 1017 179 1042 q 257 986 237 996 q 303 975 277 975 q 410 1048 366 975 l 430 1039 q 365 931 409 966 q 266 896 321 896 q 204 909 230 896 q 147 947 178 922 q 99 979 119 968 q 55 989 80 989 q -52 914 -7 989 l -72 924 q -7 1032 -51 997 q 94 1067 37 1067 z "},"j":{"ha":371,"x_min":-89,"x_max":273,"o":"m 184 1055 q 229 1043 208 1055 q 261 1011 250 1031 q 273 966 273 990 q 261 922 273 943 q 229 890 250 902 q 184 878 208 878 q 140 890 161 878 q 108 922 120 902 q 96 966 96 943 q 108 1011 96 990 q 140 1043 120 1031 q 184 1055 161 1055 m 261 160 q 246 -38 261 47 q 187 -176 231 -122 q 110 -239 155 -218 q 20 -261 65 -261 q -58 -240 -29 -261 q -89 -176 -89 -217 q -69 -124 -89 -144 q -17 -104 -49 -104 q 36 -121 16 -104 q 56 -172 56 -138 q 3 -239 56 -220 q 26 -240 11 -240 q 104 -208 75 -240 q 136 -90 136 -168 l 136 564 q 113 657 136 628 q 31 686 90 686 l 31 715 q 117 711 74 711 q 261 730 205 711 l 261 160 z "},"ȷ":{"ha":371,"x_min":-89,"x_max":261,"o":"m 261 160 q 246 -38 261 47 q 187 -176 231 -122 q 110 -239 155 -218 q 20 -261 65 -261 q -58 -240 -29 -261 q -89 -176 -89 -217 q -69 -124 -89 -144 q -17 -104 -49 -104 q 36 -121 16 -104 q 56 -172 56 -138 q 3 -239 56 -220 q 26 -240 11 -240 q 104 -208 75 -240 q 136 -90 136 -168 l 136 564 q 113 657 136 628 q 31 686 90 686 l 31 715 q 117 711 74 711 q 261 730 205 711 l 261 160 z "},"ĵ":{"ha":371,"x_min":-89,"x_max":430,"o":"m 0 0 m 261 160 q 246 -38 261 47 q 187 -176 231 -122 q 110 -239 155 -218 q 20 -261 65 -261 q -58 -240 -29 -261 q -89 -176 -89 -217 q -69 -124 -89 -144 q -17 -104 -49 -104 q 36 -121 16 -104 q 56 -172 56 -138 q 3 -239 56 -220 q 26 -240 11 -240 q 104 -208 75 -240 q 136 -90 136 -168 l 136 564 q 113 657 136 628 q 31 686 90 686 l 31 715 q 117 711 74 711 q 261 730 205 711 l 261 160 m 198 1114 q 289 979 227 1043 q 430 875 351 914 l 419 856 q 273 919 344 882 q 158 994 201 957 q 67 919 123 957 q -47 856 11 882 l -59 875 q 82 979 20 914 q 173 1114 144 1043 l 198 1114 z "},"k":{"ha":764,"x_min":28,"x_max":754,"o":"m 657 102 q 704 50 683 66 q 754 29 725 33 l 754 0 q 642 5 670 5 q 507 1 586 5 l 488 0 l 488 29 q 519 37 507 29 q 530 56 530 44 q 522 77 530 65 l 363 310 q 317 357 338 345 q 258 371 296 370 l 258 129 q 268 68 258 90 q 296 38 277 47 q 350 29 315 29 l 350 0 l 331 1 q 196 5 252 5 q 49 1 134 5 l 28 0 l 28 29 q 90 38 67 29 q 123 68 113 47 q 134 129 134 90 l 134 922 q 110 1016 134 987 q 28 1044 87 1044 l 28 1074 q 114 1069 72 1069 q 258 1089 203 1069 l 258 399 q 326 418 299 405 q 378 457 353 432 l 481 564 q 525 640 525 610 q 497 676 525 665 q 422 688 469 688 l 422 715 q 579 710 519 710 q 700 715 644 710 l 700 688 q 575 623 632 682 l 406 445 l 657 102 z "},"ķ":{"ha":764,"x_min":28,"x_max":754,"o":"m 28 0 m 657 102 q 704 50 683 66 q 754 29 725 33 l 754 0 q 642 5 670 5 q 507 1 586 5 l 488 0 l 488 29 q 519 37 507 29 q 530 56 530 44 q 522 77 530 65 l 363 310 q 317 357 338 345 q 258 371 296 370 l 258 129 q 268 68 258 90 q 296 38 277 47 q 350 29 315 29 l 350 0 l 331 1 q 196 5 252 5 q 49 1 134 5 l 28 0 l 28 29 q 90 38 67 29 q 123 68 113 47 q 134 129 134 90 l 134 922 q 110 1016 134 987 q 28 1044 87 1044 l 28 1074 q 114 1069 72 1069 q 258 1089 203 1069 l 258 399 q 326 418 299 405 q 378 457 353 432 l 481 564 q 525 640 525 610 q 497 676 525 665 q 422 688 469 688 l 422 715 q 579 710 519 710 q 700 715 644 710 l 700 688 q 575 623 632 682 l 406 445 l 657 102 m 380 -96 q 446 -124 420 -96 q 471 -193 471 -152 q 446 -278 471 -245 q 357 -335 421 -311 l 347 -310 q 409 -276 383 -299 q 433 -222 434 -253 q 375 -244 408 -244 q 323 -224 343 -244 q 302 -170 302 -205 q 325 -117 302 -138 q 380 -96 348 -96 z "},"ĸ":{"ha":782,"x_min":40,"x_max":766,"o":"m 668 106 q 722 52 699 71 q 766 29 745 33 l 766 0 q 654 5 685 5 q 518 1 597 5 l 500 0 l 500 29 q 532 37 520 29 q 544 56 544 44 q 534 77 544 67 l 349 282 q 308 323 326 310 q 271 339 290 337 l 271 129 q 280 68 271 90 q 309 38 289 47 q 363 29 328 29 l 363 0 l 345 1 q 208 5 265 5 q 61 1 146 5 l 40 0 l 40 29 q 102 38 79 29 q 135 68 125 47 q 146 129 146 90 l 146 564 q 122 657 146 628 q 40 686 99 686 l 40 715 q 126 711 83 711 q 271 730 214 711 l 271 368 q 330 388 307 374 q 379 429 353 402 l 545 611 q 564 650 564 633 q 545 678 564 668 q 490 688 526 688 l 490 715 q 633 711 564 711 q 726 715 690 711 l 726 688 q 661 672 688 684 q 602 623 634 659 l 399 400 l 668 106 z "},"l":{"ha":397,"x_min":31,"x_max":367,"o":"m 261 129 q 272 68 261 90 q 305 38 282 47 q 367 29 328 29 l 367 0 l 346 1 q 199 5 260 5 q 52 1 137 5 l 31 0 l 31 29 q 93 38 70 29 q 126 68 115 47 q 136 129 136 90 l 136 922 q 113 1016 136 987 q 31 1044 90 1044 l 31 1074 q 117 1069 74 1069 q 261 1089 206 1069 l 261 129 z "},"ĺ":{"ha":397,"x_min":31,"x_max":439,"o":"m 31 0 m 261 129 q 272 68 261 90 q 305 38 282 47 q 367 29 328 29 l 367 0 l 346 1 q 199 5 260 5 q 52 1 137 5 l 31 0 l 31 29 q 93 38 70 29 q 126 68 115 47 q 136 129 136 90 l 136 922 q 113 1016 136 987 q 31 1044 90 1044 l 31 1074 q 117 1069 74 1069 q 261 1089 206 1069 l 261 129 m 347 1375 q 389 1388 368 1388 q 432 1365 416 1388 q 439 1339 439 1352 q 403 1284 439 1309 q 304 1240 372 1266 q 123 1161 195 1197 l 114 1179 q 262 1304 176 1226 q 347 1375 319 1357 z "},"ľ":{"ha":397,"x_min":31,"x_max":460,"o":"m 31 0 m 261 129 q 272 68 261 90 q 305 38 282 47 q 367 29 328 29 l 367 0 l 346 1 q 199 5 260 5 q 52 1 137 5 l 31 0 l 31 29 q 93 38 70 29 q 126 68 115 47 q 136 129 136 90 l 136 922 q 113 1016 136 987 q 31 1044 90 1044 l 31 1074 q 117 1069 74 1069 q 261 1089 206 1069 l 261 129 m 452 1089 q 457 1063 455 1082 q 460 1032 460 1045 q 439 943 460 996 q 366 782 418 890 l 347 787 q 375 989 375 948 q 369 1031 375 1018 q 347 1044 363 1044 l 347 1074 q 370 1073 355 1073 q 452 1089 411 1073 z "},"ļ":{"ha":397,"x_min":31,"x_max":367,"o":"m 31 0 m 261 129 q 272 68 261 90 q 305 38 282 47 q 367 29 328 29 l 367 0 l 346 1 q 199 5 260 5 q 52 1 137 5 l 31 0 l 31 29 q 93 38 70 29 q 126 68 115 47 q 136 129 136 90 l 136 922 q 113 1016 136 987 q 31 1044 90 1044 l 31 1074 q 117 1069 74 1069 q 261 1089 206 1069 l 261 129 m 189 -96 q 254 -124 229 -96 q 279 -193 279 -152 q 255 -278 279 -245 q 165 -335 230 -311 l 156 -310 q 217 -276 192 -299 q 242 -222 243 -253 q 184 -244 217 -244 q 132 -224 152 -244 q 111 -170 111 -205 q 134 -117 111 -138 q 189 -96 157 -96 z "},"ŀ":{"ha":591,"x_min":31,"x_max":583,"o":"m 31 0 m 261 129 q 272 68 261 90 q 305 38 282 47 q 367 29 328 29 l 367 0 l 346 1 q 199 5 260 5 q 52 1 137 5 l 31 0 l 31 29 q 93 38 70 29 q 126 68 115 47 q 136 129 136 90 l 136 922 q 113 1016 136 987 q 31 1044 90 1044 l 31 1074 q 117 1069 74 1069 q 261 1089 206 1069 l 261 129 m 494 498 q 539 487 518 498 q 571 454 559 475 q 583 410 583 433 q 571 366 583 386 q 539 333 559 345 q 494 321 518 321 q 450 333 471 321 q 417 366 429 345 q 406 410 406 386 q 417 454 406 433 q 450 487 429 475 q 494 498 471 498 z "},"ł":{"ha":397,"x_min":-21,"x_max":418,"o":"m 261 129 q 272 68 261 90 q 305 38 282 47 q 367 29 328 29 l 367 0 l 346 1 q 199 5 260 5 q 52 1 137 5 l 31 0 l 31 29 q 93 38 70 29 q 126 68 115 47 q 136 129 136 90 l 136 461 l -21 325 l -21 367 l 136 503 l 136 922 q 113 1016 136 987 q 31 1044 90 1044 l 31 1074 q 117 1069 74 1069 q 261 1089 206 1069 l 261 598 l 418 734 l 418 693 l 261 556 l 261 129 z "},"m":{"ha":1234,"x_min":40,"x_max":1213,"o":"m 1107 129 q 1117 68 1107 90 q 1151 38 1128 47 q 1213 29 1173 29 l 1213 0 l 1192 1 q 1046 5 1105 5 q 909 1 989 5 l 890 0 l 890 29 q 944 38 925 29 q 973 68 964 47 q 982 129 982 90 l 982 530 q 976 616 982 583 q 947 670 970 649 q 876 690 924 690 q 781 657 823 690 q 713 566 738 624 q 689 439 689 509 l 689 129 q 700 68 689 90 q 732 38 710 47 q 794 29 755 29 l 794 0 l 773 1 q 628 5 688 5 q 491 1 568 5 l 472 0 l 472 29 q 526 38 507 29 q 555 68 546 47 q 564 129 564 90 l 564 530 q 557 616 564 583 q 528 670 551 649 q 458 690 505 690 q 362 657 405 690 q 295 565 319 623 q 271 437 271 507 l 271 129 q 280 68 271 90 q 309 38 289 47 q 363 29 328 29 l 363 0 l 344 1 q 207 5 267 5 q 60 1 147 5 l 40 0 l 40 29 q 102 38 79 29 q 135 68 125 47 q 146 129 146 90 l 146 564 q 122 657 146 628 q 40 686 99 686 l 40 715 q 126 711 83 711 q 271 730 214 711 l 271 567 q 366 693 304 652 q 498 734 427 734 q 643 682 593 734 q 686 570 677 645 q 782 696 720 659 q 917 734 843 734 q 1061 682 1011 734 q 1097 611 1086 654 q 1107 500 1107 568 l 1107 129 z "},"n":{"ha":829,"x_min":40,"x_max":808,"o":"m 507 734 q 654 682 604 734 q 691 612 680 654 q 703 500 703 570 l 703 129 q 713 68 703 90 q 746 38 724 47 q 808 29 769 29 l 808 0 l 788 1 q 642 5 701 5 q 505 1 585 5 l 486 0 l 486 29 q 540 38 521 29 q 569 68 559 47 q 578 129 578 90 l 578 530 q 570 614 578 581 q 537 669 562 648 q 465 690 513 690 q 364 657 408 690 q 295 566 319 624 q 271 437 271 508 l 271 129 q 280 68 271 90 q 309 38 289 47 q 363 29 328 29 l 363 0 l 344 1 q 207 5 267 5 q 60 1 147 5 l 40 0 l 40 29 q 102 38 79 29 q 135 68 125 47 q 146 129 146 90 l 146 564 q 122 657 146 628 q 40 686 99 686 l 40 715 q 126 711 83 711 q 271 730 214 711 l 271 567 q 367 695 305 655 q 507 734 429 734 z "},"ń":{"ha":829,"x_min":40,"x_max":808,"o":"m 40 0 m 507 734 q 654 682 604 734 q 691 612 680 654 q 703 500 703 570 l 703 129 q 713 68 703 90 q 746 38 724 47 q 808 29 769 29 l 808 0 l 788 1 q 642 5 701 5 q 505 1 585 5 l 486 0 l 486 29 q 540 38 521 29 q 569 68 559 47 q 578 129 578 90 l 578 530 q 570 614 578 581 q 537 669 562 648 q 465 690 513 690 q 364 657 408 690 q 295 566 319 624 q 271 437 271 508 l 271 129 q 280 68 271 90 q 309 38 289 47 q 363 29 328 29 l 363 0 l 344 1 q 207 5 267 5 q 60 1 147 5 l 40 0 l 40 29 q 102 38 79 29 q 135 68 125 47 q 146 129 146 90 l 146 564 q 122 657 146 628 q 40 686 99 686 l 40 715 q 126 711 83 711 q 271 730 214 711 l 271 567 q 367 695 305 655 q 507 734 429 734 m 574 1129 q 593 1090 593 1114 q 574 1043 593 1068 q 494 966 554 1018 q 354 832 406 887 l 339 844 q 435 1013 384 914 q 490 1108 472 1084 q 543 1139 514 1139 q 574 1129 560 1139 z "},"ŉ":{"ha":829,"x_min":-45,"x_max":808,"o":"m 0 0 m 507 734 q 654 682 604 734 q 691 612 680 654 q 703 500 703 570 l 703 129 q 713 68 703 90 q 746 38 724 47 q 808 29 769 29 l 808 0 l 788 1 q 642 5 701 5 q 505 1 585 5 l 486 0 l 486 29 q 540 38 521 29 q 569 68 559 47 q 578 129 578 90 l 578 530 q 570 614 578 581 q 537 669 562 648 q 465 690 513 690 q 364 657 408 690 q 295 566 319 624 q 271 437 271 508 l 271 129 q 280 68 271 90 q 309 38 289 47 q 363 29 328 29 l 363 0 l 344 1 q 207 5 267 5 q 60 1 147 5 l 40 0 l 40 29 q 102 38 79 29 q 135 68 125 47 q 146 129 146 90 l 146 564 q 122 657 146 628 q 40 686 99 686 l 40 715 q 126 711 83 711 q 271 730 214 711 l 271 567 q 367 695 305 655 q 507 734 429 734 m 44 1055 q 126 1011 98 1055 q 150 920 150 975 q 114 794 150 850 q 7 705 79 739 l -6 730 q 68 788 37 749 q 100 867 100 827 q 96 896 100 884 q 44 878 72 878 q -19 902 6 878 q -45 966 -45 926 q -19 1030 -45 1004 q 44 1055 7 1055 z "},"ň":{"ha":829,"x_min":40,"x_max":808,"o":"m 40 0 m 507 734 q 654 682 604 734 q 691 612 680 654 q 703 500 703 570 l 703 129 q 713 68 703 90 q 746 38 724 47 q 808 29 769 29 l 808 0 l 788 1 q 642 5 701 5 q 505 1 585 5 l 486 0 l 486 29 q 540 38 521 29 q 569 68 559 47 q 578 129 578 90 l 578 530 q 570 614 578 581 q 537 669 562 648 q 465 690 513 690 q 364 657 408 690 q 295 566 319 624 q 271 437 271 508 l 271 129 q 280 68 271 90 q 309 38 289 47 q 363 29 328 29 l 363 0 l 344 1 q 207 5 267 5 q 60 1 147 5 l 40 0 l 40 29 q 102 38 79 29 q 135 68 125 47 q 146 129 146 90 l 146 564 q 122 657 146 628 q 40 686 99 686 l 40 715 q 126 711 83 711 q 271 730 214 711 l 271 567 q 367 695 305 655 q 507 734 429 734 m 656 1095 q 514 991 576 1055 q 424 856 452 926 l 399 856 q 308 991 370 926 q 167 1095 246 1055 l 178 1114 q 325 1050 254 1088 q 439 975 396 1012 q 531 1050 475 1013 q 645 1114 587 1088 l 656 1095 z "},"ņ":{"ha":829,"x_min":40,"x_max":808,"o":"m 40 0 m 507 734 q 654 682 604 734 q 691 612 680 654 q 703 500 703 570 l 703 129 q 713 68 703 90 q 746 38 724 47 q 808 29 769 29 l 808 0 l 788 1 q 642 5 701 5 q 505 1 585 5 l 486 0 l 486 29 q 540 38 521 29 q 569 68 559 47 q 578 129 578 90 l 578 530 q 570 614 578 581 q 537 669 562 648 q 465 690 513 690 q 364 657 408 690 q 295 566 319 624 q 271 437 271 508 l 271 129 q 280 68 271 90 q 309 38 289 47 q 363 29 328 29 l 363 0 l 344 1 q 207 5 267 5 q 60 1 147 5 l 40 0 l 40 29 q 102 38 79 29 q 135 68 125 47 q 146 129 146 90 l 146 564 q 122 657 146 628 q 40 686 99 686 l 40 715 q 126 711 83 711 q 271 730 214 711 l 271 567 q 367 695 305 655 q 507 734 429 734 m 429 -96 q 494 -124 469 -96 q 519 -193 519 -152 q 495 -278 519 -245 q 406 -335 470 -311 l 396 -310 q 457 -276 432 -299 q 482 -222 483 -253 q 424 -244 457 -244 q 372 -224 392 -244 q 351 -170 351 -205 q 374 -117 351 -138 q 429 -96 397 -96 z "},"ŋ":{"ha":804,"x_min":40,"x_max":703,"o":"m 507 733 q 654 681 604 733 q 691 611 680 652 q 703 498 703 569 l 703 160 q 687 -38 703 47 q 629 -176 672 -122 q 552 -239 597 -218 q 461 -261 507 -261 q 392 -240 416 -261 q 368 -187 368 -219 q 386 -140 368 -159 q 433 -122 404 -122 q 478 -140 461 -122 q 496 -184 496 -158 q 473 -240 496 -217 q 550 -205 527 -234 q 571 -161 565 -189 q 578 -90 578 -129 l 578 529 q 570 613 578 579 q 537 668 562 647 q 465 689 513 689 q 364 656 408 689 q 295 565 319 623 q 271 437 271 508 l 271 129 q 280 68 271 90 q 309 38 289 47 q 363 29 328 29 l 363 0 l 344 1 q 207 5 267 5 q 60 1 147 5 l 40 0 l 40 29 q 102 38 79 29 q 135 68 125 47 q 146 129 146 90 l 146 564 q 122 657 146 628 q 40 686 99 686 l 40 715 q 126 711 83 711 q 271 730 214 711 l 271 567 q 367 694 305 655 q 507 733 429 733 z "},"ñ":{"ha":829,"x_min":40,"x_max":808,"o":"m 40 0 m 507 734 q 654 682 604 734 q 691 612 680 654 q 703 500 703 570 l 703 129 q 713 68 703 90 q 746 38 724 47 q 808 29 769 29 l 808 0 l 788 1 q 642 5 701 5 q 505 1 585 5 l 486 0 l 486 29 q 540 38 521 29 q 569 68 559 47 q 578 129 578 90 l 578 530 q 570 614 578 581 q 537 669 562 648 q 465 690 513 690 q 364 657 408 690 q 295 566 319 624 q 271 437 271 508 l 271 129 q 280 68 271 90 q 309 38 289 47 q 363 29 328 29 l 363 0 l 344 1 q 207 5 267 5 q 60 1 147 5 l 40 0 l 40 29 q 102 38 79 29 q 135 68 125 47 q 146 129 146 90 l 146 564 q 122 657 146 628 q 40 686 99 686 l 40 715 q 126 711 83 711 q 271 730 214 711 l 271 567 q 367 695 305 655 q 507 734 429 734 m 323 1067 q 383 1054 357 1067 q 439 1017 408 1042 q 487 986 467 996 q 532 975 507 975 q 640 1048 595 975 l 659 1039 q 594 931 638 966 q 495 896 551 896 q 433 909 459 896 q 376 947 407 922 q 329 979 348 968 q 284 989 309 989 q 177 914 222 989 l 157 924 q 222 1032 178 997 q 323 1067 266 1067 z "},"o":{"ha":761,"x_min":65,"x_max":696,"o":"m 380 734 q 543 694 472 734 q 655 570 614 654 q 696 357 696 486 q 655 144 696 228 q 543 20 614 60 q 380 -20 472 -20 q 218 20 289 -20 q 106 144 147 60 q 65 357 65 228 q 106 570 65 486 q 218 694 147 654 q 380 734 289 734 m 380 707 q 249 621 297 707 q 200 357 200 536 q 249 93 200 178 q 380 8 297 8 q 512 93 464 8 q 561 357 561 178 q 512 621 561 536 q 380 707 464 707 z "},"ó":{"ha":761,"x_min":65,"x_max":696,"o":"m 65 0 m 380 734 q 543 694 472 734 q 655 570 614 654 q 696 357 696 486 q 655 144 696 228 q 543 20 614 60 q 380 -20 472 -20 q 218 20 289 -20 q 106 144 147 60 q 65 357 65 228 q 106 570 65 486 q 218 694 147 654 q 380 734 289 734 m 380 707 q 249 621 297 707 q 200 357 200 536 q 249 93 200 178 q 380 8 297 8 q 512 93 464 8 q 561 357 561 178 q 512 621 561 536 q 380 707 464 707 m 533 1129 q 552 1090 552 1114 q 533 1043 552 1068 q 454 966 513 1018 q 313 832 366 887 l 298 844 q 394 1013 343 914 q 450 1108 431 1084 q 503 1139 473 1139 q 533 1129 519 1139 z "},"ŏ":{"ha":761,"x_min":65,"x_max":696,"o":"m 65 0 m 380 734 q 543 694 472 734 q 655 570 614 654 q 696 357 696 486 q 655 144 696 228 q 543 20 614 60 q 380 -20 472 -20 q 218 20 289 -20 q 106 144 147 60 q 65 357 65 228 q 106 570 65 486 q 218 694 147 654 q 380 734 289 734 m 380 707 q 249 621 297 707 q 200 357 200 536 q 249 93 200 178 q 380 8 297 8 q 512 93 464 8 q 561 357 561 178 q 512 621 561 536 q 380 707 464 707 m 632 1082 q 534 939 597 999 q 383 879 471 879 q 233 939 296 879 q 135 1082 170 999 l 158 1095 q 383 961 239 961 q 519 999 465 961 q 608 1095 574 1038 l 632 1082 z "},"ô":{"ha":761,"x_min":65,"x_max":696,"o":"m 65 0 m 380 734 q 543 694 472 734 q 655 570 614 654 q 696 357 696 486 q 655 144 696 228 q 543 20 614 60 q 380 -20 472 -20 q 218 20 289 -20 q 106 144 147 60 q 65 357 65 228 q 106 570 65 486 q 218 694 147 654 q 380 734 289 734 m 380 707 q 249 621 297 707 q 200 357 200 536 q 249 93 200 178 q 380 8 297 8 q 512 93 464 8 q 561 357 561 178 q 512 621 561 536 q 380 707 464 707 m 397 1114 q 487 979 425 1043 q 629 875 549 914 l 618 856 q 471 919 543 882 q 357 994 400 957 q 266 919 321 957 q 151 856 210 882 l 140 875 q 281 979 219 914 q 372 1114 343 1043 l 397 1114 z "},"ö":{"ha":761,"x_min":65,"x_max":696,"o":"m 65 0 m 380 734 q 543 694 472 734 q 655 570 614 654 q 696 357 696 486 q 655 144 696 228 q 543 20 614 60 q 380 -20 472 -20 q 218 20 289 -20 q 106 144 147 60 q 65 357 65 228 q 106 570 65 486 q 218 694 147 654 q 380 734 289 734 m 380 707 q 249 621 297 707 q 200 357 200 536 q 249 93 200 178 q 380 8 297 8 q 512 93 464 8 q 561 357 561 178 q 512 621 561 536 q 380 707 464 707 m 239 1032 q 278 1021 260 1032 q 308 991 297 1010 q 319 951 319 972 q 308 911 319 930 q 279 882 297 892 q 239 871 260 871 q 182 895 205 871 q 158 951 158 918 q 169 991 158 972 q 198 1021 180 1010 q 239 1032 217 1032 m 533 1032 q 573 1021 554 1032 q 603 991 591 1010 q 614 951 614 972 q 603 911 614 930 q 573 882 591 892 q 533 871 555 871 q 476 895 500 871 q 453 951 453 918 q 464 991 453 972 q 493 1021 475 1010 q 533 1032 511 1032 z "},"ò":{"ha":761,"x_min":65,"x_max":696,"o":"m 65 0 m 380 734 q 543 694 472 734 q 655 570 614 654 q 696 357 696 486 q 655 144 696 228 q 543 20 614 60 q 380 -20 472 -20 q 218 20 289 -20 q 106 144 147 60 q 65 357 65 228 q 106 570 65 486 q 218 694 147 654 q 380 734 289 734 m 380 707 q 249 621 297 707 q 200 357 200 536 q 249 93 200 178 q 380 8 297 8 q 512 93 464 8 q 561 357 561 178 q 512 621 561 536 q 380 707 464 707 m 214 1129 q 243 1139 227 1139 q 297 1108 273 1139 q 353 1013 315 1084 q 448 844 404 914 l 433 832 q 293 965 372 896 q 214 1043 235 1016 q 195 1090 195 1068 q 214 1129 195 1114 z "},"ő":{"ha":761,"x_min":65,"x_max":702,"o":"m 65 0 m 380 734 q 543 694 472 734 q 655 570 614 654 q 696 357 696 486 q 655 144 696 228 q 543 20 614 60 q 380 -20 472 -20 q 218 20 289 -20 q 106 144 147 60 q 65 357 65 228 q 106 570 65 486 q 218 694 147 654 q 380 734 289 734 m 380 707 q 249 621 297 707 q 200 357 200 536 q 249 93 200 178 q 380 8 297 8 q 512 93 464 8 q 561 357 561 178 q 512 621 561 536 q 380 707 464 707 m 435 1129 q 454 1090 454 1114 q 435 1043 454 1068 q 356 965 414 1016 q 216 832 277 896 l 201 844 q 296 1013 245 914 q 352 1108 334 1084 q 406 1139 376 1139 q 435 1129 422 1139 m 683 1129 q 702 1090 702 1114 q 683 1043 702 1068 q 604 966 663 1018 q 463 832 524 896 l 448 844 q 544 1013 493 914 q 600 1108 581 1084 q 652 1139 623 1139 q 683 1129 670 1139 z "},"ō":{"ha":761,"x_min":65,"x_max":696,"o":"m 65 0 m 380 734 q 543 694 472 734 q 655 570 614 654 q 696 357 696 486 q 655 144 696 228 q 543 20 614 60 q 380 -20 472 -20 q 218 20 289 -20 q 106 144 147 60 q 65 357 65 228 q 106 570 65 486 q 218 694 147 654 q 380 734 289 734 m 380 707 q 249 621 297 707 q 200 357 200 536 q 249 93 200 178 q 380 8 297 8 q 512 93 464 8 q 561 357 561 178 q 512 621 561 536 q 380 707 464 707 m 163 954 l 163 989 l 597 989 l 597 954 l 163 954 z "},"ø":{"ha":760,"x_min":61,"x_max":701,"o":"m 601 649 q 696 357 696 552 q 655 144 696 228 q 543 20 614 60 q 380 -20 472 -20 q 187 41 265 -20 l 90 -102 l 61 -82 l 161 64 q 65 357 65 162 q 106 570 65 486 q 218 694 147 654 q 380 734 289 734 q 576 671 498 734 l 675 815 l 701 798 l 601 649 m 380 707 q 249 621 297 707 q 200 357 200 536 q 228 143 200 227 l 520 606 q 380 707 474 707 m 380 8 q 512 93 464 8 q 561 357 561 178 q 534 568 561 485 l 243 104 q 380 8 290 8 z "},"õ":{"ha":761,"x_min":65,"x_max":696,"o":"m 65 0 m 380 734 q 543 694 472 734 q 655 570 614 654 q 696 357 696 486 q 655 144 696 228 q 543 20 614 60 q 380 -20 472 -20 q 218 20 289 -20 q 106 144 147 60 q 65 357 65 228 q 106 570 65 486 q 218 694 147 654 q 380 734 289 734 m 380 707 q 249 621 297 707 q 200 357 200 536 q 249 93 200 178 q 380 8 297 8 q 512 93 464 8 q 561 357 561 178 q 512 621 561 536 q 380 707 464 707 m 282 1067 q 342 1054 317 1067 q 399 1017 368 1042 q 446 986 426 996 q 492 975 466 975 q 599 1048 555 975 l 618 1039 q 554 931 597 966 q 454 896 510 896 q 392 909 418 896 q 336 947 366 922 q 288 979 307 968 q 243 989 269 989 q 136 914 182 989 l 117 924 q 181 1032 138 997 q 282 1067 225 1067 z "},"œ":{"ha":1160,"x_min":66,"x_max":1100,"o":"m 1100 167 q 1051 76 1084 118 q 967 7 1017 33 q 854 -20 916 -20 q 704 22 768 -20 q 604 138 640 63 q 507 19 568 58 q 368 -20 446 -20 q 213 20 281 -20 q 106 144 145 60 q 66 357 66 229 q 106 570 66 486 q 213 693 145 654 q 368 733 281 733 q 510 693 448 733 q 606 570 572 652 q 705 692 642 649 q 848 734 767 734 q 1031 659 967 734 q 1095 429 1095 583 l 674 429 q 669 340 669 392 q 700 180 669 249 q 779 75 730 112 q 882 39 827 39 q 991 71 944 39 q 1072 178 1039 103 l 1100 167 m 843 708 q 764 681 800 708 q 704 597 728 654 q 672 456 680 541 l 961 456 q 950 583 963 526 q 910 674 938 640 q 843 708 883 708 m 368 8 q 490 93 445 8 q 534 357 534 178 q 490 620 534 535 q 368 705 445 705 q 246 621 291 705 q 201 357 201 536 q 246 93 201 178 q 368 8 291 8 z "},"p":{"ha":807,"x_min":31,"x_max":742,"o":"m 484 734 q 616 694 557 734 q 708 576 675 654 q 742 390 742 498 q 708 190 742 283 q 603 39 674 97 q 424 -20 531 -20 q 328 1 371 -20 q 261 56 286 22 l 261 -122 q 294 -200 261 -178 q 395 -222 328 -222 l 395 -252 l 356 -250 q 195 -245 255 -245 q 71 -250 147 -245 q 45 -252 51 -252 l 45 -222 q 116 -204 96 -222 q 136 -136 136 -185 l 136 564 q 113 657 136 628 q 31 686 90 686 l 31 715 q 117 711 74 711 q 261 730 205 711 l 261 584 q 351 695 292 656 q 484 734 410 734 m 408 12 q 607 371 607 12 q 446 693 607 693 q 333 648 382 693 q 261 517 283 603 l 261 102 q 319 36 281 60 q 408 12 356 12 z "},"þ":{"ha":777,"x_min":0,"x_max":711,"o":"m 453 734 q 586 694 527 734 q 678 576 644 654 q 711 390 711 498 q 677 190 711 283 q 572 39 644 97 q 393 -20 500 -20 q 298 1 340 -20 q 231 56 255 22 l 231 -122 q 264 -200 231 -178 q 364 -222 297 -222 l 364 -252 l 325 -250 q 164 -245 225 -245 q 40 -250 116 -245 q 14 -252 20 -252 l 14 -222 q 68 -215 48 -222 q 97 -188 87 -207 q 106 -136 106 -170 l 106 921 q 82 1014 106 985 q 0 1043 59 1043 l 0 1072 q 86 1068 43 1068 q 231 1088 176 1068 l 231 584 q 320 695 262 656 q 453 734 379 734 m 378 12 q 576 371 576 12 q 415 693 576 693 q 302 648 352 693 q 231 517 252 603 l 231 102 q 288 36 251 60 q 378 12 325 12 z "},"q":{"ha":782,"x_min":65,"x_max":762,"o":"m 671 -136 q 691 -204 671 -185 q 762 -222 711 -222 l 762 -252 q 736 -250 756 -252 q 612 -245 660 -245 q 451 -250 552 -245 l 412 -252 l 412 -222 q 513 -200 479 -222 q 546 -122 546 -178 l 546 117 q 467 16 518 52 q 351 -20 416 -20 q 205 22 270 -20 q 103 149 140 64 q 65 357 65 234 q 104 565 65 479 q 210 692 143 650 q 363 734 277 734 q 480 710 433 734 q 558 633 528 686 l 575 651 q 657 737 616 695 l 681 728 q 671 647 671 694 l 671 -136 m 392 22 q 485 64 443 22 q 546 183 528 106 l 546 610 q 374 703 492 703 q 245 616 290 703 q 200 357 200 530 q 249 106 200 191 q 392 22 298 22 z "},"r":{"ha":618,"x_min":40,"x_max":599,"o":"m 472 734 q 537 720 509 734 q 583 680 566 705 q 599 625 599 655 q 577 563 599 589 q 519 538 555 538 q 467 557 489 538 q 446 610 446 576 q 493 685 446 655 q 464 699 484 699 q 365 656 409 699 q 296 553 321 614 q 271 437 271 491 l 271 143 q 307 54 271 79 q 418 29 344 29 l 418 0 q 385 1 410 0 q 204 5 246 5 q 63 1 171 5 q 40 0 45 0 l 40 29 q 102 38 79 29 q 135 68 125 47 q 146 129 146 90 l 146 564 q 122 657 146 628 q 40 686 99 686 l 40 715 q 126 711 83 711 q 271 730 214 711 l 271 557 q 316 641 286 600 q 386 708 345 682 q 472 734 427 734 z "},"ŕ":{"ha":618,"x_min":40,"x_max":599,"o":"m 40 0 m 472 734 q 537 720 509 734 q 583 680 566 705 q 599 625 599 655 q 577 563 599 589 q 519 538 555 538 q 467 557 489 538 q 446 610 446 576 q 493 685 446 655 q 464 699 484 699 q 365 656 409 699 q 296 553 321 614 q 271 437 271 491 l 271 143 q 307 54 271 79 q 418 29 344 29 l 418 0 q 385 1 410 0 q 204 5 246 5 q 63 1 171 5 q 40 0 45 0 l 40 29 q 102 38 79 29 q 135 68 125 47 q 146 129 146 90 l 146 564 q 122 657 146 628 q 40 686 99 686 l 40 715 q 126 711 83 711 q 271 730 214 711 l 271 557 q 316 641 286 600 q 386 708 345 682 q 472 734 427 734 m 476 1129 q 495 1090 495 1114 q 476 1043 495 1068 q 397 966 456 1018 q 256 832 309 887 l 241 844 q 337 1013 286 914 q 393 1108 374 1084 q 446 1139 416 1139 q 476 1129 463 1139 z "},"ř":{"ha":618,"x_min":40,"x_max":599,"o":"m 40 0 m 472 734 q 537 720 509 734 q 583 680 566 705 q 599 625 599 655 q 577 563 599 589 q 519 538 555 538 q 467 557 489 538 q 446 610 446 576 q 493 685 446 655 q 464 699 484 699 q 365 656 409 699 q 296 553 321 614 q 271 437 271 491 l 271 143 q 307 54 271 79 q 418 29 344 29 l 418 0 q 385 1 410 0 q 204 5 246 5 q 63 1 171 5 q 40 0 45 0 l 40 29 q 102 38 79 29 q 135 68 125 47 q 146 129 146 90 l 146 564 q 122 657 146 628 q 40 686 99 686 l 40 715 q 126 711 83 711 q 271 730 214 711 l 271 557 q 316 641 286 600 q 386 708 345 682 q 472 734 427 734 m 558 1095 q 417 991 479 1055 q 326 856 355 926 l 301 856 q 211 991 273 926 q 69 1095 149 1055 l 81 1114 q 227 1050 156 1088 q 342 975 298 1012 q 433 1050 377 1013 q 547 1114 489 1088 l 558 1095 z "},"ŗ":{"ha":618,"x_min":40,"x_max":599,"o":"m 40 0 m 472 734 q 537 720 509 734 q 583 680 566 705 q 599 625 599 655 q 577 563 599 589 q 519 538 555 538 q 467 557 489 538 q 446 610 446 576 q 493 685 446 655 q 464 699 484 699 q 365 656 409 699 q 296 553 321 614 q 271 437 271 491 l 271 143 q 307 54 271 79 q 418 29 344 29 l 418 0 q 385 1 410 0 q 204 5 246 5 q 63 1 171 5 q 40 0 45 0 l 40 29 q 102 38 79 29 q 135 68 125 47 q 146 129 146 90 l 146 564 q 122 657 146 628 q 40 686 99 686 l 40 715 q 126 711 83 711 q 271 730 214 711 l 271 557 q 316 641 286 600 q 386 708 345 682 q 472 734 427 734 m 225 -96 q 290 -124 265 -96 q 315 -193 315 -152 q 291 -278 315 -245 q 201 -335 266 -311 l 192 -310 q 253 -276 228 -299 q 278 -222 279 -253 q 220 -244 253 -244 q 168 -224 188 -244 q 147 -170 147 -205 q 170 -117 147 -138 q 225 -96 193 -96 z "},"s":{"ha":619,"x_min":77,"x_max":554,"o":"m 288 734 q 375 719 336 734 q 439 684 414 703 q 463 672 454 672 q 494 733 488 672 l 526 733 q 521 497 521 665 l 489 497 q 430 648 474 589 q 300 708 386 708 q 218 680 250 708 q 186 602 186 652 q 203 541 186 568 q 248 494 221 515 q 325 443 275 474 l 364 418 q 467 344 428 376 q 530 270 506 312 q 554 175 554 229 q 522 70 554 113 q 435 3 490 26 q 317 -20 381 -20 q 207 0 255 -20 q 150 37 180 14 q 137 43 144 43 q 109 -9 117 43 l 77 -9 q 82 268 82 70 l 114 268 q 143 126 124 182 q 201 39 162 71 q 307 8 241 8 q 366 21 338 8 q 412 64 394 35 q 431 140 431 94 q 411 209 431 178 q 361 263 392 239 q 273 322 330 287 q 169 393 205 366 q 107 461 132 421 q 82 555 82 501 q 110 655 82 614 q 184 715 138 695 q 288 734 231 734 z "},"ś":{"ha":619,"x_min":77,"x_max":554,"o":"m 77 0 m 288 734 q 375 719 336 734 q 439 684 414 703 q 463 672 454 672 q 494 733 488 672 l 526 733 q 521 497 521 665 l 489 497 q 430 648 474 589 q 300 708 386 708 q 218 680 250 708 q 186 602 186 652 q 203 541 186 568 q 248 494 221 515 q 325 443 275 474 l 364 418 q 467 344 428 376 q 530 270 506 312 q 554 175 554 229 q 522 70 554 113 q 435 3 490 26 q 317 -20 381 -20 q 207 0 255 -20 q 150 37 180 14 q 137 43 144 43 q 109 -9 117 43 l 77 -9 q 82 268 82 70 l 114 268 q 143 126 124 182 q 201 39 162 71 q 307 8 241 8 q 366 21 338 8 q 412 64 394 35 q 431 140 431 94 q 411 209 431 178 q 361 263 392 239 q 273 322 330 287 q 169 393 205 366 q 107 461 132 421 q 82 555 82 501 q 110 655 82 614 q 184 715 138 695 q 288 734 231 734 m 465 1129 q 484 1090 484 1114 q 465 1043 484 1068 q 386 966 446 1018 q 245 832 298 887 l 231 844 q 326 1013 275 914 q 382 1108 363 1084 q 435 1139 406 1139 q 465 1129 452 1139 z "},"š":{"ha":619,"x_min":58,"x_max":554,"o":"m 58 0 m 288 734 q 375 719 336 734 q 439 684 414 703 q 463 672 454 672 q 494 733 488 672 l 526 733 q 521 497 521 665 l 489 497 q 430 648 474 589 q 300 708 386 708 q 218 680 250 708 q 186 602 186 652 q 203 541 186 568 q 248 494 221 515 q 325 443 275 474 l 364 418 q 467 344 428 376 q 530 270 506 312 q 554 175 554 229 q 522 70 554 113 q 435 3 490 26 q 317 -20 381 -20 q 207 0 255 -20 q 150 37 180 14 q 137 43 144 43 q 109 -9 117 43 l 77 -9 q 82 268 82 70 l 114 268 q 143 126 124 182 q 201 39 162 71 q 307 8 241 8 q 366 21 338 8 q 412 64 394 35 q 431 140 431 94 q 411 209 431 178 q 361 263 392 239 q 273 322 330 287 q 169 393 205 366 q 107 461 132 421 q 82 555 82 501 q 110 655 82 614 q 184 715 138 695 q 288 734 231 734 m 547 1095 q 406 991 468 1055 q 315 856 344 926 l 290 856 q 200 991 262 926 q 58 1095 138 1055 l 70 1114 q 216 1050 145 1088 q 331 975 288 1012 q 422 1050 366 1013 q 536 1114 478 1088 l 547 1095 z "},"ş":{"ha":619,"x_min":77,"x_max":554,"o":"m 302 -20 l 276 -100 q 358 -90 317 -90 q 420 -107 397 -90 q 443 -155 443 -125 q 419 -216 443 -192 q 359 -250 395 -239 q 286 -261 323 -261 q 170 -245 214 -261 l 176 -221 q 229 -225 205 -225 q 316 -211 279 -225 q 354 -163 354 -196 q 296 -123 354 -123 q 227 -134 256 -123 l 267 -16 q 207 0 235 -12 q 150 37 180 14 q 137 43 144 43 q 109 -9 117 43 l 77 -9 q 82 268 82 70 l 114 268 q 143 126 124 182 q 201 39 162 71 q 307 8 241 8 q 366 21 338 8 q 412 64 394 35 q 431 140 431 94 q 411 209 431 178 q 361 263 392 239 q 273 322 330 287 q 169 393 205 366 q 107 461 132 421 q 82 555 82 501 q 110 655 82 614 q 184 715 138 695 q 288 734 231 734 q 375 719 336 734 q 439 684 414 703 q 463 672 454 672 q 494 733 488 672 l 526 733 q 521 497 521 665 l 489 497 q 430 648 474 589 q 300 708 386 708 q 218 680 250 708 q 186 602 186 652 q 203 541 186 568 q 248 494 221 515 q 325 443 275 474 l 364 418 q 467 344 428 376 q 530 270 506 312 q 554 175 554 229 q 522 70 554 113 q 435 3 490 26 q 317 -20 381 -20 l 302 -20 z "},"ŝ":{"ha":619,"x_min":72,"x_max":561,"o":"m 72 0 m 288 734 q 375 719 336 734 q 439 684 414 703 q 463 672 454 672 q 494 733 488 672 l 526 733 q 521 497 521 665 l 489 497 q 430 648 474 589 q 300 708 386 708 q 218 680 250 708 q 186 602 186 652 q 203 541 186 568 q 248 494 221 515 q 325 443 275 474 l 364 418 q 467 344 428 376 q 530 270 506 312 q 554 175 554 229 q 522 70 554 113 q 435 3 490 26 q 317 -20 381 -20 q 207 0 255 -20 q 150 37 180 14 q 137 43 144 43 q 109 -9 117 43 l 77 -9 q 82 268 82 70 l 114 268 q 143 126 124 182 q 201 39 162 71 q 307 8 241 8 q 366 21 338 8 q 412 64 394 35 q 431 140 431 94 q 411 209 431 178 q 361 263 392 239 q 273 322 330 287 q 169 393 205 366 q 107 461 132 421 q 82 555 82 501 q 110 655 82 614 q 184 715 138 695 q 288 734 231 734 m 329 1114 q 419 979 357 1043 q 561 875 481 914 l 550 856 q 404 919 475 882 q 289 994 332 957 q 198 919 254 957 q 83 856 142 882 l 72 875 q 213 979 151 914 q 304 1114 275 1043 l 329 1114 z "},"ș":{"ha":619,"x_min":77,"x_max":554,"o":"m 77 0 m 288 734 q 375 719 336 734 q 439 684 414 703 q 463 672 454 672 q 494 733 488 672 l 526 733 q 521 497 521 665 l 489 497 q 430 648 474 589 q 300 708 386 708 q 218 680 250 708 q 186 602 186 652 q 203 541 186 568 q 248 494 221 515 q 325 443 275 474 l 364 418 q 467 344 428 376 q 530 270 506 312 q 554 175 554 229 q 522 70 554 113 q 435 3 490 26 q 317 -20 381 -20 q 207 0 255 -20 q 150 37 180 14 q 137 43 144 43 q 109 -9 117 43 l 77 -9 q 82 268 82 70 l 114 268 q 143 126 124 182 q 201 39 162 71 q 307 8 241 8 q 366 21 338 8 q 412 64 394 35 q 431 140 431 94 q 411 209 431 178 q 361 263 392 239 q 273 322 330 287 q 169 393 205 366 q 107 461 132 421 q 82 555 82 501 q 110 655 82 614 q 184 715 138 695 q 288 734 231 734 m 307 -96 q 372 -124 347 -96 q 397 -193 397 -152 q 373 -278 397 -245 q 283 -335 348 -311 l 274 -310 q 335 -276 310 -299 q 360 -222 361 -253 q 302 -244 335 -244 q 250 -224 270 -244 q 229 -170 229 -205 q 252 -117 229 -138 q 307 -96 275 -96 z "},"ß":{"ha":811,"x_min":29,"x_max":753,"o":"m 408 1086 q 591 1034 527 1086 q 654 888 654 981 q 614 762 654 821 q 518 661 574 703 q 418 602 463 620 q 585 530 509 581 q 707 406 661 480 q 753 243 753 332 q 718 104 753 164 q 626 13 684 45 q 501 -20 568 -20 q 422 -6 461 -20 q 357 34 383 7 q 332 100 332 61 q 351 154 332 134 q 404 175 370 175 q 457 157 436 175 q 478 107 478 138 q 418 35 478 54 q 444 12 422 22 q 490 1 465 1 q 557 23 526 1 q 609 92 589 44 q 629 216 629 140 q 604 374 629 298 q 527 508 579 450 q 399 589 475 565 q 347 568 366 568 q 328 574 336 568 q 319 591 319 581 q 328 611 319 604 q 351 618 336 618 q 401 607 372 618 q 499 725 470 660 q 529 882 529 790 q 494 1018 529 970 q 393 1065 460 1065 q 300 1023 340 1065 q 260 867 260 981 l 260 -16 q 115 4 205 4 q 29 0 73 4 l 29 29 q 112 58 88 29 q 135 151 135 87 l 135 747 q 208 1006 135 925 q 408 1086 280 1086 z "},"t":{"ha":492,"x_min":5,"x_max":505,"o":"m 469 714 l 469 686 l 264 686 l 264 149 q 286 58 264 85 q 353 31 309 31 q 427 65 396 31 q 478 179 457 100 l 505 172 q 325 -20 471 -20 q 248 -8 278 -20 q 193 26 217 3 q 151 101 163 57 q 139 221 139 146 l 139 686 l 5 686 l 5 714 l 139 714 l 139 926 q 264 946 217 928 l 264 714 l 469 714 z "},"ŧ":{"ha":522,"x_min":9,"x_max":509,"o":"m 509 172 q 329 -20 475 -20 q 252 -8 282 -20 q 197 26 221 3 q 155 101 168 57 q 143 221 143 146 l 143 557 l 9 557 l 9 585 l 143 585 l 143 686 l 9 686 l 9 714 l 143 714 l 143 926 q 268 946 221 928 l 268 714 l 473 714 l 473 686 l 268 686 l 268 585 l 473 585 l 473 557 l 268 557 l 268 149 q 290 58 268 85 q 357 31 313 31 q 431 65 400 31 q 482 179 461 100 l 509 172 z "},"ť":{"ha":492,"x_min":5,"x_max":505,"o":"m 5 0 m 469 714 l 469 686 l 264 686 l 264 149 q 286 58 264 85 q 353 31 309 31 q 427 65 396 31 q 478 179 457 100 l 505 172 q 325 -20 471 -20 q 248 -8 278 -20 q 193 26 217 3 q 151 101 163 57 q 139 221 139 146 l 139 686 l 5 686 l 5 714 l 139 714 l 139 926 q 264 946 217 928 l 264 714 l 469 714 m 464 1088 q 469 1062 467 1080 q 471 1031 471 1044 q 451 942 471 994 q 378 781 430 889 l 359 786 q 387 987 387 947 q 381 1030 387 1017 q 359 1043 375 1043 l 359 1072 q 381 1072 367 1072 q 464 1088 422 1072 z "},"ţ":{"ha":492,"x_min":5,"x_max":505,"o":"m 366 -90 q 428 -107 406 -90 q 451 -155 451 -125 q 427 -216 451 -192 q 367 -250 403 -239 q 294 -261 331 -261 q 178 -245 222 -261 l 184 -221 q 237 -225 213 -225 q 325 -211 287 -225 q 362 -163 362 -196 q 304 -123 362 -123 q 235 -134 264 -123 l 275 -16 q 193 26 227 -7 q 151 101 163 57 q 139 221 139 146 l 139 686 l 5 686 l 5 714 l 139 714 l 139 926 q 264 946 217 928 l 264 714 l 469 714 l 469 686 l 264 686 l 264 149 q 286 58 264 85 q 353 31 309 31 q 427 65 396 31 q 478 179 457 100 l 505 172 q 325 -20 471 -20 l 311 -20 l 284 -100 q 366 -90 326 -90 z "},"ț":{"ha":492,"x_min":5,"x_max":505,"o":"m 5 0 m 469 714 l 469 686 l 264 686 l 264 149 q 286 58 264 85 q 353 31 309 31 q 427 65 396 31 q 478 179 457 100 l 505 172 q 325 -20 471 -20 q 248 -8 278 -20 q 193 26 217 3 q 151 101 163 57 q 139 221 139 146 l 139 686 l 5 686 l 5 714 l 139 714 l 139 926 q 264 946 217 928 l 264 714 l 469 714 m 315 -96 q 380 -124 355 -96 q 406 -193 406 -152 q 381 -278 406 -245 q 292 -335 356 -311 l 282 -310 q 343 -276 318 -299 q 368 -222 369 -253 q 310 -244 343 -244 q 258 -224 278 -244 q 237 -170 237 -205 q 260 -117 237 -138 q 315 -96 283 -96 z "},"u":{"ha":807,"x_min":22,"x_max":777,"o":"m 671 150 q 694 57 671 85 q 777 28 718 28 l 777 -1 q 690 3 733 3 q 546 -17 601 3 l 546 147 q 451 21 512 62 q 318 -20 391 -20 q 174 33 224 -20 q 138 104 149 60 q 127 215 127 147 l 127 564 q 104 657 127 628 q 22 686 81 686 l 22 715 q 109 711 66 711 q 253 730 196 711 l 253 184 q 259 99 253 132 q 288 46 265 66 q 358 25 311 25 q 454 58 412 25 q 522 149 497 92 q 546 277 546 207 l 546 564 q 523 657 546 628 q 440 686 499 686 l 440 715 q 526 711 484 711 q 671 730 614 711 l 671 150 z "},"ú":{"ha":807,"x_min":22,"x_max":777,"o":"m 22 0 m 671 150 q 694 57 671 85 q 777 28 718 28 l 777 -1 q 690 3 733 3 q 546 -17 601 3 l 546 147 q 451 21 512 62 q 318 -20 391 -20 q 174 33 224 -20 q 138 104 149 60 q 127 215 127 147 l 127 564 q 104 657 127 628 q 22 686 81 686 l 22 715 q 109 711 66 711 q 253 730 196 711 l 253 184 q 259 99 253 132 q 288 46 265 66 q 358 25 311 25 q 454 58 412 25 q 522 149 497 92 q 546 277 546 207 l 546 564 q 523 657 546 628 q 440 686 499 686 l 440 715 q 526 711 484 711 q 671 730 614 711 l 671 150 m 537 1129 q 556 1090 556 1114 q 537 1043 556 1068 q 458 966 517 1018 q 317 832 370 887 l 302 844 q 398 1013 347 914 q 454 1108 435 1084 q 507 1139 477 1139 q 537 1129 524 1139 z "},"ŭ":{"ha":807,"x_min":22,"x_max":777,"o":"m 22 0 m 671 150 q 694 57 671 85 q 777 28 718 28 l 777 -1 q 690 3 733 3 q 546 -17 601 3 l 546 147 q 451 21 512 62 q 318 -20 391 -20 q 174 33 224 -20 q 138 104 149 60 q 127 215 127 147 l 127 564 q 104 657 127 628 q 22 686 81 686 l 22 715 q 109 711 66 711 q 253 730 196 711 l 253 184 q 259 99 253 132 q 288 46 265 66 q 358 25 311 25 q 454 58 412 25 q 522 149 497 92 q 546 277 546 207 l 546 564 q 523 657 546 628 q 440 686 499 686 l 440 715 q 526 711 484 711 q 671 730 614 711 l 671 150 m 636 1082 q 538 939 602 999 q 387 879 475 879 q 237 939 300 879 q 139 1082 174 999 l 162 1095 q 387 961 243 961 q 524 999 469 961 q 612 1095 578 1038 l 636 1082 z "},"û":{"ha":807,"x_min":22,"x_max":777,"o":"m 22 0 m 671 150 q 694 57 671 85 q 777 28 718 28 l 777 -1 q 690 3 733 3 q 546 -17 601 3 l 546 147 q 451 21 512 62 q 318 -20 391 -20 q 174 33 224 -20 q 138 104 149 60 q 127 215 127 147 l 127 564 q 104 657 127 628 q 22 686 81 686 l 22 715 q 109 711 66 711 q 253 730 196 711 l 253 184 q 259 99 253 132 q 288 46 265 66 q 358 25 311 25 q 454 58 412 25 q 522 149 497 92 q 546 277 546 207 l 546 564 q 523 657 546 628 q 440 686 499 686 l 440 715 q 526 711 484 711 q 671 730 614 711 l 671 150 m 401 1114 q 491 979 429 1043 q 633 875 553 914 l 622 856 q 475 919 547 882 q 361 994 404 957 q 270 919 326 957 q 155 856 214 882 l 144 875 q 285 979 223 914 q 376 1114 347 1043 l 401 1114 z "},"ü":{"ha":807,"x_min":22,"x_max":777,"o":"m 22 0 m 671 150 q 694 57 671 85 q 777 28 718 28 l 777 -1 q 690 3 733 3 q 546 -17 601 3 l 546 147 q 451 21 512 62 q 318 -20 391 -20 q 174 33 224 -20 q 138 104 149 60 q 127 215 127 147 l 127 564 q 104 657 127 628 q 22 686 81 686 l 22 715 q 109 711 66 711 q 253 730 196 711 l 253 184 q 259 99 253 132 q 288 46 265 66 q 358 25 311 25 q 454 58 412 25 q 522 149 497 92 q 546 277 546 207 l 546 564 q 523 657 546 628 q 440 686 499 686 l 440 715 q 526 711 484 711 q 671 730 614 711 l 671 150 m 243 1032 q 282 1021 264 1032 q 312 991 301 1010 q 323 951 323 972 q 312 911 323 930 q 283 882 301 892 q 243 871 264 871 q 186 895 210 871 q 162 951 162 918 q 173 991 162 972 q 202 1021 184 1010 q 243 1032 221 1032 m 537 1032 q 577 1021 558 1032 q 607 991 595 1010 q 618 951 618 972 q 607 911 618 930 q 577 882 595 892 q 537 871 559 871 q 480 895 504 871 q 457 951 457 918 q 468 991 457 972 q 497 1021 479 1010 q 537 1032 515 1032 z "},"ù":{"ha":807,"x_min":22,"x_max":777,"o":"m 22 0 m 671 150 q 694 57 671 85 q 777 28 718 28 l 777 -1 q 690 3 733 3 q 546 -17 601 3 l 546 147 q 451 21 512 62 q 318 -20 391 -20 q 174 33 224 -20 q 138 104 149 60 q 127 215 127 147 l 127 564 q 104 657 127 628 q 22 686 81 686 l 22 715 q 109 711 66 711 q 253 730 196 711 l 253 184 q 259 99 253 132 q 288 46 265 66 q 358 25 311 25 q 454 58 412 25 q 522 149 497 92 q 546 277 546 207 l 546 564 q 523 657 546 628 q 440 686 499 686 l 440 715 q 526 711 484 711 q 671 730 614 711 l 671 150 m 218 1129 q 248 1139 231 1139 q 301 1108 277 1139 q 357 1013 319 1084 q 452 844 408 914 l 437 832 q 297 965 376 896 q 218 1043 239 1016 q 199 1090 199 1068 q 218 1129 199 1114 z "},"ű":{"ha":807,"x_min":22,"x_max":777,"o":"m 22 0 m 671 150 q 694 57 671 85 q 777 28 718 28 l 777 -1 q 690 3 733 3 q 546 -17 601 3 l 546 147 q 451 21 512 62 q 318 -20 391 -20 q 174 33 224 -20 q 138 104 149 60 q 127 215 127 147 l 127 564 q 104 657 127 628 q 22 686 81 686 l 22 715 q 109 711 66 711 q 253 730 196 711 l 253 184 q 259 99 253 132 q 288 46 265 66 q 358 25 311 25 q 454 58 412 25 q 522 149 497 92 q 546 277 546 207 l 546 564 q 523 657 546 628 q 440 686 499 686 l 440 715 q 526 711 484 711 q 671 730 614 711 l 671 150 m 439 1129 q 458 1090 458 1114 q 439 1043 458 1068 q 360 965 418 1016 q 220 832 281 896 l 205 844 q 300 1013 250 914 q 356 1108 338 1084 q 410 1139 380 1139 q 439 1129 427 1139 m 687 1129 q 706 1090 706 1114 q 687 1043 706 1068 q 608 966 667 1018 q 467 832 528 896 l 452 844 q 548 1013 497 914 q 604 1108 585 1084 q 656 1139 627 1139 q 687 1129 674 1139 z "},"ū":{"ha":807,"x_min":22,"x_max":777,"o":"m 22 0 m 671 150 q 694 57 671 85 q 777 28 718 28 l 777 -1 q 690 3 733 3 q 546 -17 601 3 l 546 147 q 451 21 512 62 q 318 -20 391 -20 q 174 33 224 -20 q 138 104 149 60 q 127 215 127 147 l 127 564 q 104 657 127 628 q 22 686 81 686 l 22 715 q 109 711 66 711 q 253 730 196 711 l 253 184 q 259 99 253 132 q 288 46 265 66 q 358 25 311 25 q 454 58 412 25 q 522 149 497 92 q 546 277 546 207 l 546 564 q 523 657 546 628 q 440 686 499 686 l 440 715 q 526 711 484 711 q 671 730 614 711 l 671 150 m 168 954 l 168 989 l 601 989 l 601 954 l 168 954 z "},"ų":{"ha":807,"x_min":22,"x_max":789,"o":"m 789 -167 q 632 -261 727 -261 q 552 -236 583 -261 q 522 -171 522 -212 q 571 -72 522 -117 q 709 3 619 -27 l 690 3 q 546 -17 601 3 l 546 147 q 451 21 512 62 q 318 -20 391 -20 q 174 33 224 -20 q 138 104 149 60 q 127 215 127 147 l 127 564 q 104 657 127 628 q 22 686 81 686 l 22 715 q 109 711 66 711 q 253 730 196 711 l 253 184 q 259 99 253 132 q 288 46 265 66 q 358 25 311 25 q 454 58 412 25 q 522 149 497 92 q 546 277 546 207 l 546 564 q 523 657 546 628 q 440 686 499 686 l 440 715 q 526 711 484 711 q 671 730 614 711 l 671 150 q 694 57 671 85 q 777 28 718 28 l 777 -1 l 753 1 q 745 -3 745 -3 q 624 -134 624 -54 q 640 -178 624 -161 q 684 -195 656 -195 q 731 -181 709 -195 q 768 -149 754 -168 l 789 -167 z "},"ů":{"ha":807,"x_min":22,"x_max":777,"o":"m 22 0 m 671 150 q 694 57 671 85 q 777 28 718 28 l 777 -1 q 690 3 733 3 q 546 -17 601 3 l 546 147 q 451 21 512 62 q 318 -20 391 -20 q 174 33 224 -20 q 138 104 149 60 q 127 215 127 147 l 127 564 q 104 657 127 628 q 22 686 81 686 l 22 715 q 109 711 66 711 q 253 730 196 711 l 253 184 q 259 99 253 132 q 288 46 265 66 q 358 25 311 25 q 454 58 412 25 q 522 149 497 92 q 546 277 546 207 l 546 564 q 523 657 546 628 q 440 686 499 686 l 440 715 q 526 711 484 711 q 671 730 614 711 l 671 150 m 389 1099 q 456 1083 425 1099 q 505 1039 487 1067 q 524 972 524 1010 q 505 905 524 934 q 456 860 487 876 q 389 844 425 844 q 322 860 353 844 q 274 905 292 876 q 256 972 256 934 q 274 1039 256 1010 q 323 1083 292 1067 q 389 1099 353 1099 m 389 1069 q 344 1058 366 1069 q 308 1024 322 1046 q 294 971 294 1002 q 308 918 294 940 q 344 885 322 896 q 389 873 366 873 q 435 885 413 873 q 471 918 457 896 q 485 971 485 940 q 471 1024 485 1002 q 435 1058 457 1046 q 389 1069 412 1069 z "},"ũ":{"ha":807,"x_min":22,"x_max":777,"o":"m 22 0 m 671 150 q 694 57 671 85 q 777 28 718 28 l 777 -1 q 690 3 733 3 q 546 -17 601 3 l 546 147 q 451 21 512 62 q 318 -20 391 -20 q 174 33 224 -20 q 138 104 149 60 q 127 215 127 147 l 127 564 q 104 657 127 628 q 22 686 81 686 l 22 715 q 109 711 66 711 q 253 730 196 711 l 253 184 q 259 99 253 132 q 288 46 265 66 q 358 25 311 25 q 454 58 412 25 q 522 149 497 92 q 546 277 546 207 l 546 564 q 523 657 546 628 q 440 686 499 686 l 440 715 q 526 711 484 711 q 671 730 614 711 l 671 150 m 286 1067 q 346 1054 321 1067 q 403 1017 372 1042 q 450 986 430 996 q 496 975 470 975 q 603 1048 559 975 l 623 1039 q 558 931 602 966 q 458 896 514 896 q 396 909 422 896 q 340 947 370 922 q 292 979 311 968 q 248 989 273 989 q 140 914 186 989 l 121 924 q 185 1032 142 997 q 286 1067 229 1067 z "},"v":{"ha":679,"x_min":-3,"x_max":675,"o":"m 570 711 q 675 715 631 711 l 675 688 q 625 663 647 684 q 585 590 604 641 l 357 -7 l 334 -7 l 78 608 q 38 671 58 656 q -3 686 18 686 l -3 715 q 119 710 69 710 q 300 715 226 710 l 300 686 q 246 684 265 686 q 214 671 227 682 q 201 639 201 661 q 216 578 201 616 l 387 155 l 541 557 q 555 621 555 595 q 531 669 555 653 q 453 688 507 684 l 453 715 q 570 711 525 711 z "},"w":{"ha":1069,"x_min":0,"x_max":1065,"o":"m 960 711 q 1065 715 1021 711 l 1065 688 q 1014 663 1036 684 q 975 590 991 641 l 774 -7 l 750 -7 l 530 552 l 332 -7 l 309 -7 l 81 608 q 41 672 62 657 q 0 686 21 686 l 0 715 q 122 707 58 707 q 302 715 184 707 l 302 686 q 249 684 268 686 q 218 671 230 682 q 205 635 205 660 q 220 570 205 610 l 359 170 l 558 721 l 590 721 l 803 159 l 933 557 q 946 620 946 597 q 922 669 946 653 q 843 688 898 684 l 843 715 q 960 711 916 711 z "},"ẃ":{"ha":1069,"x_min":0,"x_max":1065,"o":"m 0 0 m 960 711 q 1065 715 1021 711 l 1065 688 q 1014 663 1036 684 q 975 590 991 641 l 774 -7 l 750 -7 l 530 552 l 332 -7 l 309 -7 l 81 608 q 41 672 62 657 q 0 686 21 686 l 0 715 q 122 707 58 707 q 302 715 184 707 l 302 686 q 249 684 268 686 q 218 671 230 682 q 205 635 205 660 q 220 570 205 610 l 359 170 l 558 721 l 590 721 l 803 159 l 933 557 q 946 620 946 597 q 922 669 946 653 q 843 688 898 684 l 843 715 q 960 711 916 711 m 720 1129 q 739 1090 739 1114 q 720 1043 739 1068 q 640 966 700 1018 q 500 832 552 887 l 485 844 q 581 1013 530 914 q 636 1108 618 1084 q 689 1139 660 1139 q 720 1129 706 1139 z "},"ŵ":{"ha":1069,"x_min":0,"x_max":1065,"o":"m 0 0 m 960 711 q 1065 715 1021 711 l 1065 688 q 1014 663 1036 684 q 975 590 991 641 l 774 -7 l 750 -7 l 530 552 l 332 -7 l 309 -7 l 81 608 q 41 672 62 657 q 0 686 21 686 l 0 715 q 122 707 58 707 q 302 715 184 707 l 302 686 q 249 684 268 686 q 218 671 230 682 q 205 635 205 660 q 220 570 205 610 l 359 170 l 558 721 l 590 721 l 803 159 l 933 557 q 946 620 946 597 q 922 669 946 653 q 843 688 898 684 l 843 715 q 960 711 916 711 m 583 1114 q 674 979 612 1043 q 815 875 736 914 l 804 856 q 658 919 729 882 q 543 994 587 957 q 452 919 508 957 q 338 856 396 882 l 326 875 q 468 979 406 914 q 558 1114 530 1043 l 583 1114 z "},"ẅ":{"ha":1069,"x_min":0,"x_max":1065,"o":"m 0 0 m 960 711 q 1065 715 1021 711 l 1065 688 q 1014 663 1036 684 q 975 590 991 641 l 774 -7 l 750 -7 l 530 552 l 332 -7 l 309 -7 l 81 608 q 41 672 62 657 q 0 686 21 686 l 0 715 q 122 707 58 707 q 302 715 184 707 l 302 686 q 249 684 268 686 q 218 671 230 682 q 205 635 205 660 q 220 570 205 610 l 359 170 l 558 721 l 590 721 l 803 159 l 933 557 q 946 620 946 597 q 922 669 946 653 q 843 688 898 684 l 843 715 q 960 711 916 711 m 425 1032 q 465 1021 446 1032 q 495 991 484 1010 q 506 951 506 972 q 495 911 506 930 q 465 882 484 892 q 425 871 447 871 q 368 895 392 871 q 345 951 345 918 q 355 991 345 972 q 385 1021 366 1010 q 425 1032 404 1032 m 720 1032 q 759 1021 741 1032 q 789 991 778 1010 q 800 951 800 972 q 789 911 800 930 q 760 882 778 892 q 720 871 741 871 q 663 895 686 871 q 640 951 640 918 q 650 991 640 972 q 680 1021 661 1010 q 720 1032 698 1032 z "},"ẁ":{"ha":1069,"x_min":0,"x_max":1065,"o":"m 0 0 m 960 711 q 1065 715 1021 711 l 1065 688 q 1014 663 1036 684 q 975 590 991 641 l 774 -7 l 750 -7 l 530 552 l 332 -7 l 309 -7 l 81 608 q 41 672 62 657 q 0 686 21 686 l 0 715 q 122 707 58 707 q 302 715 184 707 l 302 686 q 249 684 268 686 q 218 671 230 682 q 205 635 205 660 q 220 570 205 610 l 359 170 l 558 721 l 590 721 l 803 159 l 933 557 q 946 620 946 597 q 922 669 946 653 q 843 688 898 684 l 843 715 q 960 711 916 711 m 400 1129 q 430 1139 413 1139 q 484 1108 460 1139 q 539 1013 502 1084 q 635 844 590 914 l 619 832 q 479 965 559 896 q 400 1043 422 1016 q 381 1090 381 1068 q 400 1129 381 1114 z "},"x":{"ha":721,"x_min":29,"x_max":703,"o":"m 616 98 q 659 48 641 63 q 703 29 676 34 l 703 0 q 604 5 632 5 q 440 0 557 5 l 440 29 q 479 38 463 29 q 495 60 495 47 q 489 77 495 67 l 331 307 l 229 175 q 191 92 191 125 q 293 28 191 35 l 293 0 q 135 4 220 4 q 29 0 73 4 l 29 28 q 85 53 56 31 q 151 125 113 75 l 311 336 l 118 616 q 86 658 99 644 q 61 678 73 672 q 32 686 50 684 l 32 715 q 131 710 105 710 q 294 715 178 710 l 294 686 q 256 678 272 686 q 240 655 240 669 q 245 639 240 647 l 394 422 l 490 557 q 532 644 532 616 q 513 674 532 664 q 453 688 494 685 l 453 715 q 570 711 525 711 q 675 715 631 711 l 675 688 q 553 590 618 681 l 412 396 l 616 98 z "},"y":{"ha":700,"x_min":-5,"x_max":686,"o":"m 581 711 q 686 715 642 711 l 686 688 q 637 663 659 684 q 596 590 615 641 l 368 -7 l 321 -127 q 261 -225 294 -196 q 153 -261 222 -261 q 85 -239 111 -261 q 58 -178 58 -217 q 78 -124 58 -144 q 132 -104 98 -104 q 183 -121 163 -104 q 203 -170 203 -138 q 165 -232 203 -211 q 174 -233 168 -233 q 292 -125 250 -233 l 341 2 l 89 608 q 42 671 65 656 q -5 686 18 686 l -5 715 q 131 707 60 707 q 311 715 191 707 l 311 686 q 258 684 277 686 q 227 671 239 682 q 214 638 214 661 q 232 570 214 613 l 399 155 l 553 557 q 568 621 568 597 q 543 669 568 653 q 464 688 518 684 l 464 715 q 581 711 537 711 z "},"ý":{"ha":700,"x_min":-5,"x_max":686,"o":"m 0 0 m 581 711 q 686 715 642 711 l 686 688 q 637 663 659 684 q 596 590 615 641 l 368 -7 l 321 -127 q 261 -225 294 -196 q 153 -261 222 -261 q 85 -239 111 -261 q 58 -178 58 -217 q 78 -124 58 -144 q 132 -104 98 -104 q 183 -121 163 -104 q 203 -170 203 -138 q 165 -232 203 -211 q 174 -233 168 -233 q 292 -125 250 -233 l 341 2 l 89 608 q 42 671 65 656 q -5 686 18 686 l -5 715 q 131 707 60 707 q 311 715 191 707 l 311 686 q 258 684 277 686 q 227 671 239 682 q 214 638 214 661 q 232 570 214 613 l 399 155 l 553 557 q 568 621 568 597 q 543 669 568 653 q 464 688 518 684 l 464 715 q 581 711 537 711 m 501 1129 q 520 1090 520 1114 q 501 1043 520 1068 q 422 966 481 1018 q 281 832 334 887 l 267 844 q 362 1013 311 914 q 418 1108 399 1084 q 471 1139 441 1139 q 501 1129 488 1139 z "},"ŷ":{"ha":700,"x_min":-5,"x_max":686,"o":"m 0 0 m 581 711 q 686 715 642 711 l 686 688 q 637 663 659 684 q 596 590 615 641 l 368 -7 l 321 -127 q 261 -225 294 -196 q 153 -261 222 -261 q 85 -239 111 -261 q 58 -178 58 -217 q 78 -124 58 -144 q 132 -104 98 -104 q 183 -121 163 -104 q 203 -170 203 -138 q 165 -232 203 -211 q 174 -233 168 -233 q 292 -125 250 -233 l 341 2 l 89 608 q 42 671 65 656 q -5 686 18 686 l -5 715 q 131 707 60 707 q 311 715 191 707 l 311 686 q 258 684 277 686 q 227 671 239 682 q 214 638 214 661 q 232 570 214 613 l 399 155 l 553 557 q 568 621 568 597 q 543 669 568 653 q 464 688 518 684 l 464 715 q 581 711 537 711 m 365 1114 q 455 979 393 1043 q 597 875 517 914 l 586 856 q 439 919 511 882 q 325 994 368 957 q 234 919 290 957 q 119 856 178 882 l 108 875 q 249 979 187 914 q 340 1114 311 1043 l 365 1114 z "},"ÿ":{"ha":700,"x_min":-5,"x_max":686,"o":"m 0 0 m 581 711 q 686 715 642 711 l 686 688 q 637 663 659 684 q 596 590 615 641 l 368 -7 l 321 -127 q 261 -225 294 -196 q 153 -261 222 -261 q 85 -239 111 -261 q 58 -178 58 -217 q 78 -124 58 -144 q 132 -104 98 -104 q 183 -121 163 -104 q 203 -170 203 -138 q 165 -232 203 -211 q 174 -233 168 -233 q 292 -125 250 -233 l 341 2 l 89 608 q 42 671 65 656 q -5 686 18 686 l -5 715 q 131 707 60 707 q 311 715 191 707 l 311 686 q 258 684 277 686 q 227 671 239 682 q 214 638 214 661 q 232 570 214 613 l 399 155 l 553 557 q 568 621 568 597 q 543 669 568 653 q 464 688 518 684 l 464 715 q 581 711 537 711 m 207 1032 q 247 1021 228 1032 q 276 991 265 1010 q 288 951 288 972 q 276 911 288 930 q 247 882 265 892 q 207 871 229 871 q 150 895 174 871 q 126 951 126 918 q 137 991 126 972 q 166 1021 148 1010 q 207 1032 185 1032 m 501 1032 q 541 1021 522 1032 q 571 991 559 1010 q 582 951 582 972 q 571 911 582 930 q 541 882 559 892 q 501 871 523 871 q 445 895 468 871 q 421 951 421 918 q 432 991 421 972 q 461 1021 443 1010 q 501 1032 479 1032 z "},"ỳ":{"ha":700,"x_min":-5,"x_max":686,"o":"m 0 0 m 581 711 q 686 715 642 711 l 686 688 q 637 663 659 684 q 596 590 615 641 l 368 -7 l 321 -127 q 261 -225 294 -196 q 153 -261 222 -261 q 85 -239 111 -261 q 58 -178 58 -217 q 78 -124 58 -144 q 132 -104 98 -104 q 183 -121 163 -104 q 203 -170 203 -138 q 165 -232 203 -211 q 174 -233 168 -233 q 292 -125 250 -233 l 341 2 l 89 608 q 42 671 65 656 q -5 686 18 686 l -5 715 q 131 707 60 707 q 311 715 191 707 l 311 686 q 258 684 277 686 q 227 671 239 682 q 214 638 214 661 q 232 570 214 613 l 399 155 l 553 557 q 568 621 568 597 q 543 669 568 653 q 464 688 518 684 l 464 715 q 581 711 537 711 m 182 1129 q 212 1139 195 1139 q 265 1108 241 1139 q 321 1013 283 1084 q 416 844 372 914 l 401 832 q 261 965 340 896 q 182 1043 203 1016 q 163 1090 163 1068 q 182 1129 163 1114 z "},"z":{"ha":661,"x_min":53,"x_max":610,"o":"m 361 21 q 496 74 446 21 q 554 244 545 127 l 586 244 q 591 -5 586 63 q 334 0 483 0 q 53 -7 201 0 l 454 694 l 301 694 q 199 672 239 694 q 137 601 159 650 q 109 471 115 551 l 77 471 q 71 721 77 654 q 329 715 180 715 q 610 722 462 715 l 208 21 l 361 21 z "}}}
